<?xml version="1.0" encoding="UTF-8"?>
<svg id="Layer_2" data-name="Layer 2" xmlns="http://www.w3.org/2000/svg" viewBox="0 0 131.5 79.3">
  <defs>
    <style>
      .cls-1 {
        fill: #009e92;
      }
    </style>
  </defs>
  <g id="Layer_1-2" data-name="Layer 1">
    <g>
      <path class="cls-1" d="M119.3,76.9s-.1-.1-.1-.2c0,0,0-.1,.1-.1,.2,0,.4,0,.5,.1,0,0,0,.2,.2,.4-.4,0-.6-.1-.7-.2h0Zm.5,1c.5-.4,1-.1,1.5-.2-.3,.4-.9,.6-1.5,.2Zm7.9-2.4c.4-.1,.8-.6,1.3-.3-.1,.6-.7,.7-1.3,.3Z"/>
      <path class="cls-1" d="M90.4,77.8c0,.1,.1,.2,.3,.4,.3,0,.5,0,.8-.2,.2-.1,.4-.1,.7,0,.2,.1,.6,.3,1,.4,0-.3,0-.5-.1-.7,.2-.1,.4-.3,.7-.5,0,.2,.2,.4,.3,.6,.2,.1,.5,.2,.8,0h.4c.4,0,.9-.1,1.4,0,.1,0,.3-.2,.4-.3,.2,0,.5,.1,.8,.1h1.5c.4,0,.7,0,1,.4,.2-.4,.6-.5,1-.5s1-.1,1.5-.2c0,0,.2,0,.3-.1,0-.4-.4-.3-.5-.2-.6,.1-1.2,0-1.8,0h-2.6c.3-.4,.7-.4,1-.4s1,0,1.4-.1c.5,0,1-.2,1.5-.3h.4c.3,.3,.6,.1,.9,0,.4,.1,.1,.4,0,.5,0,.1-.2,.3,0,.4s.3,.1,.4,.1c.3,0,.5,0,.9-.1,0,0,.1-.1,.2-.3h.1c.2,.2,.4,.2,.6,0,.1-.2,.5-.4,.9-.3,.33,0,.57-.13,.7-.4,.6-.2,.7,.4,1,.6,.4,0,.7-.1,1-.1h.4c.2,0,.4,0,.7-.1,.2-.2,.6-.3,1-.2h.7c.3-.1,.7-.1,1,0h.2c.3-.3,.7,0,1-.1h.4c.2,0,.5-.1,.7,0h.4c.3-.1,.6-.1,.9-.1h.7c.6,0,1.2-.1,1.8-.2,0-.1,.2-.3,.4-.5,0,.2,0,.4,.1,.5,0,0,.1,0,.2-.1,.1-.1,.3-.3,.5,0,.4,.3,.5,.3,1.1,0v-.4s.1-.1,.2-.1c.4,0,.9,0,1.3-.1,.4,0,.7,0,1.1-.1,0,0,.1-.1,.2-.2-.4-.1-.8-.3-1.2-.3s-.7,0-1.1,.1c-.3,0-.7,.1-1,.1h-1.3c-.4,0-.7,0-1-.3,.1,0,.3-.2,.4-.2,.4,0,.7-.1,1.1,0h.4c.4,0,.9-.1,1.3-.1s.7-.1,1-.4c.4-.3,.7-.4,1.2-.3h1.3c.2-.3,.6-.3,1-.3s1.2-.1,1.8-.2h.4c.5,.2,1,0,1.5-.2h1.4v-1c-.4,.3-.8,.2-1-.2,.4-.2,.7-.2,1,.1v-1.1h-.3c0-.4,.1-.6,.2-.9h0v-1.5c0-2.4-.2-4.8-.5-7.3-.2,.2-.4,.3-.7,.4v3.2c0,.5-.1,.4-.3,.4h-.4c0-.4-.1-.7-.4-.7v.4c0,.2-.2,.4-.4,.4s-.4-.2-.4-.4c0-.7,0-1.5,.5-2.1,.1-.1,.4-.2,.5-.4v-4.7c0-.3,.2-.6,0-.9-.1-.4,0-.9,0-1.4v-3.7c0-.2,0-.4,.1-.6,.1-.4,.2-.4,0-.7-.2-.2-.5-.4-.7-.6,0-.4,0-.6-.2-.7-.1-.3-.2-.6-.2-1v-3.5c0-.3,0-.5,.3-.7s.2-.3,0-.6c-.3-.6-.6-1.1-1-1.7-.2-.4-.4-.9-.7-1.2-.7-1.1-1.3-2.2-1.8-3.3-.4-.9-.8-1.8-1.2-2.6-.1-.3-.3-.5-.4-.8,0-.3-.1-.5-.4-.7,0,0-.1-.1-.2-.2,0-.1,.2-.2,.2-.3,0-.2,.1-.4-.1-.6-.1,0-.5,0-.7,.3v.7c-.1,.4-.4,.7-.6,1-.5,.9-1,1.7-1.6,2.5-.1,.2-.1,.4,0,.7,.1,0,.2-.1,.3-.2,.3-.4,.5-.8,.7-1.2s.4-.5,.9-.6c.4,0,.8,0,1.2-.1q.4,0,.6,.3c.4,.9,.7,1.8,1.2,2.6,.3,.6,.6,1.2,.8,1.8,.3,.6,.5,1.2,.7,1.8v.3c-.1,0-.2,.1-.4,.1-.4,0-.7,0-1.1,.1-.4,0-1,0-1.4,.1-1,.1-2.1,.3-3.2,.4h-.6c-.2,0-.4-.1-.4-.4s0-.6-.1-.9c0-.4,0-.7,.4-1,.2-.2,.2-.4,.1-.7-.4-1.1-.7-2.1-.7-3.3s0-.4-.4-.6c-.2,.2-.4,.5-.7,.7-.4-.3-.2-.7-.3-1,0-.4,0-.7,.4-1,.3-.2,.4-.4,.1-.7-.2-.4-.4-.7-.7-1.1-.4-1-.9-1.9-1.3-2.9-.7-1.2-1.3-2.5-2-3.7-1-1.9-1.9-3.9-2.8-5.8-.1-.2-.2-.5-.3-.7-.1-.3-.3-.5-.7-.5h-.7c-.4,0-.7,.3-.7,.7,.3,0,.5,.1,.8,.3h0c-.1,.1-.3,.2-.5,.2s-.4,0-.6,.2c-.5,.3-.6,.8-.9,1.2-.3,.4-.5,.9-.7,1.3-.2,.4-.4,.7-.6,1-.4,.7-1,1.4-1.3,2.1-.6,.9-1.1,1.8-1.6,2.8-.4,.8-1,1.5-1.4,2.3-.4,.7-.7,1.2-1.1,1.9-.13,.27-.1,.5,.1,.7,.4,.3,.5,.6,.4,1.1v4.4h.8c.3,0,.6-.1,.9-.1,.9-.1,1.7-.2,2.6-.4,.6,0,1.2-.2,1.8-.3,.7-.1,1.5-.3,2.2-.4,.5,0,1.1-.1,1.6-.2,.6,0,1.2-.1,1.8-.2h.9c0,.6,.1,1,.2,1.5-.1,0-.2,.1-.3,.1-.5,0-1,.1-1.5,.2-.6,0-1.2,.1-1.8,.2-.8,.1-1.7,.3-2.5,.4-.4,0-1,.1-1.4,.2-.4,0-1,.1-1.4,.2-.7,0-1.3,.1-2,.2s-1.4,.2-2.1,.3c-.3,0-.4,.1-.2,.4,.3,.6,.3,1.2,.1,1.8v.8c-.4,0-.7,.2-1,.2-.7,0-1.4,.2-2.1,.3-.4,0-.9,.2-1.3,0,.4-.3,1.1-.1,1.5-.6-.1,0-.2-.1-.4-.2v-1.9c-.4-.6-.7-1.2-1.2-1.7-.3-.4-.4-.4-.8-.2-.5,.2-1,.5-1.6,.4v-4.2c.1-2,0-4,.1-6.1v-5.2c.2-.9,.4-1.8,.7-2.7,0-.4,0-.8-.4-1.1-.6-.4-1.2-.8-1.7-1.3-.3-.3-.6-.3-.9-.2-.7,.1-1.2,.2-1.8,.4-1,.3-2,.6-2.9,.9-.5,.1-.6,.3-.4,.8,.1,.4,.2,.9,.4,1.3,.1,.7,.2,1.3,.4,2h.4c.5-.1,1-.3,1.5-.4,.7-.1,1.3-.4,2-.5s.3,0,.4,0v12.7c0,.7,.1,1.3,0,2s-.1,1.5-.1,2.3v11.4c0,.1,0,.4-.1,.5-.7,0-1-.4-1-1v-17.1c0-.1,0-.4,.1-.5,.3,0,.5,0,.6-.4-.2,0-.4,0-.7-.1v-4.6c.1-.4,.1-.7,0-1,0-.4,0-.7,.4-.8,.3-.1,.4-.4,.4-.7,0-.2,0-.4-.1-.7,.3-.4,.1-.8,0-1.3h-.9c-.3,0-.4,.1-.4,.4v.5c0,.3,0,.4,.1,.7,0,.1-.1,.3-.2,.4,0,.6-.1,1.2,0,1.7v5.4c0,2.1,0,4.1-.1,6.2v3.9c0,2.1,0,4.2-.1,6.4v2.3c0,.2,0,.4-.3,.6,0-.1-.1-.3-.2-.4-.2,0-.4-.1-.7-.2V29.5c0-.4,.1-.8,0-1.2,0-.3,0-.7,.2-.7,.5-.2,.5-.6,.4-1-.2,0-.3-.2-.6-.1-.7,.2-1,.1-.9,1.1v2.5c0,.3,0,.6-.3,.9,.2,.2,.3,.5,.3,.9v1.3c0,.4,0,.9-.7,1,.6,.4,.7,1,.6,1.5v7.3c0,1.2-.1,2.3-.1,3.5v5.8c0,.4,0,.6-.4,.7-.1,0-.2,0-.3,.1h0c.3,.2,.5,.1,.7,.1,.7,0,1.2-.2,1.9-.2h1.6c-.1,.3-.3,.4-.6,.4h-1.3c-.6,.1-1.2,.2-1.8,.2s-.4,.1-.3,.4c0,.1,0,.2,.1,.3,.3,0,.6,.1,.9,.2-.1,.1-.1,.3-.3,.4-.4,.1-.6-.2-1-.4-.1,.1-.4,.2-.4,.4,0,.4-.2,.4-.5,.4-.2-.4-.1-.5,.1-.9,.2-.2,.4-.5,.3-.9-.4-.1-.6,0-.7,.4,0,.3-.2,.4-.4,.6-.1,0-.2,.2-.3,.3-.1,.2,0,.3,.2,.4,.2,0,.4,.1,.7,.2-.2,.4-.5-.3-.7,.1,.2,.3,.4,.6,.5,1v.1c.1,.2,.3,.4,.4,.6,.4,0,.7,0,1.1,.4-.1,.2-.3,.4-.4,.7h-.3c-.4,0-.8-.1-1.2,0,0,0-.2,0-.4-.1v-.5c-.8-.5-1.8-.6-2.7-.9,.1,.4,.4,.4,.6,.5,.1,0,.4,0,.4,.1,.2,.2,.4,.3,.7,.2,.2,0,.3,0,.3,.4h-.2c-.1,0-.4-.1-.5-.2-.6,0-1.1-.1-1.7-.2-.3,0-.6,0-1-.1-.7-.1-1.3-.3-2.1-.4s-1.6-.3-2.4-.4c-.4,0-.9-.1-1.3-.2-.4,0-1-.1-1.4-.2-.9-.1-1.8-.3-2.6-.5-.3,0-.6-.2-1-.3-.2,0-.3-.2-.2-.4,0-.2,.1-.4,.4-.3,.5,.1,1.1,.2,1.7,.3,1.2,.3,2.3,.4,3.5,.7,.6,0,1.2,.2,1.8,.3,.7,.1,1.5,.4,2.3,.3h.3c.6,.1,1.2,.4,1.7,.5h.6q-.4-.6-1.1-.4c0-.2-.2-.4-.3-.6,0-.4,0-.9-.1-1.3v-1.4c0-.3,0-.5,.1-.8,.5-.1,1-.2,1.5-.4,.4-.1,.8-.3,1.2,0h.2c.6-.1,1.1-.3,1.7,0h1.2c.5,0,.6-.1,.6-.6v-1.9c.1-.6,.1-1.2,0-1.7,0-.4,.1-.8,.1-1.2s-.1-.5-.4-.4c-.4,0-.9,0-1.3,.1-1,.1-1.8,.3-2.8,.4h-.7c-.7,0-1.4,.2-2.1,.3-.6,0-1.2,.2-1.8,0,.4-.1,.9-.2,1.3-.4,.6-.1,1.1-.2,1.7-.4,.1,0,.3-.1,.4-.2,.3-.2,.6-.4,.9-.6,.4-.2,.9-.3,1.4-.4,.9-.2,1.8-.4,2.6-.7h.4c0,.7-.7,.5-1,.8,.4,.2,.8,0,1.2,0h0c0-.5,0-1,.3-1.2s.2-.4,0-.7v-.3c.2-.7,.1-1.4,.1-2.1v-2.9c0-.1,0-.4-.1-.4-.3-.5-.7-1-1-1.5-.4-.7-.8-1.4-1.2-2.1h-.2c-.4,.1-.7,0-.9-.3-.1-.1-.3-.3-.4-.4-.6-.4-1.2-.8-1.8-1.2-1.1-.7-2.3-1.2-3.4-1.7-.7-.3-1.5-.7-1.9-1.2-.2-.2-.4-.5-.2-.8v-.1h.5c.2-.7,.9-.3,1.3-.4v-2.2c-.2,0-.4-.1-.5-.2-.1-.2-.3-.4-.4-.6-.6,.1-.5,.1-.8-.3-.3-.4-.3-.8-.3-1.2s0-.7,.4-1c.3-.1,.3-.4,.1-.7-.1-.4-.3-.7-.4-1.1-.8-1.8-1.5-3.4-2.3-5.2-.4-.7-.6-1.5-.9-2.3,0-.2-.1-.4-.2-.7-.2-.4-.3-.4-.7-.3-.4,.1-.9,.1-1,.7h0c-.2,.2-.2,.4-.1,.7,.4-.1,.7-.2,1-.4,.3,.2,.3,.4,.3,.7,0,.7,0,1.4,.1,2.1,0,.8,.2,1.5,.2,2.3v.4c0,.4,0,.5-.3,.7-.1,0-.3,.1-.4,.2-1,.3-2.1,.7-3.1,1-.4,.1-.9,.3-1.3,.4-.1,0-.4,.2-.4,.4s.1,.2,.3,.4h.1c.4,.3,.4,.8,.3,1.2v.5c0,.3,0,.5-.4,.6s-.8,0-1.1,.4h-.3q-.4,0-.4,.4v1.1c-.3,.4-.1,.7,0,.9,.2,0,.4,0,.6,.1,.3,.2,.7,.3,1,.4,0,0,.2,0,.3,.1,0,.4,0,.6-.2,.9,0,0-.1,.2-.2,.4-.1,.2,0,.4,.1,.4,.1-.2,.3-.4,.4-.5,.3-.1,.7-.3,1-.4,.8-.3,1.6-.5,2.5-.7h.4c.3,0,.5,0,.7-.1,.2,0,.4,0,.5,.2-.8,.4-1,.4-1.1,1,0,.2-.1,.5-.2,.7-.2,1-.4,1.8-.6,2.8-.1,.7-.2,1.3-.3,1.9,0,.9-.1,1.8-.2,2.7v4.3c-.9,0-1.6,.4-2.6,.4-1.5,3-3,6.1-4.4,9.1-1.1,.1-2.1,.2-3.1,.4,0-.7,0-1.2,.2-1.8,0-.4,.1-.7,.2-1,.1-.7,.3-1.5,.4-2.2v-.7c0-.3,0-.7,.4-1,.5,.2,.1,.9,.7,1.1,.2,0,.4,.1,.6,.4,.1,.1,.2,.4,.4,.5,0,0,.1,.3,0,.4,0,.1-.3,.1-.4,0,0,0-.2-.1-.3-.2v-.4c-.3,0-.6-.1-.8-.3-.1,.3-.1,.4,.1,.5,.2,0,.4,.2,.6,.4-.1,.4-.2,.7,0,1-.4,0-.7,.3-1-.1v.3c0,.1,.2,.4,.4,.4,.4,0,.4,.3,.4,.6h.4c-.1,.3-.2,.6-.1,.9,.2-.2,.4-.1,.6,0,.1-.2,.4-.4,.3-.7-.1,0-.2,.1-.4,.3,0-.4,0-.6,.3-.8h.4c.1-.4-.1-.4-.2-.5,0-.1,0-.4,.1-.5-.1,0-.3-.2-.4-.3,.1-.4,.4-.2,.6-.1,0-.1,.1-.3,0-.4,0-.1-.2-.3-.3-.5,0,0,.2-.2,.3-.4h.3c.5-.3,.4-1,1-1.3,0,.3-.1,.6-.2,.8h.1c.4-.7,.8-1.5,1.2-2.3,.1-.2,.2-.5,0-.7v-.4h0c0-.1-.3-.1-.3-.1,0,.2-.2,.4-.3,.7-.1-.1-.2-.2-.3-.4h-.3c-.1-.4-.4-.7-.8-.7s-.4,0-.7-.1c-.6-.1-1.2-.3-1.8-.7-.5-.3-1.2-.4-1.8-.6-1.2-.4-2.4-.7-3.7-1-.5-.1-.7-.3-.4-.8,.3-.7,.7-1.2,1.1-1.8,.4-.7,1-1.3,1.5-2,.3-.4,.7-.7,1-1,.2,.3,.3,.6,0,.9-.1,0-.2,0-.4,.1-.27,0-.4,.17-.4,.5v1.6c0,.2,.1,.4,.4,.2,.4-.1,.8-.1,1-.7,0-.1,.2-.4,.4-.4,.3-.2,.4-.4,.4-.8v-1.1c0-.4,0-.6-.5-.7-.1,0-.3-.1-.4-.2,0-.1,.1-.2,.2-.3,.5-.4,1-.7,1.5-1,.4-.2,.8-.5,1.4-.6h.1c.4-.4,.9-.4,1.3-.6,.2,0,.4-.1,.4-.5h-.5c-.6,.2-1.1,.4-1.7,.7-.4,.2-.9,.4-1.2,.8s-1,.4-1.2,.7c-.1,.2-.4,.4-.7,.6-.7,.5-1.3,1.2-2,1.8-.2,.2-.4,.3-.7,.3h-.4s-.1,.1-.1,.2c0,.2,.1,.4,.2,.7-.2,.1-.4,.2-.6,.4s-.4,.4-.3,.6c.1,.4,0,.6,0,.9-.1,.4-.4,.7-.6,1.2h-.5c-.6-.1-1.1-.4-1.7-.5-.4,0-.7-.1-1.1-.3s-.8-.3-1.2-.4c-.7-.2-1.5-.4-2.2-.7-.4,.1-.4,.5-.3,.8,0,.3,.3,.4,.6,.4s.7,0,1,.1c.8,.2,1.5,.5,2.3,.8v.4c0,.2-.1,.4-.4,.4s-.4,0-.4-.3c0,0,0-.2-.1-.4-.2,.1-.4,.3-.6,.4-.2-.1-.5-.3-.7-.4-.2-.1-.4-.4-.7-.6-.1,.7-.7,.4-1.2,.7,0-.2,0-.4-.1-.5-.1-.5,0-1.2-.3-1.7-.1-.3-.2-.5-.3-.8-.4-.8-.8-1.6-1.5-2.3,0,0-.2-.1-.3-.3-.3-.5-.8-.8-1.3-1.1-.8-.4-1.7-.4-2.6-.6-.1,0-.3,0-.4,.1-.3,.1-.5,.3-.9,.2v-.4h-.5c0-.4,0-.7-.4-.9,0,0-.1-.3,0-.3,0,0,.2-.1,.4-.1,.9,.2,1.8,.4,2.6,.8,.8,.3,1.5,.6,2.3,.8,.3,0,.5,.2,.7,.3,.8,.2,1.7,.5,2.5,.7h.4c.3-.2,.6-.4,.8-.6,0,0,.1-.2,0-.3,0,0-.1-.1-.2-.1-.3,0-.6,0-.9,.3,0-.2-.1-.4-.3-.6s-.4-.2-.6-.3v-.7s-.1,0-.3-.1c0,.1-.2,.2-.4,.4,0,0-.2,0-.3-.1,.1-.2,.4-.4,0-.6h-.2v.5c-.7,0-1.2,0-1.7-.6-.2,0-.6,.1-.7-.2,.07-.4-.07-.7-.4-.9-.1,0-.2-.2-.4-.4,0-.1-.1-.3-.2-.5-.4,0-1,.3-1.2-.4,.4,0,.7,0,1-.2,0,0,.3,0,.4,.1,.2,.2,.4,.5,.7,.7,.6,0,.6-.5,.8-.9,.2,.2,.4,.4,.5,.7,0,.1,0,.4-.1,.5,0,.2,.2,.4,0,.7v.7h.1c0-.1,.2-.3,.2-.4,0-.3,0-.6,.1-.9,0-.1,.1-.3,.1-.4,.6,.3,1.1,.5,1.6,.8h0c0-.2,0-.4-.1-.5-.2-.2-.4-.5-.5-.8-.2-.4-.6-.9-.8-1.4-.4-.7-.7-1.3-1.1-2-.7-1-1.4-2.1-2.1-3.1-.2-.3-.4-.6-.6-.9-.4-.7-1-1.2-1.2-2.1,0-.2-.1-.4-.3-.5-.1-.2-.2-.4-.4-.7-.1-.3-.2-.7-.4-.9-.1-.3-.1-.6,0-.8h0c-.4-.5-.4-1-.4-1.5v-5.5c0-.3,0-.5,.3-.7,0,0,0-.2,.1-.4-.4,0-.5-.2-.6-.5,0,0-.1,0-.3-.2v7.5c0,.4,0,.7-.3,1-.2,.2-.1,.4,0,.7,.4,.4,.4,.7-.2,.9-.3,.1-.3,.3-.2,.5,.3,0,.6,0,.7,.3-.2,0-.5,.2-.7,.2-.4,0-.6,.3-.7,.7,0,.1,0,.4-.2,.5-.5,.5-.7,1.2-1.2,1.7-.7,.7-1.1,1.5-1.7,2.3-.8,1.1-1.6,2.2-2.4,3.3-.6,.9-1.2,1.7-1.8,2.6-.2,0-.4,0-.6-.1-.4,0-.7-.1-1-.2-.4,0-1-.1-1.3-.3-.7-.2-1.3-.4-2.1-.3,0,0-.2,.2-.3,.4-.7,.8-1.5,1.6-2.2,2.3q-.3,.4,0,.7c.4,.3,.8,.7,.9,1.2,0,.1,.1,.3,.2,.4-.1,.1-.3,.2-.4,.3v.4c.1,0,.3,.1,.5,.3-.1,.1-.2,.2-.3,.3-.1,0-.3,.2-.4,.3-.2,.2-.4,.5-.6,.7-.2,.3-.5,.7-.7,1-.3,.5-.6,1-.9,1.5-.1,.2-.3,.4-.7,.3v-.4c0-.5,0-.6-.6-.6,0,0-.1,.2-.1,.3,0,.4-.1,.7-.4,1v.2c0,.7-.2,1-1,1.4-.4,.1-.7,.1-1.1,.4-.6,.3-1.1,0-1.1-.7v-4.4c0-.6,0-1.2,.1-1.8-.2-.3-.6-.3-1-.3s-.7,.3-.4,.7c.3,.5,.4,1,0,1.4,.3,.4,.3,.8,.2,1.2,0,.4,.1,1-.2,1.3h-.1c-.5-.7-1.1-1.5-1.6-2.3-.4-.5-.7-1-1-1.5-.4-.5-.7-1-1.1-1.6-.3-.5-.4-1-.7-1.5-.1-.3-.3-.7-.1-1v-.3c0-.3,0-.6-.1-.9,0-.1,0-.2-.1-.4h-.1c0,.1-.1,.2-.1,.4,0,.4,0,.7-.3,1,0,.3,.1,.5,.1,.7,0,.4-.1,.7-.2,1-.2,.2-.5,.4-.7,.6-.1,.3,0,.6,.3,.7v.2c-.5,1.5-1.1,2.9-1.6,4.4-.2,.6-.4,1.2-.7,1.7-.1,.4-.3,.5-.7,.6-.7,.2-1.4,.4-2.1,.7-.4,.1-.8,.2-1.2,0-.1,.1-.3,.3-.4,.4-.2,.2-.2,.3,0,.5s.5,.4,.6,.7c.4,.3,.7-.4,1.1,0-.1,.2-.3,.4-.4,.6-.4,.9-.7,1.8-.7,2.7s0,.6-.2,.9v.4c0,.2,.2,.4,.3,.7,0,.1,.1,.3,.1,.4v9.7c-.5,.3-1,.6-1.5,.8-.2,0-.5,.2-.7,.3v1.8H.4c0,.2,0,.4-.1,.4,0,0-.1,0-.1,.1v1.8c.4-.7,.9-1.2,1.5-1.8h.2c.1,.2,0,.4-.1,.6-.6,.5-.9,1.2-1.2,1.8-.1,.2-.2,.3-.4,.3v1.2c0,1.7,0,3.4-.1,5.1,1.6-.1,3.2-.1,4.8,0-.2,.4-.4,.6-.8,.4H.1v1.1H2.7c.7,0,1.3,0,2,.1h.7c.1-.5,.5-.7,1-.6,.8,0,1.7,0,2.5,.1,.4,0,.7,.1,1.1,.1h.3c.4-.1,.8,0,1.2,0,.7,0,1.3,.1,2,.2h.1c1,0,1.9,0,2.9,.1,.7,0,1.3,.1,2,.2h.4c.7,0,1.5,.1,2.3,.2h.4c.9,0,1.8,0,2.6,.2h5.1c.1,0,.3,0,.6,.1-.2,.2-.4,.4-.5,.7,.1,0,.2,.1,.3,.1,.2-.1,.4,0,.6,.1,.2,.2,.4,.1,.7,0-.2-.2-.4-.4-.7-.6,.2-.2,.5-.2,.7-.2h1.4c.6,0,.7,.3,.5,.8v.2h0c.27,0,.43-.1,.5-.3,0-.6,.2-.7,.7-.7s.7,0,1,.4c0,0,.2,0,.3,.1,.1-.3,.4-.5,.7-.4h2c1,0,2,0,2.9,.1,1.2,.1,2.3,.2,3.6,.2s1.7,.1,2.6,.2h.8c1,0,2,0,3,.1,.5,0,1,.1,1.6,.2h6.8c.4-.1,.8,0,1.2,0h1c1.1,0,2.3,0,3.4,.1,1.2,.1,2.5,.1,3.8,.2,1,0,2,0,3,.1v-.7c-.1-.6,0-1.1,.5-1.4,.2,.1,.3,.4,.3,.6v.7c0,.5,.4,.8,.9,.7h.2c.5,.1,1.1,0,1.6,0h1.9c.1,0,.4,0,.5-.3,0,0-.2-.1-.3-.1h-.8c-.7,0-1.4,0-2.2-.1v-.4h2.7c.7,.2,1.4-.2,2.1,0h5.6c.9,0,1.8-.1,2.7-.2h.2c.5,.1,1,0,1.5,0,.3,0,.7,0,.7-.3h3.1c.1,.1,.2,.2,.3,.4,.1-.1,.3-.2,.4-.4,.3,.6,.3,.7-.1,1.2,0-.3-.1-.5-.2-.7-.4,0-.4,.6-.7,.8,.3,.3,.6,.4,.9,.3,.6-.1,1,0,1.4,0,0,.3,0,.4-.3,.4h-.7c-.6,0-1.1,0-1.6,.2-.3,.1-.6,0-.8,0-.4-.2-.7-.1-1-.1s-.3,0-.4,.2c-.3,.4-.7,.4-1.1,.4-.1-.4,.2-.3,.4-.4,0-.3,0-.4-.4-.4h-2.6c-.5-.2-1-.1-1.5,0s-1,0-1.4,0h-1.4c-.4,0-.9,.2-1.2,.4-.1,0-.3,.1-.5,.3,.7,.7,1.5,.4,2.3,.6v-.7c.2,0,.4,0,.5-.1,.4,0,.7,0,1.1-.2h.2c.7,.3,1.3,.2,2.1,.4h1.4c.2,0,.4,0,.4,.4s0,.5-.3,.6c-.2,0-.4,.1-.7,.1-.33,0-.53,.2-.6,.6h-.5c-.3-.3-.6-.1-1,0-.3-.5-.8-.5-1.3-.4,0,.2,.2,.4,.4,.4s.3,.2,0,.4c-.1,.2-.3,.4-.4,.6-.3,.3-.7,.3-1,0-.2-.5-.7-.4-1.1-.4v.5c-.4,0-.7,.1-1.2,.1h0c-.1,0-.3-.2-.4-.4,.1-.2,.2-.1,.4,0,.4,.1,.5,0,.6-.4-.5,0-1,0-1.5,.2,0,.4,.7,.5,.5,1-.4,0-.7,0-.8-.3,0-.2-.3-.3-.5-.3s-.4-.1-.7-.2c-.3,0-.4,0-.4,.4s.4,1,.9,1c.7,0,1.4,0,2.1,.2h.3c0-.3-.5-.4-.2-.8,.1,0,.3,.2,.4,.3,.2,.1,.4,.3,.7,.1h.6c0,.1,.1,.3,.2,.4,.5-.6,1-.6,1.6-.2,.2,.1,.4,0,.4-.1s0-.3,.1-.4c1,0,1.8,.2,2.9,0v-.5c.3-.1,.4,.1,.7,.3,.2,0,.5-.2,.7-.4h.1v-.6l.9,1.3Zm39.8-10.5c-.2-.4-.1-.5,0-.7,.1,0,.3,0,.4,.1,0,.2,0,.4-.4,.5h0v.1Zm.5-2.2c0,.4-.1,.4-.7,.4,0-.4,.2-.4,.7-.4Zm-48.6-15.9c.4-.1,.6,.1,.8,.4-.3,.1-.5,.3-.8,.4-.3-.3-.1-.5,0-.8h0Zm-2.2-.3c.5-.2,1.1-.1,1.2-.8,.1,.4,.2,.8,0,1.1v.2c0,.2,.1,.5,0,.7-.2,.1-.5,.2-.8,.2s-.5-.2-.5-.5v-.9h.1Zm3.4-14c-.3,0-.4-.3-.4-.6,.5-.1,.6,0,.4,.6Zm-.6-2.4c.3,.2,.4,.6,.4,1,0,0-.1,0-.3,.1-.4,0-.6,0-.7-.4,0-.2-.1-.4-.3-.6,.4-.3,.7-.4,1-.2h0l-.1,.1Zm-2.5-1.4c.4,.3,.4,.7,.4,1.2-.2,0-.4,.1-.6,.1s-.4,0-.4-.1c-.2-.3-.4-.6-.4-1,.4,0,.7-.1,1-.2Zm-16.9,13.6c-.3-.2-.5-.4-.4-.7,.2,.2,.5,.3,.4,.7Zm.3-1.5c-.2,0-.4,0-.6-.2-.1-.1-.1-.3,0-.5,.1,.3,.6,.3,.5,.7h.1Zm-2.5-.7c0-.4,.2-.6,.7-.7,.8-.1,1.6-.3,2.5-.4,.2,0,.5,0,.8,.2-.2,.4-.3,.6-.4,.8,.1,0,.3,.1,.4,.2-.1,.4-.3,.7-.4,1-.2-.1-.4-.3-.6-.4,.1-.2,.3-.4,.5-.7v-.7c-.1,.1-.3,.2-.4,.3-.3,.4-.4,.4-.9,.3h-1c-.3,.4-.8,.4-1.1,.8,0-.3-.1-.4-.1-.7h0Zm-1.6-7.2c-.3-.4-.3-.6,0-1,.3,.4,.3,.7,0,1Zm-14.3-9.1c.4,0,.4,.4,.4,.7,.1,0,.3,.1,.5,.2v.3h-1c0-.4,.2-.4,.6-.5-.3-.2-.5-.3-.7-.4,.1-.1,.1-.2,.2-.3h0Zm26.6,30.6c-.5,.7-1.1,0-1.6,.1-.1,.1-.3,.4-.4,.5,0,0,.1,.1,.1,.2s-.4,.4-.7,.5h-.7c-.1-.3-.1-.5,0-.9v-2.7c0-.4,0-.9,.1-1.2,0-.3,.2-.6,0-.9,0,0,.1-.3,.3-.4s.6,0,.7,.2c0,.3,.1,.7,0,.9-.2,.7,0,1.2,.2,1.8,0,.2,.1,.4,.1,.7v.7c.6,.2,1.2,0,1.8,.4h0l.1,.1Zm.3,2.8c-.2-.1-.4-.4-.5-.4s-.4,.2-.6,.3h-.4c.5-.1,.5-.9,1.2-.9,.1,.3,.4,.5,.3,1h0Zm-2.7-14.7c-.6-.2-.5-.9-.9-1.3,.2-.1,.3-.2,.4-.4,.8,.4,.3,1.1,.4,1.7h.1Zm2.6,7s0,.1-.1,.3c-.4-.4-.4-.9-.4-1.3s.1-.2,.1-.2c0,0,.2,0,.3,.1,.2,.4,.1,.7,0,1.2h0l.1-.1Zm1.6-.2c0,.2-.1,.4-.1,.7v.7h-.4c-.1-.2,0-.4,.2-.6-.1,0-.2-.1-.4-.3v-1c0-.1,.1-.3,.2-.3s.3,0,.3,.2,.1,.4,0,.6h.2Zm-.5-8.4c0-.4,0-.5,.5-.7,.3,0,.6,0,.7,.4v3.3h-.6c0-.4,.1-.6,.1-.9s-.1-.1-.2-.3c0,0,0-.2,.2-.4-.5-.1-.6-.5-.6-1v-.4h-.1Zm.7,6.4c-.3,0-.4,0-.5-.3v-.4h.4c.2,.1,.3,.4,0,.7h.1Zm.2,3.6c.1-.3,.3-.4,.1-.7-.1-.2,0-.5,.4-.7-.4-.1-.5-.3-.4-.6,.33,0,.47,.13,.4,.4v1.7c-.3,0-.4-.1-.7-.2h0l.2,.1Zm1.1-10.9c0,.1,.1,.3,.1,.4v3c0,.4-.1,.5-.7,.5v-3.3c0-.3,0-.6,.5-.7h0l.1,.1Zm-.4-1.8c0-.2,.1-.3,.2-.4,0,0,.1-.1,.3,0,0,0,.1,.1,.1,.2s0,.2-.1,.3h-.5v-.1Zm.8,12.3h-.3c0-.4,0-.8-.1-1.2,.2,0,.4-.1,.4,0,.1,.3,.1,.8,0,1.1h0v.1Zm.8-2.9h-.4c-.2-.5-.2-.7,.1-.9,.2,0,.5,0,.6,.1,0,.1,0,.5-.3,.6h0v.2Zm-.1-10.6c-.2,0-.4-.1-.4-.5,.3,0,.6-.2,.8-.3,.5,.5,1,.9,1.4,1.3-.4,.1-.7,0-1-.1-.3,0-.5-.3-.8-.4h0Zm2.6,9.8c.1,0,.4,0,.5-.1,.3,.4,.2,.7,0,1.1-.3,.1-.6,.2-.9,0,.1-.3,0-.7,.3-1h.1Zm.4,3.9c-.5-.4-.7-.7-.6-1.1,0-.2,.2-.3,.6-.3,.2,.4,.2,1,0,1.5h0v-.1Zm-.5,0c.1,.2,.4,.4,.4,.7v.4h-.4c-.2,0-.4-.1-.7-.2,0-.8,0-.9,.6-1h0l.1,.1Zm-1.4-2.6c-.3-.3-.3-.6-.1-1,.1-.2,.2-.3,.7-.3,0,.4,.1,.7,.3,1-.3,.3-.6,.2-.8,.2h0l-.1,.1Zm.8-17.2h-.3c-.1-.4-.2-.7-.4-1.2,.5,.2,.7,.7,.6,1.2h.1Zm-1.6-8.8c.4,.1,.5,.3,.2,.6,0,.1-.2,.2-.4,.4-.2-.4-.2-.5,.1-1h.1Zm-.8,0h-.4c0-.1,0-.3-.2-.4,0-.1-.2-.3-.3-.5,.7,0,1,.2,1,1l-.1-.1Zm-.9-2.7s.2-.1,.4-.3v.7c-.1,0-.4,0-.4-.4h0Zm.8-1.4c-.1,0-.3,.1-.5,.2v-.5c.2,0,.4,.1,.5,.2h0c0,.1,0,0,0,0v.1Zm-.7-.7c-.6,.1-.7-.1-1-.4,.2-.1,.1-.6,.5-.5,.2,0,.4,.2,.7,.4,0,.2-.1,.4-.1,.6l-.1-.1Zm-.7,3.9c-.2,0-.4,.1-.5,0,0-.1-.4-.4,0-.6,.1,.2,.3,.4,.4,.7h0l.1-.1Zm-.2-6.3c0,.4,0,.8,.4,1.1h-.6c0,.3,0,.6-.3,.7-.4-.6-.1-1.7,.5-1.8h0Zm-1.5,3c.3,.2,.2,.4,0,.7-.2,0-.5-.1-.7-.2h0c.2-.3,.4-.4,.7-.5h0Zm-3,1.1c0,.4-.2,.5-.6,.6-.2,0-.4,0-.4-.3,.5-.2,.8-.3,1-.2h0v-.1Zm-2.2,3.6c-.4,0-.6-.2-.9-.5,.3-.1,.6-.3,.8-.4h.4c.2,.1,.4,.2,.7,.4-.1,.3-.3,.4-1,.5Zm2.6-.8c-.5,0-.9,.4-1.5,.3,0-.1,0-.3,.1-.4,.2,0,.5,.2,.7,0,.1-.1,.1-.4,.3-.6,0,0,.3,0,.4-.1,.3,.3,.2,.6,0,1h0v-.2Zm1.3-3.6s.1,.1,.2,.2c0,.1-.2,.3-.3,.4-.3,0-.5,0-.8-.1,.3-.1,.6-.3,.9-.5h0Zm-.2,3.2s-.2,0-.2-.1v-.3c.1,0,.4-.1,.6-.2,.1,0,.4,0,.4,.2-.2,.3-.5,.4-.9,.4h.1Zm1.1-.4c.1-.3,.4-.7,.5-1,0,0,.2,.1,.2,.2v.4c0,.4-.3,.4-.8,.4h.1Zm-.8,9.3c0-.4,0-.7,.1-1.1,0-.1,0-.3,.1-.5v-.3c-.2-.5,0-1,0-1.4s.2-1,.4-1.5c0-.1,.2-.3,.4-.4,.1-.1,.3-.2,.5-.4h.4c.1,0,.4,.1,.5,0,.4,0,.7,.1,1,.4,.4,.4,.9,.7,1.3,1.1h0c.4,.6,.7,1.2,1,1.8v.3c-.2,0-.4,0-.6-.1,.1-.4,.2-.7-.2-.8-.3,.3-.3,.7-.3,1.1,.1,.3,.6,.4,.5,.8-.2,.1-.4,0-.4-.1,0-.4-.3-.4-.6-.5l-.1-.1c-.3-.1-.5-.3-.9-.2-.3,0-.7,0-.7-.4,0-.1-.2-.2-.4-.3,0-.4,.2-.7,.1-1,0-.2-.2-.4-.4-.7h-.1c0,.2,.2,.5,.1,.7,0,.2-.2,.4-.4,.6,.1,.3,.4,.6,.6,.9,.1,.2,.1,.4,0,.6,0,0,0,.2-.1,.4,.1,0,.3,0,.4,.1v.3c-.1,.1-.3,.2-.6,0-.2,0-.4-.1-.7-.1,0-.1-.2-.3-.4-.5h0v1c.3,0,.7,0,.7,.4,.4,0,.4-.2,.5-.4,.4,.1,.6,.5,.8,1,.4,0,.7,.1,1-.1,.1-.1,.4,0,.4,.1,0,.2,.2,.4,0,.7v.5c0,.2,.1,.5,.2,.8,.6,0,1.2-.4,1.9-.4-.3,.4-.5,.8-1,.9-.4,0-.7,.1-1,0h-1s-.1,0-.2,.1c-.1,.2-.3,.1-.4,0,0-.1,.1-.4,.2-.5h1.2s.2-.1,0-.4c0-.1-.2-.3-.4-.2-.4,.1-.7,0-1-.1,0-.3,0-.4,.4-.4s.5,0,.7-.1c-.2-.3-.5-.3-.8-.3-.5,0-1,0-1.5-.2v-.6h-.2c0,.1-.2,.4-.2,.6s0,.3,.3,.4c.3,.1,.7,.4,.9,.6,.1,.1,.1,.4,.2,.5-.5,.2-.6,.2-1.1-.1-.1-.2,.3-.4,0-.6-.1,0-.4,0-.5-.1-.3,0-.7,0-.7-.6,0-.1,.2-.3,.4-.5-.4-.2-.4-.6-.3-1v.3Zm5,2.4c-.1,0-.3-.1-.5-.2,0-.2,0-.4,.1-.4s.3,0,.4,.2,.3,.4,0,.5h0v-.1Zm-2.8,1.4c-.2,.3-.4,.5-.8,.4,0-.3,.2-.4,.4-.6,0,0,.2,0,.4,.1h0v.1Zm-2,3.1c.8-.6,1.6-1.2,2.4-1.8,.2-.1,.4-.3,.7-.2,.2,.4,.4,1,.5,1.4,0,.2,0,.4-.2,.4-.7,.1-1.5,.3-2.2,.4-.3,0-.6,.1-.9,.1h-.6c0-.2,.1-.4,.2-.4h0l.1,.1Zm-.5,1.3c.4,0,.8-.1,1.2-.2,.7-.1,1.3-.2,2.1-.4v.3c-1.2,.4-2.3,.4-3.5,.7,0-.3,.1-.4,.3-.4h-.1Zm-.9,2.3c.33,0,.47,.13,.4,.4v1.1c0,.1,0,.2,.1,.4h.1c0-.1,0-.3,.1-.4v-1.2c0-.2,.13-.37,.4-.5,.2,.1,.2,.3,.2,.5v1.2c0,.1,0,.3,.1,.5,.1-.1,.2-.2,.2-.3v-1.5c0-.4,0-.5,.5-.6,.3,.3,.1,.7,.1,1v1.9c-1-.2-1.8-.4-2.6-.7,0-.6,0-1.5,.2-1.9h-.1l.3,.1Zm-.1-2.2v.4c-.6,.1-1.2,.4-1.9,.2,.6-.4,1.3-.3,1.9-.7h0v.1Zm-1.4,19.1c0,.3,.1,.5,.2,.8,0,.2,.2,.4,.4,.7h.4c.3,.5,.3,.6-.2,1.1,0-.1-.2-.2-.2-.3,0-.4-.2-.5-.4-.7,0,0-.1,0-.1-.1,0-.4-.4-.8-.7-1.1,.2-.3,.4-.4,.7-.3h0l-.1-.1Zm-.4,2.9c.3-.1,.4,0,.7,.1,.2,.1,.4,.4,.7,.4s.3,.2,.2,.4c-.3,.1-.6,.3-.9,.1h-.9c-.3-.5,.2-.8,.1-1.2h0l.1,.2Zm.3,2.1c.2,0,.5,0,.7,.2,.3,.1,.5,.2,.7,0h.2c.1,.4-.2,.4-.4,.5h-.7c-.4,0-.8,0-1.2-.2,0-.3,.3-.5,.7-.5h0Zm-3.5-6.6v-.4h.5v.5h-.5v-.1Zm.8,3.2c-.3,.2-.4,.6-.9,.6,0-.2,0-.4,.1-.7,.2,0,.4-.2,.7,0h0l.1,.1Zm-.4-1.6q0,.4-.5,.5c-.3,0-.4-.1-.4-.4,.4-.4,.5-.4,1,0h0l-.1-.1Zm-.8,5h.3c.2,0,.5,.1,.7,.1s.4-.1,.7-.3c0,0,.1,.2,.2,.3-.2,.2-.4,.3-.7,.1h-.4c-.2,.2-.5,.1-.7,0h-.7c-.3,0-.5,0-.6-.4,.3-.2,.5-.3,.8,0h.4v.2Zm1.7-3.8c.2-.7,.4-1,1-.7-.4,.2-.6,.5-1,.7Zm.8-2.5c0-.2,0-.4,.1-.4s.3,.1,.3,.3-.2,.2-.4,.2h0v-.1Zm.5-5.6c-.4,0-.7,0-1.1-.1v-1.1c0-.5,0-.7,.2-.8,.4,0,.7,.1,.9,.5h0c0,.3-.1,.4-.2,.5,.3,.2,.3,.5,.1,1h.1Zm-1.1-6.7c.3,0,.5,0,.7,.2-.1,.2-.3,.2-.5,.1-.2,0-.3-.1-.2-.4h0v.1Zm.1,2.4h.8c.1,.3,.3,.5,0,.7h-.7c.2,.1,.3,.2,.4,.3,.3,.1,.4,.4,.3,.5,0,.2-.2,.3-.6,.2-.4-.1-.5-.1-.4-.7v-.4c0-.3,0-.6,.2-.9h0v.3Zm-.3,8.2h.7c.3,0,.4,.1,.3,.5-.8,0-.9,.2-.7,.8,0,0-.2,0-.3,.1v-.1c0-.5-.3-1,0-1.5h0v.2Zm-1.3-8.6c.2,0,.4,0,.7,.1v.7c-.5,.1-.7-.3-.9-.4-.1,0,0-.4,.2-.4h0Zm.7,1.3c0,.4-.1,.6-.8,.5-.1-.3,.2-.3,.3-.4,.1-.2,.3-.2,.5,0h0v-.1Zm-.9,1c.3,0,.6,.1,.8,.2,0,.2,.1,.4-.1,.5h-.7s-.1-.1-.1-.2,0-.4,.1-.6h0v.1Zm.1,1.2c.5,.1,.8,.4,.7,.7-.4,.3-.7,0-1,0,0-.3,0-.5,.2-.7h.1Zm.4,5s.2,.1,.2,.2,0,.2-.1,.3c-.3,.2-.4,0-.7,0,.1-.4,.4-.4,.7-.4h0l-.1-.1Zm-2.3-4.4c.1-.4,.4-.7,.2-1.2,0-.1,.2-.4,.4-.3,0,0,.2,0,.3,.1,.3,.4,.1,.7,0,1,0,0,.1,.1,.2,.2,0,0,.1,.2,.1,.4s-.1,.2-.3,.2c-.4,0-.5,.1-.7,.4-.3-.1-.2-.4-.2-.5v-.3Zm-.2,2.2h.4v-.9c.3,0,.6,0,.9-.1,.3,.4,.3,.7,0,1.1-.2,0-.4-.1-.5-.2,0,.2,0,.4,.1,.7,0,0,.1,.2,.1,.3,0,.2,.2,.4,.3,.7-.3,.4-.4,0-.7-.1-.1,0-.4,.1-.6,.2v-.7c-.1,0-.3-.1-.4-.2-.1-.2,0-.5,0-.7h.1l.3-.1Zm-.2,2.3c-.2,0-.4,0-.6,.1v-.4c.3-.1,.5-.2,.7-.4h.4c.3,.1,.5,.2,.7,.3,.3,0,.4,.2,.4,.6v1c-.7,.4-1.5-.1-2.3,0v-.7h.5c.2-.3,.6-.1,.8-.1,0-.4-.2-.6-.7-.5h0l.1,.1Zm-.4-1.8v.8s-.1,0-.2,.1c0-.5,0-.7,.3-1h0l-.1,.1Zm-.3,4.2c.3-.1,.7,0,1.1,0,.5,0,1.1-.1,1.5,.4-.1,.1-.2,.3-.4,.4h-.5v.4c.2,0,.4,.2,.7,.3-.1,.4,0,.7,0,1.2s0,.6-.1,1c0,.1,.1,.4,.2,.7h-.3c-.47,0-.7-.23-.7-.7,0-.6,0-1.1-.4-1.7h-.5c-.4,0-.6-.1-.6-.5v-1.6h0v.1Zm-.5,8.7v.7h-.1v-.5c-.2-.3-.8-.4-.4-1.1,.5-.2,.7-.2,1.1,0,0,.4-.5,.1-.6,.4,0,.1,.1,.3,.2,.4h-.1l-.1,.1Zm-.6-4.6v-.2c.4,0,.7,.2,1.1,.3,0-.2,.1-.4,.2-.5,.2,.2,.4,.7,.2,.9-.2,.4-.5,.3-.8,.1-.2-.2-.5-.4-.8-.6h.1Zm1.1,2.3v-.8c0-.1,.1-.3,.3-.3s.4,0,.4,.2,.1,.4,.2,.7v1.2c-.2-.2-.4-.6-.4-1.3-.1,0-.3,.2-.5,.4v-.1Zm-1-3.7s-.1-.2-.2-.3c-.1-.4-.2-.8,0-1.3v-2.4c.4,0,.4,.1,.4,.4v3c0,.2,0,.4-.3,.6h.1Zm-.1-7.7c.3,0,.3,.2,.4,.4,0,.2,0,.3-.3,.4-.3-.3-.2-.5,0-.7h0l-.1-.1Zm0,1.2c0,.1,.1,.2,.1,.3-.1,.2,0,.4,.1,.5s.3,.4,.1,.7c0,.1-.1,.4-.2,.6-.6-.7-.4-1.3,0-2.1h-.1Zm-1.3,9.5c-.1-.2-.1-.6,0-1,0,.4,.3,.7,0,1Zm.1-2.9c-.1,.2-.6,.2-.9,0-.3-.1-.2-.3-.1-.5,.3,0,.7,0,.9-.1,.3,.2,.2,.4,0,.6h.1Zm-3.4,0v-.7h.4c0,.1,.1,.3,.2,.5,.2-.2,.4-.5,.7-.4,0,0,.1,.2,.3,.4-.6,.3-1,0-1.5,.1h0l-.1,.1Zm1.3,4.6c-.4,0-.4-.1-.4-.4,0-.2,0-.4,.2-.7,.1,.4,.3,.7,.1,1.1h.1Zm-3.8-1.8c-.4-.4-.4-.9,0-1.2,.4,.5,.4,1,0,1.2Zm.2,1.8c-.4,0-.4-.1-.3-1.1,.4,.1,.4,.4,.3,1.1Zm-.2-4.9c-.2-.3-.3-.6-.3-.8,.6,.1,1.2,.3,1.8,.4,0,.3-.1,.4-.4,.4h-1.1Zm1.4-3.4h-1.2c-.2,0-.4,0-.4-.3v-.4s.2-.1,.3-.1c.5,.2,1,.2,1.5,.7,0,0-.1,.1-.2,.1h0Zm.2,1c-.1,.4-.4,.4-1.1,0,0-.4,.1-.5,.5-.4,.2,0,.4,.2,.6,.3h0v.1Zm-.5,5.5c0-.2,0-.4,.3-.4,0,0,.2,.1,.2,.2,0,.2-.1,.4-.4,.2h-.1Zm.3,1.8h-.4v-.5c.4,0,.4,.2,.4,.5Zm-.5,.9c.3,0,.7,.2,.7,.4s-.4,.4-.7,.2-.2-.2-.4-.4c.1-.1,.3-.2,.4-.2h0Zm.6-6.9h-.6c0-.2-.1-.4,0-.5,.1,0,.2-.1,.4,0s.1,.3,0,.5h.2Zm0-3.8c-.5,0-1-.1-1.5-.2,.4-.7,.9-.8,1.5-.4,.2,.1,.3,.3,0,.7v-.1Zm-.7-10.5c.4,0,.7-.3,1.2,0-.7,.4-1.3,.4-2.1,.4,0-.1-.1-.3-.1-.4s0-.3,.1-.4c0,0,.2,0,.4,.1,0,.2,.3,.1,.5,.1h0v.2Zm.2-2.3c.2,.5,.2,1,.1,1.4,0,.4-.3,.5-.6,.5-.3-.7,0-1.3,.5-1.9h0Zm-.9,9.9c0,.3-.2,.5-.7,.7,0-.1-.1-.3,0-.4,0-.2,.4-.4,.8-.3h-.1Zm1.4,0c-.3,.2-.4,.3-.7,0,0,0-.3-.1-.4-.2,.2-.3,.6-.4,.9-.4s.7-.1,.9-.4c.1-.2,.6-.2,1-.1,0,.1-.1,.3-.2,.4-.4,.3-1,.6-1.4,.9h0l-.1-.2Zm1.3,2.4h.6c.6,0,.7,.3,.4,.9-.6-.1-1.3,.3-1.7-.5,0-.4,.3-.4,.6-.4h.1Zm-.4-1.3c.4,0,.57,.2,.5,.6-.1,.2-.4,.1-.5,0s-.2-.4,0-.6Zm1.1,.2c.1,0,.2,0,.4-.1,.2,.3,.3,.5,0,.8-.33,0-.47-.23-.4-.7h0Zm-1.1,4.1c0-.1,.2-.2,.3-.3,.2,0,.4,.1,.6,.2,0,0,.2,.3,.1,.3,0,.1-.2,.2-.4,.3-.1,0-.3,0-.4-.1-.1,0-.3-.2-.2-.4h0Zm-.1-1v-.4c.1-.1,.4,0,.6,0v.4c-.2,0-.4,.1-.6-.1h0v.1Zm.2,1.8c.4,0,.7,0,1,.2-.4,.5-.6,.6-1.2,.3,0-.2,0-.4,.1-.5h.1Zm.2,3.6c0,.4,0,.7,.1,1.1h-.4c-.1-.8,0-1,.3-1.2h0v.1Zm1.4-5.2c-.3,0-.5,.1-.7-.3,.1,0,.2-.2,.4-.1,.2,0,.1,.2,.1,.4h.2Zm-.4-3.8c-.3-.2-.7-.3-1-.1h-.4c0-.4,.4-.6,.7-.5h1c.1,.4,0,.6-.3,.7h0v-.1Zm.4-3.7c.2-.2,.4-.3,.7,0,.2,.1,.5,.2,.4,.5-.6,.4-.8,.2-1.2-.4l.1-.1Zm.7,12.8c.3,.4,.3,.6,0,1-.3-.4-.3-.7,0-1Zm.1-2.8c0-.2-.2-.5,0-.7,.4,0,.9-.1,1.1,.5-.4,0-.8,.1-1.2,.3h0l.1-.1Zm1.1-2.3c-.4-.1-.7,.2-1,0,0-.2,.3-.4,.5-.4s.4,.2,.5,.5v-.1Zm-1.1-9.6c.1,.4,.5,.6,.4,1.1-.4,0-.7,0-1.1-.1,0-.7,.2-1,.7-1h0Zm-1.3-1.5c-.1-.1-.2-.4,0-.7,.3,.4,.5,.7,.7,1-.4,.1-.6-.1-.7-.3Zm-.5-8.3h.4c.2,.3,.4,.6,0,.9-.7-.1-.7-.4-.5-.9h.1Zm-.4,6c.5,.1,.4,.7,.8,1-.3,0-.4,.1-.5,0-.2-.3-.4-.6-.3-1h0Zm.6,2.6v1.8c0,.4-.2,.7,0,1v.2c0,.2-.1,.4,0,.7,0,.1,0,.4-.2,.3,0,0-.3-.1-.3-.2,0-.4-.2-.9,0-1.3h0c-.2-.5,0-1-.1-1.4-.1-.5,0-1.1,.7-1.1h-.1Zm-1.5-8.8c0-.3,.1-.4,.4-.2,.4,.2,.4,.4,.2,1-.2,0-.4,0-.7-.1v-.6h0l.1-.1Zm-.3,3.9c.4,.1,.7,.9,.7,1.4-.4,.3-.4,.4-.2,.8v.4h0c-.4,.2-.6,.1-.6-.3v-2.3h.1Zm-.2-1.3s.2,.2,.1,.3c0,0-.1,.2-.3,.2s-.7-.3-.6-.4c0-.1,0-.2,.1-.4,.3,.1,.4,.2,.6,.3h.1Zm-1-3.3c.4,0,.63,.3,.7,.9-.3,0-.5,.1-.7,0-.2-.2-.1-.5,0-.8h0v-.1Zm-1.1-.5c.3,0,.6,.1,.6,.4v.7c-.6,0-.7-.1-.7-.6s0-.4,.2-.4h0l-.1-.1Zm-4,.9c1.7,.4,3.4,1,5.1,1.4,0,0,.1,0,.2,.1h0c-.4,.1-.8,.1-1.2,0-.7-.1-1.3-.4-2-.6-.6-.1-1.2-.3-1.8-.4-.4,0-.4-.1-.4-.4h.2l-.1-.1Zm3,17.6v.2c-.1,.1-.2,.3-.4,.4,0-.1-.1-.2-.3-.4-.3,.3-.7,.4-.8,.9l-.9,.4h-.1c.1-.5,.6-.9,.9-1.3,0,0,.2-.2,.4-.2,.4,0,.6-.2,.6-.7s.6-.7,1-.5c.2,0,.3,.2,.2,.4,0,.2-.2,.3-.4,.2-.1,0-.3,0-.4,.1-.1,.1,0,.3,.1,.4h0l.1,.1Zm-2.6,.1c-.2-.1-.4-.2-.6-.4v-.4q0-.2,.1-.3c.2-.1,.4-.3,.8-.5,0,.6-.1,1-.2,1.5h0l-.1,.1Zm1.6-12.7c-.3-.1-.4-.4-.2-.7,.2,0,.4,0,.7,.1,.1,.4-.1,.5-.4,.6h-.1Zm1.4,10c-.1,.4-.4,.6-.7,.7-.2,0-.4,0-.6-.2,.4-.3,.8-.4,1.3-.5h0Zm-1.6,1.1c0,.1,.1,.2,.1,.3,0,.2-.2,.4-.4,.3,0-.3,0-.5,.3-.7h0v.1Zm1.7-4.1c-.3-.3-.1-.5,0-.8,.1,.3,.1,.6,0,.8Zm-5.2-2.8h.3c.2,.2,0,.4-.1,.7-.3-.2-.2-.4-.2-.7h0Zm-.6,13c-.2-.1-.4-.1-.7,0v.6c.1,0,.3,.2,.5,.3-.4,.5-1,0-1.4,.4-.2-.8,0-1.5,.4-2,0,.1,.1,.3,.2,.4,0-.1,.1-.3,.2-.4h.8c.3,0,.4,.2,.4,.6h-.7l.3,.1Zm.6,5.1c-.3,0-.5,0-.5-.3s.1-.3,.3-.3,.2,.1,.2,.6h0Zm-.3-6.3h-1c0-.5,.2-1,.4-1.5,.4,.1,.9,.3,1.3,.4,.3,.4,.2,1,0,1.6-.3-.2-.5-.4-.8-.5h.1Zm.5-2.2c-.2,.2-.5,.4-.7,.5-.1-.4,0-.4,.5-.8,0,0,0,.1,.2,.2h0v.1Zm-.3-1.4v.4c-.7,.4-.9,1.2-1.3,1.8s-.4,.6-.4,1c0,0,0,.1-.1,.2-.4-.3-.2-.7-.2-1s0-.7,.5-.8c-.1-.5,.2-.8,.4-1.1,.2-.2,.5-.4,.9-.5,0,0,.2,0,.3,.1h0l-.1-.1Zm-1.5-20.3c.4,0,.4,.3,.5,.5,0,.2,0,.4,.1,.6v.6c-.3,0-.4-.1-.5-.4-.1-.4-.3-.9,0-1.3h-.1Zm.6,4.2c-.4,0-.7,0-.8-.2,.2-.2,.4-.3,.8-.2v.4Zm-.6-1.5v.4h-.1c-.1,0-.4,0-.4,.1v.4c0,.2,0,.3-.4,.4-.1-.4-.3-1-.1-1.5,.4,0,.7,0,1.1,.1h0l-.1,.1Zm-1.1-2.6c-.1-.5,0-1.1,0-1.7s0-.3,.1-.4c.4,.4,.5,.5,.3,.9-.1,.3,0,.5,0,.7,.1,.4,.1,.7-.2,1,.4,.4,0,.9,0,1.3h-.4v-.5c0-.4,.2-.8,0-1.2h.1l.1-.1Zm.1,4.2c.4,.3,.7,.5,1.1,.4,.2,0,.4,0,.4,.4h-.7c-.2,0-.4-.1-.5,0-.1,.2,0,.4,.1,.7,.2,0,.4,0,.6-.1,.2,0,.4,0,.4,.1v.4c-.6,.2-1-.4-1.5-.3-.2-.5-.2-1,0-1.6h.1Zm-.1,4.8c.2,.3,.3,.6,0,1-.3-.4-.3-.5,0-1Zm-.6-9.6v.3c-.1,.1-.7-.2-.7-.4,.3,0,.6,0,.8,.1h-.1Zm-2,.8c0-.3,.2-.5,0-.8h0c.2-.9,0-1.7,0-2.4,0-.2,0-.4,.1-.7,.3,.2,.4,.4,.4,.7-.1,.5-.1,.7,0,1.2,0,.1-.1,.2-.3,.4,.1,.2,.3,.4,.4,.6,0,.3-.2,.4-.4,.6,.4,.2,.7,.5,1.1,.3,.2,0,.4,0,.6,.2s.1,.4-.1,.6c-.3,0-.5-.2-.8-.1,0,0-.3,0-.5-.2-.1,.2-.2,.4-.4,.6-.3-.3-.3-.7-.1-1h0Zm1.1,4.4c0-.1,.2-.4,.5-.3,.2,0,.3,.3,.3,.5,0,.53-.23,.77-.7,.7-.5,0-.6-.1-.6-.6,.3,0,.4,0,.6-.3h-.1Zm-1-.2c-.2,0-.1-.3,0-.7,.1,.1,.5,.1,.4,.5,0,.2-.3,.2-.4,.1v.1Zm1.8-.8c-.6,0-.7,0-.7-.6,.2,0,.4-.1,.6-.2h0c-.2,0-.5-.2-.7-.2s-.3,0-.3,.3v.5c-.2,0-.4,.1-.6,.1-.2-.4-.2-.6,0-.7,.1,0,.3-.1,.2-.3,0-.2-.1-.2-.4-.2h-.1v-.4h.1c.4,.2,.8,.2,1.2,.3,.1,0,.3,0,.5,.1-.1,.5,.2,1,0,1.4h0l.2-.1Zm-1.9,4.9c.2,.2,.3,.4,0,.6h-.2c-.1-.2,0-.4,.1-.6h.1Zm.2,11.2s0,.2,.1,.3c0,0,.2,.2,.4,.2s.2-.2,.2-.4,0-.2,.1-.4c.3,0,.6,0,.8,.1,.3,.2,.5,.5,.8,.8-.2,.2-.4,.4-.7,.7h-.7c0,.2-.2,.5-.3,.7-.4-.1-.3-.9-.9-.9v.4c-.5,.2-.6,.2-1-.5-1-.1-1.2-.4-.6-1.2,.1,.1,.3,.2,.4,.4,.1,.1,.2,.3,.4,.4,.4-.4,0-.7,0-1s-.4-.4-.7-.4v.3s0,.1-.1,.2c-.2,0-.3-.1-.3-.2s0-.3,.2-.4c.1-.1,.4-.1,.4-.5-.1,0-.4-.1-.5-.1-.4,.1-.7,0-.9-.4l-.1-.1h-.2c-.4,0-.7-.1-.7-.5s0-.3,.3-.3,.4,0,.6,.1c.7,.3,1.5,.7,2.1,1,.1,0,.3,.2,.4,.4,.2,.4,.4,.8,.6,1.2h0l-.1,.1Zm.9,3.9v-.4c0-.2,.4-.2,.7,0-.2,.1-.1,.5-.6,.5h0l-.1-.1Zm.6,1.3c0,.1,0,.3-.1,.5-.1-.1-.3-.3-.5-.4,.2,0,.4-.1,.5-.2h.1v.1Zm-1.6-2.7c-.2,0-.3,.2-.4,.2s-.1-.1-.2-.2c0,0,.1-.2,.3-.2s.2,.1,.4,.2h-.1Zm-1.3,1.3h-.2c-.1-.2,0-.4,.1-.6,.2,.1,.3,.4,0,.6h.1Zm-1.2-1c0-.2,0-.4,.1-.7,.3,.4,.3,.6-.1,.7Zm.3,1.9c-.2-.27-.2-.5,0-.7,.3,.2,.2,.4,0,.7Zm-.3-2.9c-.2,0-.5-.2-.8-.4,.2-.4,.4-.7,.5-1,.4,.1,.5,.7,.3,1.2h0v.2Zm0,3.4h.4c.3,.3,.1,.6,0,1-.2,0-.5-.1-.7-.1,0-.4,0-.6,.4-.7h0l-.1-.2Zm-.4-20.6v1.7h-.3c-.3-.2,0-.4,0-.6-.3-.8-.2-1.2,.3-1.2h0v.1Zm-.4-2.9h.4c0,.3,0,.6,.1,.9h-.4v-.9h-.1Zm.8,6.9c0,.4-.4,.4-.7,.7-.1-.2-.3-.4-.4-.6,.4-.3,.7-.2,1.1,0h0v-.1Zm-.6,5.9c-.4,0-.4-.3-.4-.4v-1.7c.5,0,.6,.5,.5,.7,0,.5,.1,1-.2,1.5h0l.1-.1Zm1.7-11.3c-.2,0-.4-.2-.6-.1,0,0-.2,0-.3-.2,0-.1,0-.3,.1-.4,.1,.1,.2,.2,.4,.4,.3,0,.6,0,.7-.2q-.4-.4-1.4-.5v-.4c.7-.1,1.1,.1,1.7,.3v1.2c-.2,.2-.4,.1-.6,0h0v-.1Zm.5,1.8c0,.1,0,.3-.1,.4-.4,0-.7-.1-1-.2-.2,0-.3-.1-.2-.7,.4,0,.8,0,1.2,.1,0,0,.1,.1,.1,.3v.1Zm-.5-6.6c.1,.2,.3,.3,.4,.4-.2,.2-.4,.4-.7,.4,0-.3,.1-.5,.3-.9h0v.1Zm-.1,1.3c.4,.2,.9,.2,1,.7-.2,.2-.4,0-.6,0s-.4,0-.5-.2h-.2c-.1,0-.4-.1-.6-.3,.4-.3,.7-.3,1-.1l-.1-.1Zm-1-4c.4,.2,.2,.4,.2,.7-.3,.4-.6,.8-.9,1.2-.3-.4-.1-.7-.1-1,.2,0,.4-.1,.6-.2,0-.1,.1-.4,.2-.6h0v-.1Zm0-.6h-.5v-.6q.4,0,.5,.6Zm-.3-6.1c.3,.4,.6,.4,1,.2-.07,.27-.3,.4-.7,.4-.6,0-.1,0-.2,.1,0,0-.1,0-.2,.1q-.3-.4,0-.9h0l.1,.1Zm1,2.1c0,.1-.1,.3-.3,.5,.1,.1,.3,.2,.4,.4,.5-.1,.9,0,1.2,.4,.5,0,1,0,1.5,.2,.3,0,.5,.5,.7,.7-.3,.2-.6,.1-.8,0-.7-.3-1.5-.7-2.3-1-.1,0-.3,0-.4-.1-.4,0-.6-.1-.8-.4,.1-.3,.3-.7,.4-1-.3-.2-.5-.4-.4-.7,.4,0,.5,.4,.9,.5,.3,0,.7,0,1-.4h.4c.1,0,.2,.1,.3,.2-.2,.7-.8,.8-1.5,.7h-.3Zm3.7-2.3h.4c.1,0,.3,.2,.5,.3,.1,.4-.4,.9,.2,1.3-.5,0-.7,0-.7-.3s0-.5-.1-.8c0,0-.2-.1-.4-.2,0,0,0-.2,.1-.2h0v-.1Zm-.3,1.4c.1,0,.2,0,.3,.1,0,.4-.1,.6-.4,.5v-.4c-.2,0-.4-.1-.7-.2v-.7c-.1,0-.3,.1-.4,.2h0c0-.2,0-.4,.2-.6,.1,0,.2-.2,.3-.4,0-.1,.1-.3,.4-.3,0,.4,.4,.4,.7,.7,0,.1-.1,.3-.2,.4-.4,.4-.3,.5,.1,.7h-.3Zm-1.4-3.9c0,.1,.2,.3,.4,.5h.4c.1,.3,.2,.4,.3,.7,0,.2,.1,.4,0,.7,0,.2-.1,.3-.4,.2,0,0,0-.1-.1-.2-.2,.3-.5,.2-.8,.2,0,0,0,.1-.1,.2,0,.1-.2,.2-.4,.1s-.2-.3-.1-.4c.1-.2,.2-.7,.6-.7,0,0,.1,0,.2-.1,0-.6-.7-.4-.8-.7,.2-.2,.5-.4,.9-.5h-.1Zm-2.5-4c.7,0,1.1,.4,1,1.1-.4,0-.7,0-1-.1v-1Zm-.2,3.3c.3-.4,.4-.7,.3-1.2l-.4-.4s.1-.2,.2-.3c.4,.2,.7,.1,1.1-.1,.1,.2,.2,.4,.4,.6-.4,.2-.8,.4-.8,.9,.2,.1,.4,0,.6-.1q.4-.3,1,0c-.1,.3-.2,.6-.7,.7-.2,0-.4,.2-.4,.4v.9c0,.3,0,.4,.3,.5,.3,0,.4,.2,.3,.5-.2,.1-.5,.3-.7,.4-.5-.4-.4-1-.1-1.5,0,0-.1-.1-.2-.2-.2,.1-.4,.4-.8,.3-.2-.3-.2-.7,0-1h0l-.1-.4Zm.2,2c.1,0,.3,0,.4,.1-.27,.67-.6,.97-1,.9,.1-.4,.3-.7,.5-1h.1Zm-10.3,6.5c.2,0,.4-.2,.4-.4,0-.1,.1-.2,.3-.3,0,0,.2-.1,.2-.2,.1-.3,.4-.4,.6-.7,.4-.4,.7-.8,1-1.2,.6-.8,1.2-1.7,1.8-2.5,0-.1,.2-.3,.3-.4,.4-.6,.7-1.2,1.2-1.8,.9-1,1.5-2.1,2.3-3.1,0,0,.1-.2,.1-.3,.4-.6,.9-1,1.6-.9,0,.4-.1,.7-.2,1-.1,1-.4,2-.5,2.9,0,.7-.1,1.4-.2,2.1v.4c0,.7-.2,1.2-.2,1.9s-.2,1.1-1,1.3c-.9,.3-1.8,.7-2.6,1-1.5,.5-3,1.1-4.5,1.6-.1,0-.4,0-.5,.1-.1-.3,0-.4,.1-.4h0l-.2-.1Zm8.5,2v3.3s0,.2-.1,.3h0s-.1-.2,0-.4c.1-.3,0-.6,0-.9,0-.4-.2-.7-.3-1-.1-.6-.5-1.1-.9-1.5-.2-.3-.6-.4-.9-.7,0,0-.2-.1-.3-.2,.2-.4,.6-.4,.9-.5,.4-.1,.9-.3,1.2-.4,.1,0,.3-.3,.4-.4,.3,.2,.3,.5,.3,.8,0,.6-.1,1.2,0,1.8h-.2l-.1-.2Zm-.1,14v1.2h0c.1,.9,0,1.6,0,2.3v2.8c-.5,0-1,.1-1.4,.1h-.1c-.3-.2-.4-1.5,0-1.8,0,0,.2,0,.4-.1,.27,0,.4-.17,.4-.5h-1c-.3-.3-.3-.7,0-1h.7v-.2c-.2,0-.4-.1-.7-.2v-.4c.2,0,.5-.1,.8-.2,.3-.4,.3-.9,.2-1.4-.3-.4-.7,0-1,0-.2-.1,0-.4,0-.5,0-.2,0-.4,.1-.7h.3c.5-.3,.7-.5,.6-1v-.5c0-.3,0-.5-.3-.7,.5-.4,.4-1,0-1.4,.2-.1,.5-.3,.4-.6-.2-.4-.4,0-.7,0-.3-.6-.4-1-.1-1.6,.2,0,.5-.1,.8-.1,.1-.3,.4-.5,.1-1-.3,.4-.6,.6-1.1,.4-.2-.4-.1-.8,0-1.2,0-.4,.4-.4,.7-.5,.1,.2,.2,.4,.4,.7,0,0,.1,0,.2-.1,0,0,0-.1,.1-.2s.3-.2,.4-.2c0,0,.1,.1,.2,.3v8.3h-.4Zm-1.1,13.2c.2-.3,.1-.7,.2-1l.1-.1v1.4c-.2,0-.4-.1-.3-.3h0Zm-.2-2.5c-.2-.1-.4-.2-.6-.4,.2-.4,.4-.3,.8-.1,0,.1,0,.3-.1,.5h-.1Zm-.2-1.2c-.1-.4,.4-.6,.4-1h.4c.2,.3-.2,.9-.7,1h-.1Zm-1.2-12.5c0,.2,.2,.4,.4,.7-.27,.07-.47,.03-.6-.1-.1-.2-.2-.4-.4-.7,.2-.4,.7-.7,1.2-.6,0,.3-.2,.2-.4,.3-.3,0-.4,.2-.3,.5h0l.1-.1Zm-2.6-2.3c0-.3,.1-.4,.4-.4,.2,.4,.2,.5,.1,1.7h-.1c-.3,.1-.4,0-.4-.2v-1.1Zm-2.7,24.2c-.7,0-.8-.1-.7-.9,.2,0,.4,0,.7-.1,.2,.4,.4,.7,.1,1.1h0l-.1-.1Zm.1,.9h-.4c0-.3,0-.4,.4-.4v.5h0v-.1Zm-1.7-6c-.2,.4,0,.7,.3,.9,.1,0,.3-.1,.5-.3,0,.3-.1,.6-.2,.8-.2,0-.4,0-.4-.1-.3-.3-.6-.3-.9,0-.6-.3-.7-.4-.4-.8,.3-.5,.6-1,1-1.5,.6-.7,1.1-1.5,1.8-2.2,.4-.4,.9-.8,1.4-1.2,.1-.1,.4-.1,.5-.2,.3,.5,0,.9,0,1.2,0,.1-.2,.4-.4,.4-.5,.3-.7,.8-1,1.2s-.6,1-.9,1.4c0,.1-.1,.2-.2,.3-.4,0-.7-.1-1.1-.1v.2h0Zm0,5.1c-.6,0-.7,0-.6-.6v-.7c.2,0,.4,0,.6-.1,.3,.5,.2,1,0,1.5v-.1Zm0,.9h-.4v-.3s.2-.1,.3-.1c.2,0,.2,.2,.1,.4h0Zm-1.4-1h-.4c0-.3,0-.5-.1-.8,0-.2,0-.4,.3-.5,.1,0,.3,0,.4,.1,0,.2,0,.5,.1,.7,0,.2,0,.4-.3,.4h0v.1Zm.2,.8c0,.2-.1,.4-.4,.3,0-.2,0-.4,.2-.5,0,0,.2,.1,.2,.2h0Zm-1.5-.6c-.1,0-.3,0-.5-.1v-.8c0-.2,.1-.4,.4-.5,.1,0,.4,.2,.4,.5s0,.7-.2,1h0l-.1-.1Zm-.3,1.6c-.2-.3-.3-.6-.1-1,0,0,.2-.1,.3-.2,.3,.5,.2,.7-.2,1.1h0v.1Zm-.3-6.6c0-.3,.1-.6,.4-.7,.4-.1,.7-.5,.9-1,.1-.2,.3-.4,.6-.3,0,.4-.3,.6-.5,.9-.1,.2-.3,.4-.4,.7-.3,.4-.3,.5-.9,.4h-.1Zm3.8-24.7c-.5-.3-.6-.7-.4-1.2,0,.2,.1,.4,.2,.5,0,0,.1,.1,.2,.1s.2,0,.2-.1v-.7c0-.2-.2-.4-.3-.5-.2-.4-.4-.8-1.1-1,.4-.4,.9-.4,1.3-.6v.9c.3,.4,.3,.8,.2,1.2v1c0,.4,0,.7-.1,1.1-.2,0-.5,.1-.8,.2-.2-.4-.1-.5,.1-.7,.1,0,.3-.1,.2-.4h.1l.2,.2Zm1.4,9.8v-2c0-.3,0-.7,.1-1v-1.4c-.1-.4,0-.9,.1-1.3,0-.2,.3-.3,.6-.2v3.9c-.2,3.1,0,6.4,0,9.5,0,.2,0,.4-.1,.6-.2,0-.4,0-.7,.1-.2-.2-.2-.4-.1-.7,.1-.3,.1-.7,0-1s0-.7,0-1.1v-2.3c-.1-.3,0-.5,0-.8,.1-.5,0-.7-.4-1-.1-.3,0-.5,.2-.6,.4-.1,.4-.4,.4-.8h0l-.1,.1Zm-.2-7.6h0c.1-.1,.3-.3,.5-.4v.7c-.2-.1-.4-.2-.5-.3Zm-.3,17.8h0c.4-.3,.6-.4,.8-.4h.5c-.2,.6-.7,.7-1.1,.7-.3,.4-.6,.8-1.2,.7-.6,.4-.8,1-1.5,1.2-.1-.4,0-.6,.1-.8,.4-.3,.7-.6,1.2-.6s.8-.4,1-.9h0l.2,.1Zm-.4-3v1c-.5,0-.9,.1-1.3,.1-.2-.7-.2-1.8,0-2.3,.4,0,.8-.1,1.2-.3,.4,.5,.2,1,.1,1.4h0v.1Zm-1.5,3.1c0,.5-.4,.6-.8,.3,.2-.2,.4-.5,.8-.3Zm-.6-2c0,.6-.5,.7-1.1,.5v-.7s.2-.1,.4-.2v-.7c-.3-.2-.5-.4-.4-.7,0,0,.2,0,.3-.1,.6-.1,.9,.1,.9,.7v1.3h0l-.1-.1Zm-.5,2.5c-.1,.4-.4,.6-.8,.7,0-.4,.1-.6,.8-.7Zm.4,6.3c-.1,0-.3-.4-.4-.6,.1-.2,.4-.2,.7-.1h.7c.1,.1,.1,.4,0,.7-.1,.1-.7,.1-.9,0h-.1Zm4.7-16.5c-.3,0-.4-.1-.3-.4,.1-.4,0-.8,.1-1.2h0c0-.1,.1-.1,.1-.1,0,.6,.1,1.2,0,1.8l.1-.1Zm-.7-11.2v.3c-.4,.3-.3,.7-.3,1s0,.4-.1,.8c-.4-.3-.4-.5-.4-.7s0-.4-.1-.7v-.2c.1-.4,0-.7,0-1v-.4c0-.5,0-1,.1-1.5,0,0,0-.1,.1-.2,.4,.3,.7,.2,1.1,0,.4-.1,.7-.4,1.1-.5h.5c-.1,.2-.2,.3-.3,.4-.7,.7-1.2,1.5-1.5,2.5h-.1l-.1,.2Zm1.6,1.4c.2,0,.4,.1,.5,.2v1c-.7,0-.9-.5-.5-1.1h0v-.1Zm.5-.5h-.4c-.2,0-.3-.2-.2-.4,.1-.3,.3-.6,.4-.8h.1c.2,.4,.1,.9,0,1.3h0l.1-.1Zm.1,10.1c-.4,0-.7-.1-.7-.4s.2-.4,.4-.3c.2,0,.4,.2,.3,.7Zm.8,8.6c0,.1,0,.4-.1,.4-.4,.1-.5,.7-1.1,.4,0-.1,0-.4,.2-.4,.3-.1,.5-.5,1-.4h0Zm1.1-18v.7c0,.1-.1,.4-.2,.4-.4-.1-.7,0-1.1,.1,0-.2-.1-.4-.1-.6v-3.1c0-.4,0-.7,.5-.8,.2,0,.4-.1,.7-.2v3.5h.2Zm-.1,5.6l-.9,.2c-.2-.5-.3-1-.1-1.5,.1-.4,.5-.4,.8-.3,.3,.5,.1,1.1,.1,1.7h0l.1-.1Zm-.6,3.2c-.1,.3-.4,.3-.6,.1v-.4c.2,0,.4,0,.6,.2v.1Zm.4-5.5c-.3,0-.6,0-.9,.1-.3-.5-.2-1,0-1.5,.2,0,.4-.1,.7-.2,.2,0,.4,0,.4,.2,0,.4,0,1-.1,1.4h-.1Zm-1.2-7.6c.1-.4,.8-.4,1.2-.2-.4,0-.9,.1-1.2,.2Zm-.2-.9c.4-.4,.9-.4,1.4-.3-.4,.4-.9,.4-1.4,.3Zm.5,21.2v-.5c0-.4,0-.5,.4-.6h.6c.3,.5,.1,1.1,.1,1.6s-.4,.4-.7,.4-.4-.3-.4-.7h0v-.2Zm-.1-3.1s.1-.2,.3-.3c.2,0,.5-.1,.9-.2,.1,.7,.1,1.3,0,1.9h-1c-.3-.4-.1-1-.1-1.5h0l-.1,.1Zm1.2-1.3c-.1-.2-.4-.4-.5-.6-.2,.1-.4,.3-.5,.4-.3-.5-.2-1-.1-1.4,0-.2,.2-.3,.4-.3h.6c.3,.6,0,1.2,.3,1.8h-.1l-.1,.1Zm-.5-3c.1,0,.3-.2,.5-.4v.6c-.3,.1-.4,0-.6-.2h.1Zm1.2-10.7c0-.3,0-.5,.1-.8h.6c0,.1,.2,.2,.1,.3,0,.5,.2,.9,.4,1.3,.1,.3,0,.7,0,1-.1,0-.4,.1-.6,.2v.5c-.2,.1-.5,.2-.7,0v-2.6h0l.1,.1Zm-7-4.4c0,.4-.4,.6-1,.6,0-.3-.1-.5-.3-.7,.5-.1,.9,0,1.3,.2h0v-.1Zm-1.3,1.7c.4-.1,.8-.4,1.2-.4,.1,0,.4,0,.5,.2s.3,.5,0,.8c0-.1-.1-.3-.2-.5-.5,0-1,.4-1.6,.2,0-.1,0-.3,.2-.4h0l-.1,.1Zm-.1,2.7c.4,.5,.4,.8-.4,1.3-.1-.5-.3-1,.4-1.3Zm-.4,2.7q0-.4,.6-.6c.4,.6,0,1.2,.2,1.8,.1,0,.4,0,.4-.2,0-.1,.1-.3,.1-.5,.3,0,.6,.2,1,.3-.1,.1-.2,.2-.3,.3-.3,.1-.7,.3-1,.4-.4,.1-.7,.2-1,.2s-.7,.1-1,.3c-.1,0-.4,0-.6,.1h0c.3-.4,.5-.6,.9-.9,0,0-.1-.2-.3-.3-.3-.3-.4-.8-.1-1.1,0-.1,.3-.1,.4-.2,.3,.4,.2,.9,.1,1.2s0,.5,.3,.7c.2-.1,.4-.4,.3-.7-.1-.4,0-.7,0-1.1h-.1l.1,.3Zm.5,7.7c-.1,.2-.4,.2-.5,0s-.2-.4,0-.7c0-.2,.2-.4,.5-.3,.2,.3,.2,.6,0,.9h0v.1Zm-.1,1.7h-.3c-.2-.4-.2-.7,0-1,.5,0,.6,.3,.3,1Zm-.4-4.1c0-.3,.3-.3,.6-.3v.4c-.2,0-.4-.1-.5-.1h-.1Zm.3-1.2h0c.2-.3,.4-.3,.6,0-.1,0-.3,.1-.4,.2-.1,0-.2-.1-.3-.2h.1Zm-1,4.7c0,.3,0,.6-.2,.8-.5-.4-.4-.8,0-1.2-.4-.2-.7-.4-.5-.9,0-.2,.2-.5,.5-.4,.2,.3,.2,.6,.1,1v.9h0l.1-.2Zm-.2-3.6c.2,.2,.2,.4,0,.7-.2,0-.4,0-.4-.2s.3-.3,.4-.4h0v-.1Zm.4-6.1h-.4c0-.2,0-.4,.1-.6,.3,0,.2,.4,.2,.6h.1Zm-1-3.9c.3,0,.6-.2,1-.3h.4c-.1,.4-1,1-1.6,1-.1-.4,0-.5,.3-.6h0l-.1-.1Zm-.5,1.8c0-.6,.7-.8,1.2-.5,.1-.1,.4-.4,.5-.5,.2,.5,.1,.7-.3,.7s-.6,.2-.7,.7c0,.4-.3,.8-.4,1.2h-.1s-.1-.2-.1-.3v-1.2h0l-.1-.1Zm-.1,13.2c.5-.1,1-.2,1.3-.3h.2c.4,.2,.7,0,1-.2,.2-.1,.6-.1,1-.2,0-.4-.1-.8-.2-1.2,.2-.1,.4-.3,.6-.4-.2-.2-.7-.3-.7-.7s.3-.5,.7-.7v-2.7c0-.4,.1-.4,.4-.3v5.5c0,.4,0,1-.2,1.3-1,.1-1.8,.4-2.7,.5-.4,0-.7,.1-1.1,.2-.1,0-.3,0-.6-.1,.1-.2,.2-.4,.2-.5h0l.1-.2Zm-3,13.2c-.3,.4-.4,.9-.7,1.4-.1,0-.4,.1-.6,.2,0,.2-.1,.4-.1,.6h-.3v-.4c.7-1.3,1.2-2.6,2.3-3.6l1.5-1.5c.3-.3,.6-.5,1-.7h.5c-.4,.7-1.1,1-1.5,1.6s-1.1,.8-1.5,1.5c0,.4-.1,.7-.4,1.1h0l-.2-.2Zm-.4,2.1c0-.3,.2-.5,.4-.8,.2,0,.4,0,.6,.1,.5,0,.7,.4,.3,.8-.4,0-.8,.4-1.2-.1h-.1Zm.3,2.8s-.2-.1-.3-.3c.1-.1,.3-.2,.4-.3,.3,.2,.2,.4,0,.6h-.1Zm1.1-12.1c.4,.2,.4,.6,.1,1-.3-.4-.4-.6-.1-1Zm-.9-.6c.4-.4,.7-.4,1-.2,.2,.1,.1,.3,0,.5-.4,0-.8,.1-1.2-.3h.2Zm1-4c-.1,.1-.4,.3-.5,.4s-.4,0-.4,0c-.2-.3-.4-.4-.8-.4h-.2c0-.1-.1-.4-.2-.5,.4-.1,.7-.2,1-.3h.6c.4,0,.8-.2,1.2-.2s.3-.3,.3-.5v-.7h-.4c-.3-.6-.2-.7,.4-1.2,0-.3,0-.7,.2-.9-.1-.5,0-1.1-.2-1.5l-.1-.1c.1-.1,.3-.2,.4-.3v-.4c0,.7,.3,1.5,0,2.2v3c0,.4,0,.7-.1,1-.4,0-.6,0-.7,.3,0,.1-.3,.2-.4,.3h0l-.1-.2Zm-1.4-2.8c.2,.3,.3,.6,0,1-.4,0-.4-.3-.4-.5s0-.4,.4-.4h0v-.1Zm.9,.2c.4,0,.4,.4,.4,.7,0,.1,0,.4-.2,.5h-.2c-.4-.4,0-.8,0-1.2h0Zm1.2,2.5h1.5c.4,0,.5,.3,.2,.7,0,0,0,.1-.1,.2-.4,0-.7-.1-1-.4h-.4c-.2,0-.4,0-.4-.3h.1l.1-.2Zm.2,3.6c.2,0,.5,0,.8-.1,.4,0,.5,0,.5,.4v.5c0,.4,0,.8-.1,1.2,0,.1-.1,.3-.2,.4-.4-.2-.3-.6-.3-.9h-.7c-.2-.4-.2-1,0-1.5h0Zm1.3,3.3c0-.33,.17-.47,.5-.4q0,.4-.5,.4Zm-3.2-17.3h0c.3-.5,.4-1,.6-1.5,.4-.7,.8-1.2,1.5-1.6h.2c.3,.4,.1,.9,.1,1.3v.9c0,.5,0,.7-.5,.9s-1,.4-1.5,.5c-.4,.1-.6,0-.4-.4h0v-.1Zm-.5,.3c0,.4,0,.6-.7,.4,0-.4,.2-.5,.7-.4Zm-.3,1.6c.7-.2,1.5-.4,2.2-.6,.1,0,.4-.1,.5-.2,.1,0,.4,0,.5-.1,0,.4-.2,.4-.4,.4-.4,0-.7,.2-1,.4-.2,0-.5,.1-.8,.2-.4,.1-.9,.2-1.2,.4h-.4c0-.4,.3-.4,.4-.4h0l.2-.1Zm-.4,17.2c.4-.3,.7-.5,1.1-.7h.2v.1c-.6,.5-1.2,1-1.8,1.5-.3-.3-.6-.5-.8-.7,.27-.27,.47-.3,.6-.1,.2,.2,.4,.1,.7,0h0v-.1Zm-.7-14.6v.4c-.1,1.2-.1,2.3,0,3.4,0,.1,0,.2-.1,.4-.2-.1-.2-.3-.1-.4,.2-.7,.1-1.5,0-2.2v-.7s-.1-.1-.2-.3c.1-.1,.2-.3,.4-.6h0Zm-5.7,1.6c.1,.3,.1,.5,0,.7v.7c-.2-.4-.2-1,0-1.4Zm-1.3-6.9c-.2,.2-.4,.2-.6,0-.1-.2,0-.2,.6,0Zm-.1,7.9c-.2-.2-.2-.5,0-.8,.2,.3,.3,.6,0,.8Zm-1.2-5.9c.3,0,.4,.2,.6,.4h-.8c0-.1,.1-.4,.2-.4h0Zm-1-3.8c-.1,0-.4,.1-.5,.2,0-.6,0-.7,.4-.7,0,0,.2,0,.2,.1s0,.3-.1,.3h0v.1Zm-.3,17.4c-.2-.1-.3-.3-.3-.5v-2.1c0-.2,0-.4,.2-.6,.2-.1,.4-.1,.4,0,0,.6,0,1.1-.1,1.6,0,.5,.2,1-.2,1.5h0v.1Zm-.2-13.8c-.4-.2-.2-.4,0-.7,.1,0,.3,0,.5,.1-.2,.2-.3,.4-.4,.5h0l-.1,.1Zm-.4-5.9c.4,0,.7-.1,1,0v1.2c-.33,0-.53-.33-.6-1,0-.1-.4,0-.4-.4h0v.2Zm.3,3.2c.4,.1,.1,.4,0,.7-.2,0-.4,0-.5-.1,.1-.2,.3-.4,.4-.5h0l.1-.1Zm-.9,1.9c.1,.2,.1,.4,0,.5-.1,.2-.4,.2-.7,0,.3-.2,.4-.4,.7-.5h0Zm.4,7c0,.1,.1,.3,.2,.4,0,.2,0,.4-.1,.6-.1,.1-.4,.2-.4,0-.2-.4-.5-.5-1-.6h-.2c0-.5,.5-.7,1.5-.3h0v-.1Zm0,3.8c-.4,0-.5-.1-.5-.4v-1.4c0-.2,0-.4,.4-.4,0,.7,.3,1.5,0,2.1h0l.1,.1Zm0,1.2v2.7c-.3,.1-.5,0-.5-.2v-2.6c0-.1,0-.3,.3-.3s.3,.2,.3,.4h-.1Zm-1.1-3.1c0,.1,.1,.3,.1,.4v1.2c0,.3-.1,.4-.4,.4-.4-.6-.2-1.8,.3-2.1h0v.1Zm-.3,3c.3,0,.4,.2,.4,.4v2.4c0,.2-.1,.4-.5,.3v-1.5c0-.5-.1-1,.1-1.5h0v-.1Zm-.9,1.2c-.4-.2-.4-.4-.1-1,.4,.1,.5,.5,.1,1Zm-1.1,.8c.3,.4,.3,1.1,0,1.5,0,0-.2-.1-.2-.2,0-.4-.1-.9,.2-1.2h0v-.1Zm.1-4.5v-1.4c0-.4,.1-.6,.7-.7,.2,.5,.3,1-.1,1.5,0,0,0,.1-.1,.3,0,.1-.1,.3-.2,.4,0,0,0-.1-.1-.1h-.2Zm.1-4.1c0,.2,0,.4,.1,.6,0,.2,0,.4-.2,.6-.3-.4,0-.8,0-1.2h.1Zm.9,9.9h-.3v-1.6h.3c.3,.5,.3,1,0,1.6Zm-1.2-12.9c.3-.1,.5-.2,.8-.3,.2,.1,.2,.3,.2,.5v2.2c-.1-.4-.3-.7-.4-1.1,0-.3-.2-.5-.5-.7-.1,0-.1-.3-.2-.5,0,0,.1-.1,.3-.2h0l-.2,.1Zm-.9,2.3c0-.2,.1-.4,.2-.6h.1c0,.1,.1,.2,.1,.4v2.9h-.4c-.3-.8,0-1.7-.1-2.6h0l.1-.1Zm-.7,1.3c0,.4,.1,.9,.1,1.4h-.6c.1-.5,.3-1,.4-1.4h.1Zm-.2,3.3c0-.6,0-.7,.1-1,.4,.5,.3,1-.1,1Zm-2.1,14.7c.2,.5,.1,.7-.3,.8,0-.4,0-.7,.3-.8Zm.5,5.5h-.6c-.2,0-.4,0-.5-.1,0,0,0-.1,.1-.2,.2,0,.4-.1,.7-.2,.4,0,.5,0,.7,.5h-.4Zm.9-5.5c0,.4-.3,.8-.4,1.2h-.3c0-1.1,.2-2.1,.7-3v1.8h0Zm.6-12.6c-.1,0-.3-.2-.4-.4,.3-.4,.5-.7,.7-1.2,0,.4,.1,.9,.1,1.3,.5,0,.7-.2,.6-.7v-.7c0-.3,.1-.6,0-1s0-.6,.2-1c0,.2,.1,.4,.1,.7v1.4c0,.4,0,.7,.2,1s.2,.5,0,.8c-.7,.2-1.1,.9-2,.7,.1-.2,.3-.4,.4-.6,.2-.3,.1-.3-.1-.5h0l.2,.2Zm3.1,15.7c-.7,0-.9-.2-.6-1h.7c0,.4,0,.7-.1,1h0Zm-.1,1.3c-.4,0-.5,0-.4-.8h.4c.3,.3,.2,.5,0,.8h0Zm-.6-4.7c0-.2,0-.4,.4-.4,0,.4,.2,.9,.2,1.2s0,.4-.1,.6h-.3s-.1-.2-.1-.4v-1.1h0l-.1,.1Zm.3-1.5c-.2-.6-.2-1,0-1.5,.3,0,.4,.2,.3,.4,0,.4,.2,.9-.3,1.2h0v-.1Zm-.1-2.7c-.3,0-.5-.1-.7-.2,.1-.6,.3-1.2,1-1.3,0,.4,.2,.7,.3,1,0,.3-.2,.6-.5,.6l-.1-.1Zm-.7,1.3c0,.2,.1,.4,.1,.6v2c-.1,.4-.2,.9,0,1.3v.4s-.1-.1-.1-.2v-3.6c0-.2,0-.4,.3-.7h-.1l-.2,.2Zm-.1,8.1c.2,0,.5,0,.8,.1,0,.3-.1,.4-.3,.5-.3,.1-.6,0-.9-.2,0-.4,.1-.5,.4-.5h0v.1Zm-1.2-13.9c-.3,.4-.4,.4-.7,0,0-.4,.1-.8,.2-1.2,.4,0,.4,.1,.4,.4-.1,.3,0,.6,.1,.9v-.1Zm-.4,.8c.2,.3,.3,1,0,1.4-.5-.2-.5-.7,0-1.4Zm.7,5.4c-.3,1.3,0,2.7-.2,4-.6,0-.7,0-.7-.5v-3.1c0-.4,.1-.7,.7-.7,0,0,.1,.2,.1,.3h.1Zm-.7-1c-.1-.3,0-.5,.2-.6,.2,0,.4,0,.5,.4-.2,0-.4,.1-.7,.1h0v.1Zm3.1,10.2c-.7,.4-1.4,0-2.1,0,.7-.2,1.2-.7,2.1-.5v.6h0v-.1Zm0-12.9c-.3,0-.5,0-.7,.3-.3,0-.6-.5-.9,0,0-.1-.1-.2-.2-.3,.4,0,.9,0,1.2-.1,.3,0,.6-.2,.9-.2s.6-.2,.9,.1c-.4,.3-.9,.3-1.2,.3h0v-.1Zm1,10.6v-1.4c0-.1,0-.4,.1-.4,0,0,.2-.1,.4-.1s.2,.1,.2,.3,0,.4,.1,.7c.1,.7,0,.9-.7,1h0l-.1-.1Zm.4-2.8c-.2-.6-.2-1.2,0-1.7,.5,.2,.5,1.2,0,1.7Zm.3-3.2c-.8,.1-1.4-.4-1.4-1h0c0-.3,0-.5,.3-.4,0,0,.1,.2,.1,.4s0,.4,.1,.6c0,0,.1,0,.2,.1,.4-.3,0-1,.6-1.2,.3,.6,0,1.1,0,1.7h0l.1-.2Zm-.5-2.5c-.3,0-.5,0-.8-.1,0-.8,.3-1.4,1-1.8,.2-.1,.4,0,.4,.1v1.2c0,.4-.1,.7-.7,.6h.1Zm.5-2.6c.6-.4,1.2-.4,1.9-.4,0,.4-.1,.4-.4,.5h-1.5v-.1Zm.7,11.9c-.1-.4,.1-.7,.1-1.1,.1,.6,0,1-.1,1.1Zm0-1.8c-.4-.4-.3-.7,0-1,.4,.4,.3,.7,0,1Zm.1-1.9c-.3-.1-.1-.4-.2-.7,0-.4,0-.7,.4-.9,.3,.7,.2,1.2-.1,1.5l-.1,.1Zm.4-4.4v1.5c0,.2,0,.4-.1,.7-.2-.3-.4-.6-.3-.9v-1.2c0-.2,0-.4,.1-.7,.4,0,.4,.3,.4,.4h0l-.1,.2Zm.6,6.3c-.4-.4-.2-.8,0-1.2,.3,0,.3,.1,.4,.3,0,.3,.1,.7-.3,.9h-.1Zm.5-4.1v1.5c0,.1,0,.4-.1,.5-.3,0-.4-.1-.4-.3v-3.8c0-.2,0-.4,.1-.7,.4,.1,.4,.3,.4,.5v2.3h0Zm-.2-3.6c-.2,0-.4,0-.5-.1-.1-.2-.4-.2-.5,0h-.3c0-1,.4-1.7,1.2-2,.4,.6,.4,1.3,0,2.1h.1Zm0-4.8c-.1-.7-.2-1.2,0-1.9,.3,0,.3,.3,.3,.4,0,.4,.3,1-.3,1.4h0v.1Zm-.3-5.6c-.3-.1-.6-.3-.7-.7,0,0,.2-.1,.3-.1h1.3c.5,0,1,0,1.4,.2,.8,0,1.6,.5,2.4,.3h.4c.5,.2,1.1,.3,1.7,.4h.4c.6-.1,1.1,0,1.7,.2,.1,0,.3,.1,.4,.3h0c-.1,.1-.2,.2-.4,.2-.7,0-1.4,0-2.1-.1-.4-.1-.8,0-1.2,.2-.2,0-.3,.1-.5,0-.1-.1-.4-.2-.5-.1-.6,0-1-.3-1.4-.6-.3-.2-.5-.3-.8-.2-.2,.4,.4,.7,.4,1.1-.3,0-.3-.3-.4-.4h-.8c-.3,0-.5,0-.7-.4s-.6-.4-1-.5h0l.1,.2Zm4.8,15.5c0-.1,0-.3,.2-.4,0,0,.3-.1,.4,0,.1,0,.2,.2,.3,.4,0,0-.1,.2-.2,.3-.2,.1-.4,0-.6-.1h0l-.1-.2Zm.2,2.6c-.3-.2-.3-.3,0-.7,.2,.27,.2,.5,0,.7Zm-.3-5c-.2-.4-.4-.7-.3-1.1,.4,.1,.6,.7,.3,1.1Zm1.2,4c.2,.3,.2,.7,.1,1h-.4c-.2-.6-.2-.7,.2-1h.1Zm.2-4.9c.3-.4,.4-.9,1-1.1,0,.6-.6,.7-.7,1.1h-.3c0-.1,0,0,0,0Zm-2.3-3.2c.2,0,.4,0,.6-.1,0,.2,0,.4-.1,.7-.2-.2-.3-.4-.4-.6h-.1Zm-.2,4.3c-.4,0-.6,0-.6-.4,0-.6,0-1.1,.1-1.7h.1s.1,.2,.1,.4c0,.4,0,.7,.1,1,0,.3,0,.5-.1,.7h.3Zm-1.2-.5v1.1c0,.4,0,1-.4,1.5,0,.1-.1,.4-.1,.6,0,0-.2,0-.2-.1,0-.7-.4-1.3-.2-2.1v-2.1c0-.4,0-.6,.4-.6h.7v1.6h0l-.2,.1Zm-.2,5.4c0-.4,0-.7-.1-1.1h.3c0,.4,.2,.7-.1,1.1h-.1Zm-.6-7.8c0-.8,.1-1.6,.2-2.5,.2,.1,.4,.2,.4,.3,.1,.1,.1,.4,.3,.5,0,.2,.2,.4,.3,.7,.1,.3,.1,.4,0,.7-.4,.4-.5,.4-1.2,.4h0v-.1Zm.6-8.9q.4,.3,.1,.7c-.3-.2-.2-.5-.1-.7Zm-.6,20.1c0-.1,0-.2,.1-.3,.4-.2,.8,0,1.3,0-.4,.7-1,.4-1.5,.3h.1Zm1.7-1.1h-.7c-.4,0-.7,0-1,.1h-.3c-.2,0-.3-.2-.3-.4s.2-.2,.4-.2h1.6c.2,0,.4,0,.5,.1,0,.1-.1,.3-.1,.4h-.1Zm-.3-3.1c.2,.2,.2,.5,0,.7-.3-.3-.2-.5,0-.7Zm0-2.6c0-.4,0-.7,.1-1.1h.7c.3,.6,.3,1.2,0,1.8-.5,0-.8-.2-.8-.7h0Zm1,3.1c-.2-.2-.3-.3-.1-.8,.4,.1,.4,.3,.1,.8Zm2.7,2.3c0,.3-.1,.6-.3,1,0-.2-.1-.4-.2-.5-.6,.1-1.5,.1-1.9,0v-.4h2c.2,0,.4,0,.3,.4h0l.1-.5Zm-.1-5.8c-.1-.6,.5-.9,.3-1.4l-.4,.2v-.3c.4-.4,.7-.9,1.1-1.3,.3-.3,.6-.5,1-.1,0,0,0,.2-.1,.4-.7,.6-1.1,1.4-1.5,2.1,0,0-.1,.2-.3,.4h-.1Zm.8,0c.6-1.3,1.4-2.5,2.5-3.4,.7-.5,1.2-1.1,2-1.5,.5-.4,1.1-.6,1.7-.7-.7,.7-1.5,1.3-2.3,2-.2,.2-.4,.4-.7,.7-.5,.8-1.2,1.5-1.6,2.4,0,0-.1,.1-.3,.3v-.6c-.2,0-.3,0-.4,.1,0,.1-.1,.4-.2,.4-.1,.1-.2,.4-.2,.6v.6c-.5-.4-.5-.5-.3-1h-.1l-.1,.1Zm.3,2.6c.1,0,.3-.1,.4,0,.1,.3,.1,.7-.2,1.1,0,0-.2,0-.4-.1,0-.4,0-.7,.1-1h.1Zm2.4,4.1c0-.1-.1-.3-.3-.4-.3-.1-.5,.1-.7,.3,0,0-.1,.3-.2,.4,.2,0,.4,.1,.6,.2,0,.2,0,.3-.3,.3h-.5c-.3,0-.5,0-.7-.1,0-.4,.2-.8-.1-1.1,0-.4,.3-.5,.7-.5h1c.4,0,.7,0,1.1-.1,.2,0,.5,.1,.8,.3v.7c-.2,0-.4-.1-.6-.1-.2,.1-.3,.5-.7,.4h0l-.1-.3Zm.8,.7c-.1,0-.4,0-.2-.4,.2,0,.5,0,.9,.1-.2,.3-.4,.4-.7,.3Zm.8-3.8c-.3-.2-.3-.7,0-1.2,.4,.2,.4,.7,0,1.2Zm0-3.6c-.2-.1-.4-.1-.7-.3,0-.2,0-.4,.1-.5,.4-.6,.8-1.1,1.1-1.7s.3-.4,.7-.2h.4c0-.2-.1-.4-.3-.6,.3-.3,.4-.7,1-.4h1c-.3,.4-.5,.7-.7,1.1-.4,.6-.8,1.1-1.2,1.7-.2,.3-.4,.7-.7,1-.1,.2-.4,.2-.6,0h0l-.1-.1Zm1.1,.9c0-.4,.2-.7,.5-1.1l.4,.2c.1,.4-.1,.6-.4,.9-.1,.2-.4,.1-.7,0h.2Zm.5,2.5c-.4,.1-.5,.1-.6-.1v-.7s.1-.1,.3-.2c.1,.3,.2,.7,.2,1.1h0l.1-.1Zm.3,4c-.4,0-.9,.1-1.4,.2,0-.1-.1-.3-.2-.4,.4-.2,.6-.2,1.5-.1h0v.4h0l.1-.1Zm.3,.6c.1-.4,.2-.7,.4-1.1,.6,.4,0,.7,.3,1.2h-.7v-.1Zm3-.4c.2-.3,.4-.4,.5-.6-.2-.3-.4-.6-.7-.8-.6,.3-1.3,0-2,.3h-.4c-.4-.3-.7-.1-1.1,0h-.8c-.3,0-.4-.1-.4-.4,0-.2,.1-.4,.4-.4,.4,0,.5-.1,.7-.4,0-.4-.4-.7,0-1.1,.2,.2,.3,.4,.1,.7v.2c-.1,.4,.1,.7,.5,.7h3c.4,0,.9,0,1.2,.3,0,.2-.1,.4-.2,.7,.3,.3,.5,.6,.9,1h-1.6l-.1-.2Zm1.5-.9c-.1,0-.3,.1-.4-.1,0-.1,0-.7,.2-.7,.2-.1,.5,0,.8,.3-.2,.2-.4,.4-.6,.7h0v-.2Zm1.1-6h-.1c-.4,0-.8,0-1.3-.1,0-.3,.1-.5,.2-.7,.3-.6,.6-1.2,.9-1.8,.3-.1,.6-.2,.7-.4s0-.4,0-.7c.2-.3,.5-.7,.7-1,.2,.1,.4,.4,.3,.6v2.3c0,.3,.1,.6,0,1-.1-.1-.3-.3-.4-.4-.4,.1-.4,.4-.4,.7,0,.2,0,.5-.4,.6h0l-.2-.1Zm1.1,5.9s-.3,.1-.4,.1-.3,0-.3-.3,0-.3,.2-.4h.7c0,.2,0,.4-.1,.4h0l-.1,.2Zm.4-2.7c-.2-.1-.4-.2-.7-.4,0,0-.1-.2-.3-.4h.6c0-.5,.1-1,.2-1.5,0,.8,.3,1.5,0,2.3h.2Zm.3-26.4c0-.4,.1-.4,.6-.5,.2,.6,.2,1.1,0,1.7-.5-.1-.6-.2-.6-.6v-.6h0Zm.3,4.9c.1,.2,.3,.4,.4,.6h-.6c0-.2,0-.4,.1-.7h0l.1,.1Zm.4,2.4c.2,.7,0,1.4,0,2.1-.33,0-.5-.13-.5-.4v-1.2c0-.4,.1-.4,.5-.6h0v.1Zm-.4,4.6c-.2-.5,0-1,0-1.5,0-.3,0-.4,.4-.4,0,.2,.1,.4,.1,.6v3.1c0,.2,0,.4-.4,.5,0-.1-.1-.3-.1-.4v-1.9h0Zm.1,6.3c0-.7,.5-1.5,1.2-1.7,.2,0,.3-.1,.4-.3,0,0,.2-.1,.4-.1h0c0,.2-.1,.4-.2,.6-.1,.2-.4,.4-.5,.7-.2,.3-.4,.6-.8,.7,.3,.7-.1,1.1-.4,1.5h-.1c0-.2,0-.5-.1-.7v-.7h.1Zm.2,3c.2-.4,.4-.9,.6-1.4,.1-.3,.3-.5,.7-.6-.2-.3,0-.5,0-.8,.2-.7,.8-1.2,1.1-1.8,0-.2,.4-.4,.5-.5,.2,.1,.1,.3,0,.4-.2,.4-.4,.8-.6,1.2v.5l.4-.4h.1c0,.4,0,.7-.1,1.1,.1,0,.4,.2,.6,.3-.2,1.2-.3,2.5-.8,3.7h-.3c0-.6,.1-1.1,.3-1.5,0-.5,.1-1,.2-1.5v-.4c-.4,.3-.1,.7-.5,1-.4-.2-.2-.6,0-.8,.1-.4,.3-.7,.3-1.2h0c-.2-.1-.3,0-.4,.2-.3,1-.7,2.1-.9,3.1v.6c.1-.2,.2-.3,.3-.4,.1-.3,.2-.6,.3-.9,0-.2,.1-.3,.4-.2v.3c0,.4-.1,.7-.3,1.2,0,.1,0,.2-.1,.4-.3,.1-.4,0-.5-.2-.2,0-.4,.2-.7,.3,0-.2-.1-.4-.2-.6h-.3c-.3-.5-.1-1,0-1.5h-.1v.4Zm3,8.4c-.1-.2-.4-.3-.4-.7,.1,0,.4,0,.4,.1s.3,.4,0,.6Zm-3,.4c0-.4,.2-.5,.8-.2-.3,.2-.5,.3-.8,.2Zm4.1,2.7c-1.1-.6-2.3-.1-3.4-.4h4.3c-.3,.1-.6,.2-.9,.3h0v.1Zm1-13v2.8c0,.4-.1,.7-.6,.7s-.7-.1-1.1-.2c0-.6,.6-1,.2-1.6h.4c.3,.3-.1,.7,.2,1h.1c0-.7,.4-1.2,.1-1.9,.1-.4,0-1,.4-1.3,.2,.1,.3,.4,.3,.6h0v-.1Zm-.9-1.2c.4,0,.6-.3,.9,0-.3,.2-.5,.3-.9,0Zm0-.7c.1-.4,.4-.7,.4-1.1,.1-.4,.1-.7,.2-1.1,.3,0,.5,.4,.9,.1,0,0,.2,0,.3,.2,.1,.3,.3,.6,.1,.9-.4,0-.7-.4-1-.6,0,0-.1,0-.2,.1,0,.3,.1,.7,.1,1h.8v.4c-.6-.1-1.2,.3-1.8,0h0l.2,.1Zm10.2,15.3h-4.4c-1,0-2.1,0-3.1-.1-.4,0-.7-.1-1-.2h0c.7,0,1.5,0,2.2-.1h2.9c.5-.1,1,0,1.5,0h.1c.7-.2,1.4,0,2.1,0,0,.4,0,.5-.3,.5h0v-.1Zm.7-4.1c-.4,0-.9,0-1.1,.4-.2,0-.4,0-.5-.1,0-.4,.2-.8,.7-.8h1v.4h0l-.1,.1Zm.2-24.8v2.9c0,.6-.1,.8-.4,1.1,.2,.3,.4,.6,0,1-.4,.1-.4-.4-.8-.5,.3-.4,.5-.9,.7-1.2-.47-.4-.53-.8-.2-1.2-.1,0-.2-.1-.3-.2,0-.2,.1-.4,.4-.6-.4-.2-.5-.5-.4-1v-1.5c0-.2,0-.4,.3-.6,0,0,.1,.2,.3,.4v-.4h-.1c-.4-.2-.6-.5-.5-1,0-.2,0-.4,.4-.4,.1,0,.5,.1,.6,.3v3h0v-.1Zm.3,13.7c.3,0,.5,0,.4,.5-.33,0-.47-.17-.4-.5Zm.4,5.5h-.1c0-.1-.1-.2-.1-.4v-1.4c0-.2,0-.4,.3-.5,.1,0,.2-.2,.3-.4,.2-.3,.3-.6,0-.9,.1-.1,.2-.4,.4-.5h0c.3,.3,.7,.3,1.1,0,.1,0,.2-.1,.4-.3,0,.2,0,.4,.1,.5,.1,0,.3-.1,.4-.2,.1-.2,.3-.4,.4-.7,.4-.5,.7-1,1.1-1.5,.1-.2,.4-.3,.7-.3-.1,.3-.3,.5-.4,.7-.6,.7-1.1,1.4-1.4,2.3-.3,.7-.5,1.3-.7,2,0,.3-.2,.5-.6,.4v-.8c-.4,.3-.5,.6-.4,1,0,.1-.2,.2-.4,.4,0,0,.1,.1,.2,.2,0-.1,.2-.2,.3-.4,.3,.1,.4,.4,.3,.6,0,.3-.3,.4-.5,.4h-.2c-.4,0-.6-.1-.4-.6,.2-.4,0-.7,.2-1.1v-.3c-.2-.2-.3,0-.4,0-.1,.4-.2,.9-.3,1.3,0,.1,0,.3-.1,.4h0l-.2,.1Zm3.7,2.7c-.3-.3-.3-.4,0-.7,.2,.2,.1,.4,0,.7Zm-.1,1.6c-.1-.2-.2-.4-.1-.7,.4,.1,.4,.3,.1,.7Zm0-4.5c-.4,0-.7,0-1-.1v-.4c.3-.4,.8-.1,1.2-.4,0,.1,.2,.3,.2,.4,0,.2-.1,.6-.4,.6h0v-.1Zm0-1.9c.2,0,.3,.2,.3,.4s-.2,.3-.6,.2c0-.5,0-.6,.3-.6h0Zm.1-1.2c0,.1,.3,.3,0,.4l-.4,.2c0-.4,0-.6,.3-.7l.1,.1Zm-2.8,13.1c-.2,0-.4,.1-.5-.1,0-.1,.2-.4,.3-.4,.3,0,.3,.3,.2,.6h0v-.1Zm.3-4.6c0-.3,.1-.6,.2-1-.1-.1-.4-.3-.7-.5,.4-.4,.6-.8,.6-1.3s0-.2-.2-.4c-.1,.3-.2,.5-.3,.8-.4-.5-.3-.9,.2-1.1,.1,0,.3-.1,.6-.3v3.1c0,.4,0,.7,.1,1.1-.5,0-.6,0-.6-.4h.1Zm21.3,6c-.3-.4-.8-.3-1.2-.4-.6,0-1.2,0-1.8-.1h-.6c-.7-.1-1.4,0-2.1,0h-2.1c-.4-.1-.7-.1-1.1,0h-.4c-.5-.1-1-.1-1.5-.1h-3c-.4,0-.8-.1-1.2-.1h-2.6c-.7,0-1.4-.1-2.1-.2h-1c-.1,0-.3,0-.5-.1,.2-.3,.4-.4,.5-.3,.5,.3,1.1,.1,1.6,.2h2.8c1,0,1.2,0,1.8,.3h6.8c.7-.2,1.4,0,2.1,0s.4,0,.6,0h1.8c.5,0,.8,0,1-.3,.5,0,.9,.1,1.3,.3,.4,0,.8,.2,1.2-.1,.4,.7,.2,1-.4,1.2h0l.1-.3Zm.7-2.1c-.8,.3-1.2,.2-1.6-.4,0,.1-.1,.3-.2,.5-.1,0-.3,0-.5-.1h-.4c-.6,.1-1.2,0-1.8,0h-3.3c-.3,.4-.8,.1-1.2,.1s-1,0-1.4-.1h0c-.4,.3-.8,0-1.2,.1h-1.5c-.4,0-.8,0-1.1,.1-.5,.1-1-.1-1.5-.1h-2.9c-.4,0-.7-.1-1.2,0-.1,0-.4,0-.6-.1h0c.3-.2,.7-.4,1-.2h4.5c.3,0,.7-.1,1,0,.1,0,.3,0,.4,.1,.4-.2,.7-.3,1.2-.3h7.5c.5-.2,1,0,1.5-.1h2.6c.2,0,.4,0,.7,.1,0,.3,0,.6-.1,.8v-.2l.1-.2Zm-9.3-2.5c.3-.2,.5-.2,.8,0-.3,.2-.5,.3-.8,.5v-.5Zm9.1-1.1c-.3,0-.6,0-.8-.1-.1,.3-.2,.6-.3,.8,0,0,.1,.2,.3,.4h-.4v-1.2c-.2-.1-.5-.3-1,0s-.4,.1-.6,0c-.4-.1-.8,0-1,.4-.1-.1-.3-.3-.4-.4h-.4c-.4-.1-.9-.2-1.3-.3v-.5h0c0,.1-.1,.4-.3,.4-.2,.1-.5,.2-.8,.1h-.4c-.4,0-1,.1-1.2,.5-.1-.2-.2-.4-.3-.6,.4-.4,.9,0,1.2-.2,0-.1,0-.4-.1-.5h.4c.1,.2,.2,.4,.4,.6,.1-.2,.2-.4,.4-.6,.4,0,.8,0,1.3,.1,0,0,.1,.2,.3,.4,0-.2,0-.3,.1-.5,.3,0,.6,0,.9,.1,0,.2,0,.4-.1,.5,.4,0,.9,.6,1.3-.1-.2-.1-.4-.2-.7-.3,.3-.4,.7-.3,1,0h0c.2,.7,.4,.8,1,.7,.2,0,.4,0,.7-.1,0-.1,.1-.3,.2-.4h1c0,.3,.1,.5,.3,.9,0,.3-.4,.1-.6,.1h0l-.1-.2Zm.5-3.6c-.3,0-.4,0-.4-.2s0-.5,.5-.4c0,.3-.1,.4-.1,.7v-.1Zm19.2-8.7c.4,.4,0,.7,.1,1.1,0,.1-.1,.3-.4,.2,0-.1,0-.2,.1-.4,0,0-.1-.2-.3-.3,0-.2,.2-.4,.4-.7l.1,.1Zm.3,4.1q-.4,.4-1-.1c0,.1-.1,.2-.3,.4,0-.1-.1-.2-.2-.3,.2-.2,.4-.4,.6-.7,.4,0,.6,.5,1,.7h-.1Zm-.2,2h-.9c-.2-.2-.2-.4-.1-.7,.4,0,.3,.4,.7,.5,0,0,.3-.2,.4-.4,.3,.2,.1,.4,0,.6h-.1Zm.1,1c0,.2-.1,.3-.4,.3,0-.1-.1-.2-.1-.4,.1-.1,.3-.3,.4-.1,0,0,.1,.1,.1,.2h0Zm-.8-6.6c0,.3,0,.6-.1,1-.2-.5-.1-.8,.1-1Zm-.9,2.2s.2,0,.4-.1c0,.3,0,.6-.4,.9-.2-.2-.1-.5,0-.7v-.1Zm-.1,5.6c0,.1,.1,.2,.2,.4l.4-.2c.33-.27,.73-.27,1.2,0v.6c.1,0,.4,.1,.5,.2,0,0,.2,.1,.2,.2s-.1,.2-.2,.2c-.7,.2-1.5,.2-2.1-.2-.4-.3-.6-.7-.4-1,0,0,.1,0,.2-.1h0v-.1Zm.7,4.4h-1.1c.8-.5,.9-.5,1.1,0Zm-1.3-12.9s-.2-.1-.2-.2,.1-.2,.2-.2,.2,0,.4,.2c-.1,.1-.3,.3-.4,.3h0v-.1Zm.1-1.5c-.1,.2-.3,.4-.4,.4h-.2s-.1-.1-.1-.2c0-.4,.4-.4,.8-.2h-.1Zm-.8,4c.1,0,.4-.2,.7-.4,0,.4,0,.7-.1,1.1-.4,0-.5,0-.4-.7h-.2Zm-.3-.7c.2,.1,.2,.4,.1,.6s0,.2-.4,.2c-.1-.4,0-.6,.2-.8h.1Zm-3.7,11s0,.2-.1,.3c-.9-.2-1.7-.4-2.5-.5,.07-.27,.23-.37,.5-.3h1c.4,.1,.7,.4,1.2,.5h-.1Zm-2.9-3.3c-.4,.1-1.8,0-2.1-.1,.1-.5-.4-1,.1-1.5,.4,.4,1.1,.4,1.2,1.2h.4v-1.3c-.3-.1-.3-.4-.2-.6h-.7c0-.2-.1-.4-.2-.7,.4,0,.7,.1,1,.3v.2c.2,0,.2-.5,.7-.2v2.3c0,.3,0,.4-.3,.6h0l.1-.2Zm0,3c-.6,0-1,0-1.5-.1,.1-.2,.2-.4,.4-.5,.4,.2,.8,.2,1.2,.7h0l-.1-.1Zm-1.7-8.4c.5,.4,.6,1,.1,1.5-.4-.7-.4-1.1-.1-1.5Zm3.2,1.9c-.1,.2-.3,.2-.5,.1,.2-.2,.4-.4,.5-.6,.1,.1,.1,.3,0,.4h0v.1Zm-2.2-3.1c.6,.1,1.2,0,1.8,.3,0,.1-.1,.2-.2,.3-.7,.3-.6,1-.8,1.5,0,.1,0,.3-.1,.5-.4,0-.7,.1-1-.2,.3,0,.4-.1,.7-.2,0-.2,.1-.4,.1-.6v-.6c-.1-.4-.3-.4-.6-.3-.1,0-.3,0-.4,.1-.4-.2-.9-.4-1.1-.9,.4-.1,.8-.1,1.8,0h0l-.2,.1Zm-1.5,9.2v.4c-.4,.4-.8,0-1.2,0,.1,0,.3-.1,.4-.2,.2-.3,.5-.3,.8,0h0v-.2Zm-2.1-6.8c.1-.1,.2-.3,.4-.2,.1,0,.4,0,.7,.1-.2,.3-.4,.5-.6,.7-.1,.1-.4,0-.6-.1,0,0-.1-.3,0-.4h0l.1-.1Zm-.7,2.7c0,.3-.1,.5,0,.8,0,0-.1,.2-.2,.3h-.4c-.5,0-1,0-1.4-.1-.3-.2,0-.5,0-.7s.3-.1,.4-.1c.2,0,.4,.2,.7,.3,.4-.3,.1-.7,.2-1h.3c.3,0,.4,.1,.4,.4h0v.1Zm-.4,4.2c-.1,.1-.4,.2-.4,.2-.2,.3-.4,.6-.6,.8,0-.1,0-.2-.1-.4-.1-.3-.4-.5-.5-.8s0-.4,.4-.5c.1,.1,.3,.3,.5,.4,.2-.2,.4-.6,.8-.4,.1,.1,.2,.4,0,.5h0l-.1,.2Zm-1.5-6.3s.1-.2,.2-.3c.2,0,.4,.2,.4,.6-.5,0-.7,0-.6-.3h0Zm1.1-3.8c.4,0,.6,.13,.6,.4-.2,0-.4,0-.6,.1v-.6h0v.1Zm.7,1.7c.2,.5,0,1-.7,1,.2-.4,.4-.7,.7-1Zm-1,3.1h.4c.1,0,.2,0,.4,.1-.1,.2-.3,.4-.4,.5-.4,0-.4-.2-.4-.7h0v.1Zm-.2-1.8c-.1,0-.3,0-.4-.1v-.4c.3,0,.5,.1,.4,.5h0Zm-.1-3v.3c-.4,0-.7-.1-1-.2,.2-.4,.3-.4,1,0h0v-.1Zm-.9,.5c.1,.3,0,.4-.3,.6,0,0-.2-.1-.3-.3,.1-.3,.3-.4,.6-.4h0v.1Zm-.7,3.6c-.1-.3,0-.4,.2-.6,.2,.4,.2,.5-.2,.6Zm-.7-4.4c.4-.2,.7-.1,1,.1,0,.3-.2,.4-.4,.4-.3,0-.4-.3-.5-.5h-.1Zm1.4,16.3c-.1,.1-.3,.2-.5,0h-.1c-.3-.8-.2-1.2,.3-1.5,.2,.1,.3,.3,.3,.5s0,.4,.1,.5v.5h-.1Zm9.4-1.2c0-.2-.1-.4-.3-.7h.1c.2,.1,.5,.3,.7,.4-.1,.2-.3,.3-.6,.3h.1Zm1.1,.1c0-.1-.1-.3-.1-.4,.4-.07,.77-.03,1.1,.1-.2,.2-.4,.3-.9,.3h-.1Zm5.9-1.3c-.4,.1-.7,.2-1,.4-.4,0-.8-.1-1.2-.2,0,0-.2,0-.3,.1-.27,.2-.47,.2-.6,0-.2-.3,0-.1-.1-.2,0,.2-.1,.4-.2,.5-.1,.1-.3,.2-.4,.4-.4,0-.5-.4-.7-.7-.3,.2-.5,.3-1,0s-.7-.3-1,0h-.4c-.5,0-1,0-1.4-.1-.2,.5-.2,.6,.2,.7,0-.1,.1-.3,.3-.4,.2,0,.4,.1,.7,.3,0,.4-.3,.7-.5,.8-.5-.2-1-.4-1.6-.6,.1-.1,.2-.2,.3-.4,0,0,.1-.2,.1-.4-.8,.2-1.5,.1-2.3,0h0c.3,.3,.6,.5,.8,.7,.1,0,.2-.1,.4-.2v.3c-.6,.1-1.1,.2-1.5-.3,0-.4-.2-.7-.5-.7,0,.4,.3,.8-.1,1-.1-.1-.3-.4-.4-.4s-.4,.1-.5,.2c-.4-.2-.7-.4-1.1-.7-.1,.4-.4,.5-.7,.5s-.4-.1-.5-.4c0-.3,0-.5-.1-.8,.1,0,.2-.1,.4-.1h9c.5,0,1-.1,1.5,.2h.4c.7-.2,1.4-.1,2.1,0h1.1c.6,0,1.2,.1,1.8,.2h0c0,.1-.3,0-.3,0l-.7,.3Zm2.2,.4s-.1,0-.2-.1c-.3-.3-.6-.3-1,0s-.5,.2-.8-.2c.6-.7,.7-.7,1.6-.4l.4-.2v1h0v-.1Zm3.2-22c.2-.2,.2-.7,.7-.5,0,.5-.2,.7-.7,.5Zm1.1,22.2c0,.1,0,.3-.2,.4-.2,0-.4-.1-.4-.3,0-.4-.1-.9,0-1.2,.4,0,.7-.1,1,.1h.4c.4-.2,.73-.2,1,0,.1,0,.3,0,.4-.1,0,.1,.1,.3,.2,.4-.1,0-.2,.1-.3,.1-.3,0-.6,.1-.8,.2-.2,0-.4,0-.7-.1-.1-.2-.4-.2-.6-.1-.2,0-.3,.3-.2,.5h0l.2,.1Zm7.5,4.6q-.2-.4,.1-.5c.3,0,.7-.2,1,0-.3,.4-.8,0-1.1,.4v.1Zm1.3-3.5c-1.1,0-2.2,.2-3.2,.1-.6,0-1.1,.2-1.7,.1h-1.8c-.8,.4-1.7,.1-2.6,.2-.3-.6-.2-.7,.4-.9h1c.4,0,.6,0,.7-.4l.2-.1c.4,.4,.7,.6,1.2,.4h.4c.4,0,.8,0,1.2-.2h2c.8-.3,1.5,0,2.4,0,0,.2,0,.5,.1,.7h-.4l.1,.1Zm-.5-3.5c0-.2,.2-.3,.4-.2,.2,0,.2,.3,.1,.4s-.2,.2-.4,.4c-.2-.2-.2-.4-.1-.7h0v.1Zm.6-1.1s0,.2-.1,.4h-2.3c-.3,0-.5,.1-.6,.5,0,.2,0,.4-.2,.6-.3,.4-.7,.4-1,0v-.1c.3-.2,.4-.5,.2-.9-.3,0-.6-.1-.8,0-.2,0-.3,.4-.5,.7,0,0-.1-.1-.1-.2-.3-.5-.2-.4-.8-.4h-.7c-.3,0-.6,0-.9,.2-.1,.1-.4,0-.5,0l-.4-.2c-.1,.1-.3,.3-.4,.4-.2-.2-.3-.4-.1-.6s.4-.1,.5,0c.3,.1,.6,0,.8-.1h.5c.1,0,.4,0,.5,.1h.8c.4,0,.6,0,.6-.4v-3.6h1.6c.4,0,.6,.2,.6,.6v1.7c0,.7,0,.9,.7,1.2,.4,.1,.7,.3,1,0h1c0-.2,0-.3-.1-.4,.2-.3,.4-.6,.2-1v-1.8c.2-.4,0-.7-.2-1v-.1c0-.1,.2-.4,.2-.5,0-.3,.2-.3,.4-.2,.2,.4,.2,1,0,1.4v2.5c0,.3,0,.7,.2,1s.2,.5,0,.8h0l-.1-.6Zm-7.7-12.5c0,.4,0,.7-.1,1-.4-.4-.3-.7,.1-1Zm1.7-5.5v-1.8c0-.4,.4-.7,.7-1,.4-.3,.6-.7,.7-1.1,0-.1,.1-.4,.2-.6,.4,0,.7-.1,1.1-.2,.2,0,.4,.2,.4,.4v5.3c0,.5,0,1-.1,1.7h-1c-.1-.2,0-.3,.1-.4,.2-.2,.2-.43,0-.7-.1-.4-.4-.7-.2-1.1v-.3c-.2,0-.4,0-.5,.2-.1,.4-.4,.8-.7,1-.1,0-.2,.3-.4,.4,0,0-.1,.1-.2,.2,0-.5-.1-1,0-1.5v-.8h0l-.1,.3Zm.9,11.9c.1,.1,.3,.4,.1,.6h-.4c0-.4,0-.7,.3-.7h0v.1Zm-.7-1.3c.6-.4,1-.3,1.2,.4-.4,0-.8-.2-1.2-.4Zm-.1-2c-.1,.1-.4,0-.5-.2,.2,0,.4-.2,.6-.3h0c0,.2,0,.4-.1,.5h0Zm.7-4.4c.4-.1,.5,0,.7,0v.4c-.4,0-.4-.4-.7-.6h0v.2Zm0,2v.6c-.3,0-.4-.1-.4-.3,0,0,.2-.1,.4-.3h0Zm.3-3.3c-.2,.2-.4,0-.7-.1,.2-.3,.4-.5,.6-.7s.3-.1,.7,0c-.2,.2-.4,.5-.7,.7h0l.1,.1Zm-.3,5.6c.1-.3,.4-.4,.7-.5,0,.1,.1,.3,.3,.4-.4,0-.7,.4-1,0v.1Zm1,3.5c.4,0,.4,.3,.3,.5h-.4v-.5h.1Zm.1-1.9c.4-.5,.8-.4,1.1,.4-.5,.1-.7-.2-1.1-.4Zm.2-3.3c.1-.1,.2-.4,.4-.6,.1,.1,.2,.3,.4,.4-.2,.2-.5,.3-.7,.1h0l-.1,.1Zm.4-2.6c.1-.2,.1-.5,.5-.4,0,.33-.17,.47-.5,.4Zm-2.3,2.4l-.2,.1c-.1,0-.3-.2-.4-.4,.3-.1,.5,0,.7,.2h0l-.1,.1Zm-1.1-9.3c-.2-.1-.3-.4-.1-.6s.4-.2,.7,0c-.1,.2-.3,.4-.5,.6h-.1Zm6.9-2.9v-.7c.1-.4,.2-.7,0-1.1v-.4c.4,.1,.4,.3,.3,.5-.3,.5-.1,1,0,1.5,0,.2,.1,.4,0,.7h0c.1,.5,0,.9,0,1.2,0,.7-.1,1.3,0,2.1-.3-.1-.4-.3-.6-.4h-.9c-.4,0-.7-.1-.7-.4s.2-.4,.7-.5h.7c.4,0,.4-.1,.4-.6-.4,0-.7,0-1,.1-.7,0-.9-.2-.6-.9,.5,0,1,0,1.6-.1,0,0,.1-.1,.3-.3,0-.2-.1-.4-.1-.5h0l-.1-.2Zm2.5,1.5h-1c-.3,0-.5,0-.6-.4,0-.2,0-.6,.3-.7s.7-.3,1,0h.4c.3-.2,.3-.4,.2-.7,0-.3-.1-.6,0-.9v-1.4c.33,0,.47,.13,.4,.4v.4c0,.5-.1,1,0,1.4h0c-.3,.5,0,.9-.2,1.2v2.2h-.2c-.4-.3-1-.2-1.5-.1-.4,0-.6,0-.7-.3,0-.2,0-.4,.4-.6h1.5v-.4h-.1l.1-.1Zm2.7-.4c-.3,0-.5,0-.8,.1h-.7c-.2-.3-.2-.6-.1-.9,.1,0,.3,0,.4-.1,.4-.1,.7-.1,.8,.2,0,0,.2,.1,.4,.1s.3,0,.3-.3,.1-.4,.4-.5c.6,0,1.2,0,1.9-.1,0,.2,.1,.4,.1,.7v6.7c0,.4-.3,.5-.7,.5h-.9c-.1-.3-.6-.4-.4-.7,.3-.3,1,0,1-.7h-.5c-.4,0-.5,0-.5-.4v-.4c0-.2,0-.4-.2-.6-.4-.4-.3-1,0-1.5,0-.1,.2-.3,.1-.4,0-.2-.2-.4-.5-.4h-1.6c-.4-.6-.2-.9,.4-1,.4,0,.7,0,1-.1,.1,0,.3,0,.4-.1,0-.4,0-.5-.4-.4h0l.1,.3Zm-.1,9.7s-.1,.3-.3,.4h-.1v-.3c.1-.3,.2-.6,.1-1,0,0,0-.2,.1-.4,0,.1,.1,.2,.1,.2,0,.4-.2,.7,0,1l.1,.1Zm-.5-4.4s-.1,.1-.2,.1h-.3v-.3c.1-.2,1-.4,1.1-.3s.1,.4,.2,.6l-.1,.1c-.2,0-.4-.1-.7-.2h0Zm-2.8,.5c-.3,0-.4-.1-.4-.4,.6-.3,1.2,0,1.8-.1,.1,0,.3,0,.4,.1h0c-.1,.2-.2,.4-.4,.4-.4,0-1,0-1.4,.1h0v-.1Zm.9,3.6c0,.5-.2,.6-.7,.3,.1-.3,.4-.5,.7-.3Zm-.8,3.3c-.2,.2-.4,.2-.5,0,0,0,0-.2,.1-.3,.2-.1,.4,0,.4,.3Zm2,.9c.2-.1,.4,0,.6,.1-.3,.2-.6,.4-1,.7h-.7c.3-.4,.7-.6,1.1-.7h0v-.1Zm1.5-.2h.5c-.2,.4-.5,.5-.8,.7,0-.3,.1-.5,.2-.8h0l.1,.1Zm.3-3c0-.3,.3-.2,.4-.4,.1,.4,0,.5-.1,.7-.3,0-.3-.2-.3-.4h0v.1Zm0-2.2v-.4h.6c.4-.5,.7-.7,1.5-.4v2.7s-.2,.1-.3,.1-.4,0-.4-.1c-.1-.1,0-.3,0-.4,.2-.3,.1-.4-.2-.6-.1,0-.2-.1-.4-.2,.1-.3,.3-.5,.4-.7-.4-.4-.8-.4-1.2-.1h0v.1Zm1.6,9.6c-.3,.3-.6,.1-1,0,.4,0,.7-.3,1,0Zm-.1-2.9c0-.2-.2-.4,0-.6,.3,0,.4,.2,.4,.5s0,.4,.1,.7c-.1,.1-.3,.2-.5,0,0-.2-.1-.4-.1-.7h0l.1,.1Zm-3.4-11.1s.2,0,.4-.1c.1,0,.3,0,.4,.1-.2,.4-.7,0-1,.2-.3,.1-.7,.1-1,.1s-.7,.2-1,0c.3-.2,.6-.3,.9-.3,.4,0,.9-.2,1.4,0h-.1Zm-3,1.6c-.3,.3-.4,.5-.8,.4h-.4l-.2-.2c.2,0,.4-.1,.7-.1h.7v-.1Zm-1.9-1.1c0-.1,.1-.2,.4-.1,.2,.1,.4,.1,.7,0s.2,0,.4,.1c-.1,0-.2,.2-.3,.1-.4-.2-.9,.4-1.2-.1h0Zm0,1.6c-.6,0-.8,.4-.8,1-.6-.2-.7-.7-.4-1.4,.6-.2,1-.1,1.2,.4h0Zm-1,8.1c.2,.3,.3,.4,.4,.6-.2,.3-.5,.3-.8,.1,.1-.2,.2-.4,.4-.7h0Zm.4,3.3h-.4v-.4c.4-.1,.7-.5,1.2-.1-.3,.2-.5,.4-.7,.5h-.1Zm2-3c-.2,.3-.7,.1-1,.2,0,0-1-.7-1-.8,.4-.3,.9-.3,1.2,0,0,0,.3,.1,.4,.1,.2,0,.3,0,.3,.4h0l.1,.1Zm.6-7c-.1-.2-.3-.4-.4-.5-.1,0-.3,.2-.4,.3,0-.1,0-.2-.1-.4,.4,.1,.9-.3,1.3,0-.1,.1-.2,.3-.4,.5h0v.1Zm.3,9.4c.1-.6,.3-.7,.9-.7,.5,0,.7,.3,.7,.8s0,.7,.4,.8l.4-.2c.1,0,.4-.2,.4-.1,.4,.4,.9-.1,1.2,.1,0,0,.1,.1,.2,.3-.2,0-.4,.1-.5,.1h-1.5c-.2,0-.4,.1-.7,.2v3c0,.2,0,.4-.4,.4,0-1.4,0-2.7,.1-4.1-.5-.2-.7,0-1,.5-.3-.4-.3-.7-.1-1h0l-.1-.1Zm.7,5.8v-.4h-.5v-.4h.1c.4,.2,.7,0,1-.2,.3-.3,.6-.2,.8,.1,0,0-.2,.2-.4,.4,.7-.2,1.2-.2,1.8,0h.6v-.1c0-.1-.2-.3-.3-.5h0v-1.2c.2-.7-.1-1.3,.2-1.9h1.4c.3,0,.4,.1,.4,.4,0,.8-.1,1.5-.2,2.3v1.4c.2,0,.4,.2,.7,.3,0,.2,0,.4-.1,.5h-.4c-.2,.3-.4,.5-.6,.7h-.4v-.8c-.4,0-.2,.4-.5,.6-.4-.2,.1-.7-.2-1h-2.1c-.2,0-.3,.1-.3,.3v.5c0,.1,0,.4-.1,.5-.3,0-.4-.1-.4-.4-.1-.4-.1-1,0-1.5l-.2,.3-.3,.1Zm1.6,7.1c-.3-.1-.6,0-.8,.1-.1,.1-.3,.2-.5,0,0-.2,.1-.4,.2-.7,.2,0,.4,.1,.7,.1q.4-.2,1.2,0c-.2,.2-.5,.3-.8,.1h0v.4Zm-.1-2.8h-1c-.3,0-.5-.2-.5-.4s.2-.4,.5-.4h.3c1,0,2.1,0,3.1-.1,.6,0,1.2-.1,1.8-.2h.4c.4,0,.5,.2,.6,.5v.5c-.3,.1-.5,.2-.8,0-.4-.1-.7-.2-1.1,.1-.2-.4-.6-.4-1-.3h-2.3v.3Zm8.6,1.6c-.4,0-.7,.1-.8,.4,0,0,0,.1-.1,.1-.7,.1-1.5,.5-2.3,.4-.6,0-1.2,.1-1.8,.1h-2.6c.2-.3,.4-.4,.8-.4h1.3c.4,0,1-.2,1.4,0h.6c.4,0,.7,0,1-.1,.1,0,.2,0,.4-.1,.4-.1,.9-.4,1.4-.3,.1,0,.3,0,.4-.1,.2,0,.4,0,.3,.3h0v-.3Zm-2.1-19.9c-.3,.1-.5,0-.7-.1,.3,0,.4-.5,.8-.4v.5h-.1Zm-.2,18.3c-.3-.4-.3-.7,0-1.1,.3,.4,.4,.5,0,1.1Zm4.7-.8h-.2c-.7,0-1.5,0-2.3,.1-.2,0-.5,0-.7,.1h-.2c-.1,0-.4,0-.5-.1v-.6h3.7c.2,0,.5,0,.7,.1,0,.2,0,.4-.2,.4h-.3Zm-4.2-8.3h.7c0,.2,0,.4-.3,.4-.2,0-.4,0-.4-.4h0Zm1.2-3.7c.3,.1,.5,.2,.5,.6s.1,.3,.3,.4c0,0,.1,.1,.2,.3-.3,.2-.5,.4-.7,.2-.3-.2,0-.4,0-.7,0-.2-.7-.2-.4-.7h0l.1-.1Zm0-.2c0-.1,0-.3-.1-.4,.2-.1,.4-.2,.7,0-.2,0-.4,.2-.6,.3h0v.1Zm4.3-2.1c.1,.3,0,.3-.1,.4-.2,0-.4,0-.5-.1,.1-.4,.4-.1,.7-.2h0l-.1-.1Zm-.1-1.4s.1,0,.3-.2c.2,.3,.4,.6,.6,.9-.4,0-.8-.2-1-.7h.1Zm.1,4c.4,0,.7-.6,1.2-.2,0,.2-.2,.4-.4,.6,0,.2,.1,.5,.3,.7,.4,.1,.4-.2,.5-.5,0,.2,.1,.4,.2,.4,.7,0,1,.2,1,.5s-.2,.7-.7,.7c0,0,.1-.2,.1-.3,.1-.2,0-.4-.2-.4h0c-.6,0-1.2,0-1.8-.4v-.7c-.2,0-.4,0-.7-.1h-.1c-.3-.4-.7-.5-1.1-.6,0,0-.1-.1-.1-.2s0-.1-.2-.2c-.3-.1-.3-.3,0-.6,.1-.1,.3-.4,.4-.5l.7,.7c.3,.4,.4,.8,.7,1.1h.2Zm1.6-.3c.4,0,.6,0,.7,.3-.2,0-.4,.2-.6,0,0,0,0-.2-.1-.4v.1Zm2.9-6c0,.3,0,.4-.3,.6-.1,0-.1,.3-.2,.5h-.1c0-.2-.2-.4-.3-.7,.4-.1,.6-.4,.6-.7s0-.3,.1-.4h.1v.7h.1Zm-.2,2.5c.2,.3,.3,.5,0,.8,0-.1-.2-.3-.3-.4,.1-.1,.2-.2,.4-.3h0l-.1-.1Zm-1.6-3.4c.3-.2,.8,.2,1-.5,.1,.2,.2,.4,.3,.4-.6,.7-.9,.7-1.3,0h0v.1Zm.2,5c.3-.2,.5-.3,.9-.1h.4s.2,0,.3,.1c-.1,.4-.3,.7-.7,1-.3-.2-.6-.4-.9-.6v-.4Zm0,1.5h.4c.2-.1,.4-.4,.7-.4s.5,.1,.4,.4v.2s0,.1-.1,.3c-.4,0-.7-.1-1.1-.3,0,.1-.1,.3-.2,.4-.2-.3-.2-.4,0-.7h0l-.1,.1Zm-4.9,4c0,.1,.1,.3,.3,.4-.1,.2-.3,.2-.4,0s0-.3,.2-.4h-.1Zm1.4-.6h0c.1-.1,.2-.2,.4-.2s.1,.1,.1,.6c-.2-.1-.4-.2-.5-.3h0v-.1Zm4.1,8.9h-1.4c-.5,.2-1.6,.2-2.1,0,0-.1,0-.3,.1-.4,.4-.2,.7-.4,1.2-.2h.2c.5,0,1,0,1.5-.1h.6v.7h-.1Zm0-7.8c0-.3-.4-.6,.1-.9,.2,.3,.4,.6,.7,.9-.3,.2-.6,.2-.9,0h.1Zm2.2,7.4c-.2,0-.4,.1-.6,.2h-.6c-.2,0-.4-.1-.2-.4,.6-.1,1.1,0,1.7,0,0,0-.1,0-.2,.1h0l-.1,.1Zm-.4-12.5c-.3-.1-.4-.4-.2-.7,.2,0,.4,.1,.7,.3-.1,.2-.3,.3-.4,.4h-.1Zm.2,1.1c-.4-.2-.5-.4-.4-.5,0-.1,.2-.1,.4,0s.2,.3,0,.6h0v-.1Zm.9,11.4c.1-.2,.3-.4,.7-.4,0,.1,.1,.3,.2,.4-.4,.2-.5,.2-.9,0h0Zm1.3-1.9c-.2,.1-.4,.3-.7,.4v-.6c.3-.1,.6,0,.8,.1h0l-.1,.1Zm-1.6-4.1c.7,.2,1.2,.8,.9,1.8-.5,.1-.6,0-.7-.4,0-.3-.1-.6-.2-.9-.1-.2,0-.4,0-.5h0Zm-.2-13.4c0,.1-.1,.3-.3,.4,0,0-.2,.1-.3,0,0,0-.2-.1-.2-.2s.1-.4,.2-.4c.1-.1,.4,0,.5,.1h0l.1,.1Zm-.6-5.2c.4,.2,.5,.3,.3,.7-.4-.1-.5-.4-.3-.7Zm-.2,6.3c.2-.2,.5,0,.7,0,0,.2,0,.5-.2,.6-.1,0-.4,0-.6-.1v-.4h0l.1-.1Zm-.3,2c0-.2,.1-.4,.2-.6,.4-.2,.7-.2,1,0h.3c.2,0,.4,.4,.4,.6,0,0-.1,.2-.3,.2h-1.3c-.3,0-.5,0-.7,.3v-.4c.1,0,.3,0,.4-.1h0Zm-.5-2.9h-.4c-.6,.4-1.2,0-1.8,.1v-.4c.7-.3,1.5,0,2.3-.1,0,.2,0,.4,.1,.7-.1,0-.2-.1-.4-.2h0l.2-.1Zm-1.9-1.9c.1,0,.4,0,.3,.4,0,.1-.2,.2-.4,0-.2-.1,0-.3,0-.4h.1Zm2-.3h-.3s-.1,0-.1-.1c-.4-.5-.8-1-1.2-1.5,.5-.4,1-.3,1.5-.3,.4,.7,0,1.2,0,1.9h.1Zm.1-7.8c.2,.4,.2,.5-.3,.7,0-.4,0-.6,.3-.7Zm.1,1.3c0,.4,.1,.7-.3,1-.1,0-.2-.2-.4-.3,.1-.5,.3-.6,.7-.6h0v-.1Zm-.9,1.7c-.2,.4-.4,.4-.8,.1,.3-.3,.5-.2,.8-.1Zm-1.5-1.5v.6c-.2,0-.4,.1-.6,.2,0-.4,0-.6,.6-.9h0v.1Zm-.7,2.5c.9,0,1.8-.1,2.6-.2h.4v1s-.2,.1-.3,.1h-2c-.7,0-1-.4-1-1,.1,0,.2-.1,.3-.1h0v.2Zm-.1,11.8c.2,0,.4,.3,.6,.4,0,.2-.2,.3-.3,.5,0,0,0,.1,.1,.2,.4,0,.2-.4,.4-.6,.4,0,.5,.1,.7,.7h-.7c-.1,0-.3,0-.5,.1-.1,0-.4,0-.6-.1-.3,0-.4-.2-.2-.4,0,0,.1-.2,.2-.3,0-.07-.03-.2-.1-.4-.5,.1-.6,.1-.8-.2h1.2v.1Zm-.8-2.4c-.1-.4-.1-.5,.2-.6,.1,.3,0,.4-.2,.6Zm0-2.1c-.2,0-.4-.1-.4-.4,.4,0,.4,.2,.4,.4Zm-1-9c0-.3,.4-.3,.7-.3,0,.4-.3,.5-.5,.8,0-.2-.1-.4-.1-.5h-.1Zm-1.3,11.5c.3,.3,.6,.4,.9,0,.2,0,.3,.1,.3,.3s-.2,.2-.4,.2h-.7c-.1,0-.4,0-.4-.2s.1-.2,.2-.4h0l.1,.1Zm-.4-12.6c.3,.4,.3,.6-.1,.7-.1-.3,0-.5,.1-.7Zm.3,13.6c.2,.2,0,.4-.1,.4-.1-.1-.4-.3-.4-.4s-.1-.3-.2-.5c.4,0,.7,.3,.9,.4h0l-.2,.1Zm-.6,1.3c.1,.3,0,.4-.2,.5-.3,0-.5,0-.7-.2l.9-.2h0v-.1Zm-.7-.5c-.2-.3-.4-.5-.6-.8h0v-.5c-.1,0-.3-.1-.5-.3,.1,0,.2,0,.3-.1,0,0,.2,.1,.2,.3,0,.4,.3,.5,.7,.6,.1,.3,.1,.6,0,.9h0l-.1-.1Zm-.1-7.9v.3s0,.2,.1,.4h-.4c-.2-.1-.4-.3-.7-.4-.1,0-.2-.1-.4-.1-.4,0-.7,0-1-.4-.4,.3-.7,.4-1.2,0,0-.1-.1-.4,0-.7v-.8h.9c.6,0,1.1,.2,1.7,.4,.5,.3,1,.6,.9,1.2h0l.1,.1Zm-2.1-5.1c.4,.2,0,.6,0,.8-.3,.2-.7,.3-1.1,0v-.7c.4-.2,.7-.3,1,0h0l.1-.1Zm-.6-4.6c.3,.2,.7,.3,.7,.8-.3,.1-.7,.1-.9,0-.1-.2,0-.4,.2-.7h0v-.1Zm.5,6.3c.2,.2,.1,.5,0,.7h-.6c-.4,0-.6-.1-.5-.5,0,0,0-.2,.1-.3,.4-.1,.7-.3,1,0h0v.1Zm.1-15.7c0,.1,.1,.4,.3,.7-.5,0-.7-.4-.8-.6,.3-.3,.4-.3,.5,0h0v-.1Zm-1.4,6.8c.1,0,.3,0,.4,.1,.5,.4,1,.7,1.5,1.1,0,0,0,.1,.1,.1,.4,0,.5,.3,.6,.7,0,.3,.1,.6,.3,1-.2,0-.4,0-.4-.1-.6-.4-1.2-1-1.8-1.4h0c-.8-.2-.7-.8-.6-1.5h-.1Zm-4.4-18.8c0,.1,.1,.3,.2,.4,0,0-.1,.1-.2,.3-.1-.1-.2-.2-.3-.4,0,0,.2-.1,.3-.3Zm-7,18.8h-.4c-.3,0-.4,0-.5-.3,0-.2,0-.4,.3-.5,.4,0,.7-.1,1.1-.1,.4,.7,.2,1-.4,1h0l-.1-.1Zm.7-1.6s0,.1-.1,.1c-.4,0-1,0-1.5,.1v-.5c0-.4,.2-.5,.5-.6,.4,0,.7,0,1.1-.1,.3,.3,0,.6,0,1Zm0-1.6c-.1-.4-.2-.7-.3-1h.4c.2,.4,.2,.7,0,1h-.1Zm1.7,2.8c-.2,0-.4,0-.6,.1-.3,0-.4,0-.5-.3,0-.2,0-.4,.3-.5,.4,0,.9-.1,1.4-.2,0,.7,0,.8-.6,.9h0Zm.3-1.4c-.4,0-.9,0-1.2,.1-.2-.3-.2-.5-.1-.8,.1-.3,.4-.3,.7-.3h1s0,.2,.1,.4c0,.3-.1,.6-.4,.6h-.1Zm2.2,.9l-.1-.1c-.2-.3-.4-.3-.6,0-.1,.1-.1,.4-.4,.3-.3-.5-.2-.7,.3-.8,.4,0,.7-.2,1.1,.2,0,.1-.2,.3-.3,.4h0Zm.2-1.7c-.3,.1-.5,.3-.8,.4h-.4c-.3,0-.4-.3-.4-.5s.1-.3,.4-.4c.4-.1,1-.2,1.4-.4,.2,.4,.1,.6-.1,.7h0l-.1,.2Zm1,1.4c-.2-.1-.3-.2-.2-.4,.1-.4,.4-.3,.7-.3,0,.5-.5,.4-.5,.7Zm.7-1.4h-.7c-.3-.4-.2-.5,.3-.8,.1,0,.3-.1,.4-.2,.2,.3,.4,.4,.6,.7,0,.3-.3,.4-.6,.4h0v-.1Zm1.1-1.9c-.1-.4-.2-.6-.4-.8,0-.2,.2-.1,.3,0,0,0,.1,.2,.1,.3s0,.4-.1,.6h0l.1-.1Zm2.4,3c-.4,0-.8-.1-1.3-.2l-.1-.2c-.1,0-.2,.2-.4,.3-.2-.4-.2-.5,.1-.7,.4-.1,.8-.2,1.3-.1h.4c0,.3,.3,.7,0,1h0v-.1Zm-1.7-2.2c.5-.3,1.1-.4,1.6,0,0,0,.1,.2,.2,.4h-.4c-.4,.4-.8,.4-1.3,.4-.2,0-.4-.1-.4-.3s0-.4,.2-.6h0l.1,.1Zm1.5-1.1v-1.1c.4,0,.4,.3,.4,.5,0,.4,0,.5-.4,.6Zm-.3-2.5c-1,.2-1.9,.4-2.9,.6-1.1,.1-2.1,.4-3.2,.7-1.4,.3-2.8,.5-4.2,.7-.2,0-.4,0-.7,.1h-.5c.1-.7,.4-1.2,.9-1.6,.2-.2,.4-.4,.5-.8,.1-.4,.4-.9,.7-1.3,.6-1,1.2-1.8,1.8-2.8,.4-.6,.7-1.1,1-1.7,.4-.8,1-1.5,1.4-2.3,.2-.4,.6-.7,1.1-.8,.6-.1,1.1-.3,1.7-.4h.4c.2,.7,.5,1.4,.7,2.1,.4,1.2,.9,2.3,1.2,3.4,.4,1,.7,1.9,1,2.9,0,.2,.2,.4,.4,.7,.1,.2,0,.4-.2,.4-.4,0-.7,.1-1,.2h0l-.1-.1Zm.8,38.4c.2,0,.4,0,.4,.2v.6c-.2,.1-.4,0-.5,0,0,0-.1-.2-.1-.4,0-.1,0-.3,.1-.4h.1Zm-18.6-28.5s.2,.1,.2,.2v.7s-.2,.1-.4,.2c-.1-.5,0-.8,.3-1.1h-.1Zm-1.1,2.8c.2,.4,0,.7-.2,1h-.4c0-.5,0-.8,.5-1h.1Zm-.5,28.1c-.1,.2-.4,.1-.6,.1v-.5c.2,0,.4,0,.6,.1v.3Zm0-22.9c-.3-.3,0-.6,0-.9h.5c0,.1-.1,.3-.2,.4,0,.1,.1,.3,.2,.4-.2,.1-.4,.2-.7,0h0l.2,.1Zm1.2-2.5h-1.2c-.07-.33,.03-.57,.3-.7,.3-.1,.6-.3,.9-.4,.4-.1,.9-.2,1.4-.2h1.1c0,.1,0,.4,.4,.3,0,0,.1,.1,.2,.1,0,0,.1,.1,.2,.3,.1-.3-.1-.7,.4-.9,0,0,.2,.1,.4,.2,.3-.4,.7-.4,1-.5,.4-.1,.7,.4,1.1,.3,.3-1,.4-2,.4-3,.6,0,1.2-.2,1.8-.3,.5,0,1-.1,1.5-.2,.5,0,1-.1,1.5-.2,.6,0,1.2-.2,1.8-.3,.4,0,.8,0,1.2-.1,.9-.1,1.8-.3,2.6-.4,.4,0,1-.1,1.4-.2,.3,0,.4,.1,.4,.5v3.1c0,.2-.1,.4-.4,.4h-.4c-.5,0-1,0-1.5,.1-.2-.3,0-.6,0-.9v-1c.4-.4,.2-.9,.2-1.4-.6,0-1.2,0-1.7,.1-.5,0-1,.1-1.5,.2-.8,.1-1.6,.3-2.4,.4h-.7c-.7,0-1.3,.1-2,.2-.1,0-.3,.1-.4,.2v2.3q0,.7-.7,.7t-1,.1c-.2,0-.4,.3-.5,.5h0c-.4,.1-.9,.2-1.3,.3-.4,0-.9,.2-1.3,0h-.4c-.4,.2-.9,.3-1.3,.2h-.4c-.5,.2-.9,0-1.2-.4h0l.1,.6Zm.5,1.6h.4c.5,0,1-.1,1.5-.1h.5c0,.3,.1,.6-.2,.7s-.4-.3-.7-.4c-.3,.7-1,.5-1.5,.5s-.3-.1-.4-.4c0-.2,0-.3,.3-.4l.1,.1Zm-.1,25.5h.3c.2,.3,.1,.6,0,1h-.3c-.1-.3-.3-.7,0-1Zm-16.7,5.7c.4-.3,.6-.3,1.2,0-.4,0-.8,.4-1.2,0Zm9.8-.9c-.1,0-.2,0-.3-.4,.3-.3,.7-.2,1-.1h1.7c.2,0,.5,0,.8-.1-.2,.6-.8,.5-1,1-.4-.2-.9-.3-1.3-.2h-1l.1-.2Z"/>
      <path class="cls-1" d="M39.9,0c0,.5,0,1-.1,1.5-.1,0-.2,0-.3-.1V0h.4Z"/>
      <path class="cls-1" d="M66,34.1c0-.7,0-1.5-.2-2.2,.3,0,.5-.2,.8-.3,.4,0,.4-.2,.4-.7,0-.3,0-.5-.1-.8,0-.1,0-.2,.1-.4,.3,.1,.5,.3,.7,.4,.5,.3,.8,1,.7,1.5v.4c.2,.1,.4,.2,.6,.4-.7,.2-1.1,.6-1.5,1.1-.3,.4-.8,.5-1.4,.4h0l-.1,.2Zm.9-1.6c-.4,.2-.4,.7-.1,1.2,.4-.4,.4-.5,.1-1.2Z"/>
      <path class="cls-1" d="M62.3,32.7h.2c.6,0,.8-.4,.7-1v-.7h.1c.4,.1,.9,.2,1.2,.5s.4,.8,.2,1.3c0,.2,0,.4-.2,.7,0,.1-.1,.3-.3,.4-.1,.2-.4,.4-.5,.5-.2,.5-.7,.4-1.1,.6-.2,0-.3,0-.3-.3v-.2c.1-.4,0-.8,0-1.2v-.6h0Zm.8,.6c-.4,.4-.4,.7,0,1.1,.2-.4,.2-.7,0-1.1Z"/>
      <path class="cls-1" d="M110.9,11.9c0,.6,.2,1.2,0,1.8v2.3c0,.5,.1,.6,.6,.7,0,.4-.1,.7-.2,1h-1c-.2-.2-.3-.4-.2-.8,.4-.1,.5-.5,.5-1v-2.9c0-.4,0-.7,.1-1h.1l.1-.1Z"/>
      <path class="cls-1" d="M89.9,24v.9c0,.3-.3,.4-.5,.6h-.6s-.1,0-.2-.1c-.3-.5,0-1.2,.7-1.3h.7l-.1-.1Z"/>
      <path class="cls-1" d="M6.3,35.6c0,.1,0,.3-.1,.4-.4,.4-.8,.8-1.1,1.2-.2,.3-.6,.6-.7,1,0,.3-.1,.6-.5,.7-.2,0-.4,.3-.6,.4v-.4c0-.1,.2-.3,.3-.4,.4-.5,.9-1,1.4-1.6,.2-.3,.4-.6,.7-.9s.4-.3,.5-.4h.1Z"/>
      <path class="cls-1" d="M8.2,33.2c0,.6-.1,.9-.7,1.1-.1,0-.3,.2-.4,.4s-.1,.3-.1,.5c-.2,0-.4,.2-.7,.3v-.3c.2-.4,.5-.7,.7-1.1,.1-.2,.3-.4,.5-.6,.1-.1,.3-.4,.7-.2h0v-.1Z"/>
      <path class="cls-1" d="M71,13.5v.2c-.1,.1-.3,.3-.3,.5v.2c-.4,.5-.7,1.2-1,1.8,0,.1-.2,.3-.4,.4-.1-.3,0-.5,0-.7,.1-.4,.4-.8,.6-1.2,0,0,0-.1,.1-.2,.2-.3,.5-.6,.7-1,0,0,.2-.1,.3-.2h0v.2Z"/>
      <path class="cls-1" d="M72.3,11.1c-.3-.1-.4-.3-.4-.5s-.1-.3-.2-.4c-.1-.3-.1-.4,0-.6,0,0,.1,0,.2-.1l.1-.1s.1,.1,.2,.1c.27,.13,.3,.37,.1,.7,0,.2-.1,.4-.1,.7v.4h0l.1-.2Z"/>
      <path class="cls-1" d="M61.4,47.7c.3,.1,.4,.4,.6,.7-.2,0-.4,.1-.6,.1,0,.1,.2,.2,.2,.4v.5c-.1,.2-.3,0-.4,0s-.2,.2-.4,.3h0c.3-.6,.6-1.2,.8-1.8h-.1l-.1-.2Z"/>
      <path class="cls-1" d="M122.9,29.9v-2.2c0-.1,0-.4,.3-.3v2.3s0,.1-.1,.2h-.2Z"/>
      <path class="cls-1" d="M72.1,5.1c.2,0,.4,0,.4,.3v1.4s0,.1-.1,.2c-.3,0-.4-.3-.4-.6,0-.4,0-.9,.1-1.3h0Z"/>
      <path class="cls-1" d="M72.1,9.1c-.3-.3-.4-.5-.1-.6h.4c.2,.1,.1,.3-.3,.6h0Z"/>
      <path class="cls-1" d="M110.7,11.2c0-.4-.1-.7,.1-1.1,.2,.5,.1,.9-.1,1.1Z"/>
      <path class="cls-1" d="M47.7,29.2c.2,0,.3,.2,.4,.6-.4,0-.4-.1-.4-.6Z"/>
      <path class="cls-1" d="M41,30.7h-.9c.3-.3,.4-.3,.9,0Z"/>
      <path class="cls-1" d="M48.5,34.9c-.3,0-.5,0-.5-.3,.3,0,.5,0,.5,.3Z"/>
      <path class="cls-1" d="M84.1,76.6h-2.3c-.6,0-1.2,.3-1.8,0h-.3c-.2,.2-.5,.2-.8,0s-.4,0-.5,0c-.4,0-.9,0-1.2-.2-.2,.1-.4,.2-.6,.4-.3,.1-.4,0-.6-.3,.4-.2,.7-.5,1.2-.4s1.1,0,1.6,0,.6,0,1,.1c.4-.2,1-.1,1.6,0h2.6v.3h0l.1,.1Z"/>
      <path class="cls-1" d="M73.4,76.8c0-.1,.1-.3,.3-.4,.5,0,1,0,1.5,.1,0,.4,0,.5-.4,.5s-.6,0-.8,.1c0,.1-.4,.1-.5,.1h-3c0-.2,0-.3,.2-.4,.4,0,.9-.2,1.3,0h.1c.4-.1,.7,0,1,0h.3Z"/>
      <path class="cls-1" d="M4,75.9c-.3,.2-.4,.4-.6,.5-.1,0-.2-.1-.2-.2-.1-.2-.3-.3-.5-.1h-.6c-.2,0-.4,0-.4-.2-.1-.2-.4-.3-.6-.3s-.4,0-.5-.1c.2-.4,.7-.1,1-.4,.1,.1,.3,.2,.4,.4,.1-.1,.3-.2,.4-.4,.3,.2,.5,.4,.7,.6,.3,.1,.6,.2,1,.3l-.1-.1Z"/>
      <path class="cls-1" d="M7.4,75.5v.8h-.4c-.4-.1-.6,0-.8,.3l-.1,.1c-.2-.7-1-.7-1.5-.9,0-.3,.1-.4,.4-.3,.4,0,.7,.3,1.1,.2,.3,0,.7,.2,1-.2,0,0,.2,0,.4-.1h0l-.1,.1Z"/>
      <path class="cls-1" d="M22.5,74.4c.1,0,.2-.2,.4-.2h1.8c.6,0,1.1,0,1.7-.1,0,.4-.2,.4-.4,.4h-3.4c0-.1,0,0,0,0l-.1-.1Z"/>
      <path class="cls-1" d="M11.2,76.8s-.1,.1-.2,.2c-.2-.2-.4-.4-.7-.7h-.7c-.1,0-.3,0-.4,.1-.1,.2-.4,.2-.6,.1-.3,0-.6,0-1-.1,0,0,0-.2,.1-.2,.4,0,.8-.4,1.2-.1h.4c.7-.2,1.2,0,1.5,.7h.4Z"/>
      <path class="cls-1" d="M9.5,71c0-.2,.07-.3,.2-.3,.3,0,.6,.1,.9,.1,.1,0,.2-.2,.4-.3,.3,.3,.7,.4,1,.4,.6,0,1.2,0,1.8,.4-.4,.1-.7,.1-1,0-.3,0-.7-.2-1,0-.1,0-.4,0-.6-.1-.2,0-.4-.1-.7,0s-.6,0-1,0h0v-.2Z"/>
      <path class="cls-1" d="M13.8,74.5s0-.1-.1-.3c.1,0,.2-.1,.4-.1h1.8c.2,0,.4,0,.3,.4-.7,0-1.5,0-2.3,.1h0l-.1-.1Z"/>
      <path class="cls-1" d="M27.8,72.6v-.4c.6-.4,1.2-.1,1.8,0,0,0,.2,.1,.4,.3-.7,.2-1.4,0-2.1,.1h-.1Z"/>
      <path class="cls-1" d="M27.1,74.4c.1,0,.3-.1,.4-.1h1.8v.3c-.8,.2-1.5,.1-2.3,0v-.2h.1Z"/>
      <path class="cls-1" d="M8.8,71.1c-.6,0-1.1,0-1.6-.1-.2,0-.3-.1-.2-.4,.6,0,1.2-.1,1.8,.1v.4h0Z"/>
      <path class="cls-1" d="M18.5,71.5q-.4,.4-.7,.3c-.1,0-.4,0-.5-.1h-.6c.2-.4,.5-.4,1.9-.1h0l-.1-.1Z"/>
      <path class="cls-1" d="M41.9,73.4c-.5,.1-1.1,.1-1.6,0,.6-.4,1.1-.4,1.6,0Z"/>
      <path class="cls-1" d="M24.1,76.6h1.2s.1,.2,.3,.4h-1c-.3,0-.5,0-.6-.4h.1Z"/>
      <path class="cls-1" d="M20.6,77.5c-.1,.2-.3,.4-.4,.4-.2-.1-.4-.4-.5-.5,.2-.4,.7-.4,1,0h0l-.1,.1Z"/>
      <path class="cls-1" d="M38.3,77.9v.3h-1.5v-.3h.7c.2,0,.5,0,.8-.1h0v.1Z"/>
      <path class="cls-1" d="M40,74.4c-.2,.7-.4,.7-.7,.4,0,0-.2-.1-.4-.3,.4-.4,.7,0,1.1,0h0v-.1Z"/>
      <path class="cls-1" d="M69.2,77.3c.3,0,.5-.2,.7-.3,.1,.4,0,.5-.3,.7-.2,0-.4,0-.4-.4h0Z"/>
      <path class="cls-1" d="M52.6,74h0c-.2,.4-.8,.1-1.2-.3,.1-.1,.3-.1,.4,0,.2,.1,.4,.2,.7,.4h0l.1-.1Z"/>
      <path class="cls-1" d="M28.5,77.1c-.1,.1-.2,.2-.3,.4-.3,0-.5-.2-.8-.3,.5-.1,.9-.1,1.2,0h0l-.1-.1Z"/>
      <path class="cls-1" d="M45,73.5c.5,0,.9-.1,1.3,.2-.1,0-.2,.2-.3,.2-.3,0-.7,0-1-.4h0Z"/>
      <path class="cls-1" d="M30.5,77c.4,0,.6,0,.6,.2s0,.4-.3,.4-.3-.2-.3-.6h0Z"/>
      <path class="cls-1" d="M39,73c-.3,.4-.7,.1-1,.2,0-.5,.1-.5,1-.2Z"/>
      <path class="cls-1" d="M42.9,73.8c0-.3,.2-.5,.5-.4q0,.4-.5,.4Z"/>
      <path class="cls-1" d="M65.4,74.4v.5c-.2,0-.4,0-.7,.1,0-.4,.4-.4,.7-.7h0v.1Z"/>
      <path class="cls-1" d="M19.2,74.1c.4,0,.4,.3,.4,.6-.4,0-.5,0-.4-.6Z"/>
      <path class="cls-1" d="M31.8,72.6h.9v.2c-.3,0-.6,0-.8-.2h-.1Z"/>
      <path class="cls-1" d="M29.3,77.3c0,.2-.2,.4-.6,.4s-.1-.1,.6-.4Z"/>
      <path class="cls-1" d="M16.8,78.9c0-.2,.3-.3,.6-.3,0,.3,0,.4-.6,.3Z"/>
      <path class="cls-1" d="M47.7,73.8c.2,0,.5-.1,.8-.1v.3h-.8v-.2Z"/>
      <path class="cls-1" d="M107.1,77.5c0-.4,.2-.4,.4-.5,.2,.1,.1,.3,0,.4,0,0-.3,0-.4,.1h0Z"/>
      <path class="cls-1" d="M33.5,74.1c0,.4-.1,.4-.6,.4,0-.2,.2-.33,.6-.4Z"/>
      <path class="cls-1" d="M25.5,71.9c0,.4-.2,.4-.5,.4v-.4h.5Z"/>
      <path class="cls-1" d="M36.5,72.7c0,.1,.2,.2,.3,.4-.1,.2-.3,.3-.4,.1-.1-.1,0-.3,.1-.5h0Z"/>
      <path class="cls-1" d="M19.9,78.2c-.2,.4-.5,.3-.8,.2,.2-.4,.4-.3,.8-.2Z"/>
      <path class="cls-1" d="M76.5,77.3c.3,0,.4,0,.6,.2-.4,.3-.4,.2-.6-.2Z"/>
      <path class="cls-1" d="M49.6,74.1c0-.2,0-.4,.2-.4s.3,.1,.3,.4h-.5Z"/>
      <path class="cls-1" d="M14.5,75.5c-.2,.2-.4,.2-.6,0,.2-.2,.4-.2,.6,0Z"/>
      <path class="cls-1" d="M32.4,76.4c0,.1,.1,.3,.2,.5h-.4c0-.2,0-.4,.2-.5Z"/>
      <path class="cls-1" d="M39.1,79.3c0-.33,.13-.5,.4-.5,0,.4-.3,.4-.4,.5Z"/>
      <path class="cls-1" d="M44.1,73.6c0-.4,.2-.4,.5-.4,0,.2-.2,.4-.5,.4Z"/>
      <path class="cls-1" d="M74,30.5v-.3c.2-.4,.4-.8,.1-1.2,0,0,0-.2,.2-.3,0,.4,.2,.7,.3,1,0,.4-.2,.7-.7,.8h.1Z"/>
      <path class="cls-1" d="M75.9,29.2c.1,.4,0,.5-.4,.7-.2-.4,0-.6,.4-.7Z"/>
      <path class="cls-1" d="M36.3,40.1c.3-.1,.5,0,.6,0,.1,.2,.1,.5-.1,.7-.1-.3-.3-.5-.4-.8h0l-.1,.1Z"/>
      <path class="cls-1" d="M33.5,59.6c.2,.7,.1,.9-.2,1-.1-.4,0-.7,.2-1Z"/>
      <path class="cls-1" d="M30.7,57.4c-.2,.1-.4,.2-.5,.4-.2-.2-.1-.4,0-.5,.2-.1,.4,0,.5,.1Z"/>
      <path class="cls-1" d="M37.5,30.8c0,.3-.1,.6-.5,.6-.2-.3,0-.4,.1-.6,0-.1,.2-.1,.4,0Z"/>
      <path class="cls-1" d="M24.2,36.3c0,.1,0,.3-.1,.4-.3,.4-.6,.7-1,1h-.2c.1-.5,.4-.9,.7-1.2,.2-.1,.4-.1,.7,0h0l-.1-.2Z"/>
      <path class="cls-1" d="M91.3,64.2c-.2,.3-.3,.5-.6,.5q0-.4,.6-.5Z"/>
      <path class="cls-1" d="M24.1,52.3h.6c0,.2,0,.4-.2,.4s-.4,0-.3-.4h-.1Z"/>
    </g>
  </g>
</svg>