<?xml version="1.0" encoding="UTF-8"?>
<svg id="Layer_2" data-name="Layer 2" xmlns="http://www.w3.org/2000/svg" viewBox="0 0 126.14 79.7">
  <defs>
    <style>
      .cls-1 {
        fill: #009e92;
      }
    </style>
  </defs>
  <g id="Layer_1-2" data-name="Layer 1">
    <path class="cls-1" d="M62.94,14.9s0,.1,.1,.1h-.1v-.1Z"/>
    <g>
      <path class="cls-1" d="M126.14,79.6h-6.3c-1.7,0-3.3-.1-5-.1s-2.8-.1-4.2-.1-.4,0-.5,0h-.5c-.2,0-.4-.1-.7-.1h-4c-2.1,0-4-.1-6.1-.1s-2.9-.1-4.2-.1-2.9,0-4.4-.2c-1.4,0-2.8-.1-4.2-.3h-4.3c-1.5,0-2.9-.1-4.3-.1s-2.3-.1-3.4-.1c-1.5,0-2.9-.1-4.3-.3h-6.7c-1.6,0-3.2-.1-4.8-.1s-2.4-.1-3.6-.1-2.6-.1-3.9-.1-2.8-.1-4.2-.1-2.4,0-3.6-.1c-1.3,0-2.6-.1-3.9-.3h-4.3c-1.8,0-3.6-.1-5.3-.1s-3.1,0-4.6-.2c-1.4,0-2.7-.3-4.1-.4h-.7c-1.8,0-3.6-.1-5.3-.3h-.7c-1.7,0-3.4-.1-5.1-.3H3.74c-.7,0-1.5-.2-2.2-.2H.14v-.7H.94c0-.5-.4-.7-.8-.5v-3.4c.4-.3,.9,.4,1.2-.4-.4,0-.8-.1-1.2-.2v-3.1H.14c0,.2,.1,.4,.1,.6s.3,.4,.5,.4c.1,0,.3-.3,.3-.4v-1.3c0-.3-.1-.5-.4-.5s-.3,.2-.4,.4c0,.1-.1,.3-.2,.4v-2.6c0,.1,.2,.2,.2,.4,0,.3,.3,.4,.6,.4s.7-.2,.7-.6-.1-.7-.3-1c-.2-.6-.6-1.2-.4-1.9,0-.4-.2-.4-.5-.4s-.4,0-.3-.3H1.04c.4,0,.5-.1,.5-.5s0-.7,.4-1v-.8c.2-.6,.4-1.1,.7-1.7h.1c0,.2,.2,.4,.3,.7,0,.4,.2,.5,.5,.2,.3-.2,.5-.1,.6,.1,.1,.4,.3,.8,.4,1.2,.1,.5,.7,.7,1.2,.6,.4,0,.7-.1,1,.1h.3c.4-.4,1-.6,1.5-.6h.1c.3-.4,.6-.8,.9-1.2,0-.1,.1-.3,.2-.4,.4-.5,.3-.7-.3-1l-.2-.1c.3-.2,.9-.3,.4-.9,.4,0,.9-.1,1.2-.3,.2,0,.5-.1,.7-.3,.4-.6,1.7-.8,2.2-.4,.4,.3-.1,.4-.4,.8,.1,0,.3,0,.4,.2,.4,.3,.4,.7,0,.8-.5,.2-.6,.5-.4,1.1,0,.2,.2,.5,.4,.7,0,0,.3,.1,.4,.1s.2-.2,.2-.4v-1c0-.5,.1-.7,.6-.7h.6c.5,.1,1.3-.4,1.5-.9,0-.3,.1-.7,.7-.5,.4,.1,1-.5,1-1s-.1-.9,0-1.3c0-.3,.3-.5,.5-.7-.1,.7-.3,1.3,.6,1.6-.4,.4-.5,1-.4,1.5,0,.7,0,1.4,.1,2.1,0,1.5,0,3.1,.1,4.7v7.4c0,.3,.1,.4,.4,.4s.5-.1,.8-.3c-.6-.4-.4-.8-.4-1.2v-13.7c0-.4,0-.7-.4-.8,.3-.9,1-.7,1.7-.9,2-.6,3.9-1.2,5.9-1.8,.9-.3,1.8-.5,2.7-.8,.4-.1,.9-.3,1.3-.4v-.2c-.5,0-1,.1-1.3,.2-.5,.1-1,.3-1.5,.4-1.2,.4-2.5,.7-3.7,1.1s-2.3,.7-3.5,1c-.3,0-.5,.2-.8,.4h-.4s-.2-.2-.1-.3c0,0,.1-.2,.3-.3,1.6-.5,3.2-1,4.8-1.5,2.3-.7,4.5-1.4,6.8-2.1,.6-.1,.7,0,.7,.5s0,.7,.4,.7,.7-.2,.7-.7v-1.7c0-.4-.3-.5-.7-.4-1.5,.4-2.9,1-4.4,1.4-2.9,.9-5.7,1.8-8.6,2.7h-.1c-.2,0-.4,.4-.6,0,0-.2,0-.6,.1-.9h0c.7-.2,.7-.7,.7-1.3v-2.9c0-.4,.1-.7,.5-.8,.9-.4,1.8-.7,2.6-1.1,.1,0,.2-.1,.4-.1h.4v.4c-.3,.6-.4,1.2-.1,1.9v1.6c0,.2,.2,.4,.4,.5,.4,0,.7,0,1-.4v-.3c.6,.4,1.1,0,1.7,0,.4-.1,.4-.3,.4-.7v-3.9c0-.4,.1-.7,.5-.8,1.3-.5,2.6-1,4-1.5h.4v.4c-.4,.4-.4,1-.4,1.5h0c.7,.7,.2,1.4,.2,2.1s.4,1.1,1.2,.9h.4c.3,0,.4-.2,.3-.6-.1-.6-.1-1.2-.1-1.7v-.6c0-.4,0-.8,.4-1.1,.1,0,0-.4,0-.7s0-.4,.1-.5c.1,.1,.4,.2,.4,.4s0,.5,.1,.7v1.8c0,.3,.1,.5,.5,.4,.3,0,.5-.4,.4-.7-.4-.7-.1-1.3-.1-2.1s0-.4-.2-.7c0-.1-.2-.3-.4-.4,.1,0,.2-.1,.3-.2,.3-.3,.3-.6-.1-.8-.2-.1-.4-.2-.4-.6,.3,0,.7,.1,.7-.4,0-.1-.1-.4-.3-.5-.5-.1-.4,.4-.6,.7-.3,0-.5-.1-.8-.1s-.4,.1-.4,.3,.1,.4,.3,.5c0,0,.2,0,.4,.1,.7,0,.7,.1,.8,.9h-.3c-.7-.4-1.3-.3-2,0-2.6,1-5.1,2.1-7.7,3.1-1.1,.4-2.2,1-3.4,1.5-.4,.1-.7,.2-1,.4-.3,0-.5,.2-.8,.4-.3,.1-.5,0-.5-.3,0-.4,0-.9-.4-1.2v-.4c.2-.1,.4-.3,.7-.4,.7-.3,1.4-.6,2.1-1,.5-.2,1-.5,1.4-.8h0c-.1-.1-.3-.1-.4,0-.7,.2-1.4,.5-2.1,.8-.1,0-.4,.1-.5,.3,0,0-.2,.1-.3,.1s-.4,0-.5-.1c0-.1,.1-.3,.2-.4,.4-.2,.8-.4,1.2-.7,1.4-.7,2.7-1.3,4.1-2,.2,0,.5-.1,.4-.5h-.7c-.3,0-.5,.2-.8,.4v-.8c0-.9,.1-1.8-.1-2.6v-.7c.1-.7-.1-1.2-.9-1.3-.2,0-.5,0-.7-.2-.4-.1-.4-.4,0-.7,.7-.4,1.4-.8,2.1-1.2,1.5-.8,2.9-1.6,4.3-2.5,.4-.3,.9-.3,1.4-.1,1.2,.4,2.5,.7,3.8,1.1,.7,.1,1,0,.8-.7,0-.4,.3-.8,.8-.7h.4c.3,0,.5,0,.6-.4,.2-.6,.4-1.2,.7-1.7,.4-.9,1-1.7,1.2-2.6,.2-.7,.7-1.2,.7-1.8,0-.4,.1-.8,.4-1.2,.4-.7,.6-1.4,.9-2.1,0-.1,.1-.4,.2-.5,.2-.4,.4-.9,.3-1.4,0-.4,0-.8,.6-1,.1,0,.3-.3,.3-.4,0-.4,0-.9-.4-1.2-.2-.1-.1-.4,0-.5,.4-.3,.9-.6,1.3-.8,.3-.1,.4,0,.4,.3v1.4c0,.4,.2,.7,.6,.7,.3,0,.4,.3,.5,.5,.4,.7,.7,1.2,1.2,1.8,.4,.5,.7,1,1.2,1.5,.6,.7,1.2,1.3,1.8,2.1,.2,.3,.4,.7,.6,1,0,.1,.3,.3,.4,.4,0-.1,.3-.3,.3-.4,0-.3,.1-.6,0-.9-.1-.4,0-.8,.4-1s.7-.4,1.2,0c.6,.4,.9,.7,.7,1.5,0,.1,0,.3,.1,.4,.1,.5,0,.8-.5,1-.1,0-.3,.2-.3,.3,0,.5,0,1.1,.1,1.7-.4,.1-.7,.3-.3,.7v.3c0,.4-.1,.7-.1,1.1v2.6c0,.2,.1,.3,.4,.2,.4-.1,.4-.4,.3-.8-.3-.7-.1-1,.5-1.3,0,0,.2-.2,.2-.4,0,0,0-.2-.1-.3-.4-.3-.6-.5-.4-1,0-.2,0-.4,.1-.7h1.5c2.9-1.3,5.9-2.7,8.9-4.1,3.4-1.6,6.9-3.1,10.3-4.8,.2,0,.4-.1,.6-.3,.5-.4,1-.3,1.5,0,1.4,.7,2.9,1.5,4.2,2.3,1.7,.9,3.4,1.8,5.1,2.7,.5,.2,1,.5,1.5,.7,.3,0,.7,.1,1,0,1.9-.7,3.7-1.4,5.6-2.1,.4-.1,.7-.4,.6-1,0-.7,.1-1.3-.3-1.9v-2.1c0-.3-.2-.4-.5-.3-1.6,.7-3.1,1.4-4.8,2.1-1,.4-2,.9-3,1.2h-.3v-.3c0-.1,.3-.2,.4-.3,3.8-1.6,7.6-3.2,11.4-4.8,.7-.3,1.3-.5,2-.8-.1,.8-.4,1-1.1,1.2-.7,.1-1.3,.4-1.9,.7-.2,0-.4,.3,0,.4,.5,.2,.7,.7,1,1.2-.4,.5-.4,.7,.1,1.2,.4-.5,.8-1,1.2-1.5,.5-.8,1-1.6,1.5-2.4,.4-.6,.8-1.2,1.2-1.8,.1-.1,0-.4,.1-.7v-1.4h-.6c-.2,0-.3,.3-.4,.5-.3-.5-.2-.8,.1-1,.5-.3,1-.3,1.5,0,.7,.4,1,1,.9,1.8-.1,.9,.2,1.6,.5,2.3,1.1,3.1,2.1,6.2,3.2,9.2,.1,.4,.1,.8,.8,.5,.5-.2,1.3,.7,1.2,1.2,0,.2,0,.5,.1,.7,.2,.2,.4,.1,.7,0,.1-.1,.4-.3,.5-.3,.4,0,.5-.4,.5-.7v-2.7h.1v3.4c.1,.5,0,.7-.5,.8h-.3c-.1,0-.3,.2-.4,.4h.5c.2,0,.5-.1,.7,0,.3,0,.6,.1,.7,.5h-1.4c-.4,0-.9,.2-1.4,.4v-.4c0-.3-.2-.5-.5-.4-.7,.2-1.3,.5-1.9,.7-.3,0-.5,.2-.8,.2-.7,0-1.4,.4-2.1,.7-.4,.2-1,.2-1.4,.4-.7,.1-1.3,.3-1.8,1-.3,.4-.7,.4-1.1,.3-.6-.2-1,0-1.2,.6,0,0,0,.1-.2,.3-.1-.4-.3-.8-.3-1.2s-.1-.5-.4-.7c-.4-.2-.7-.4-.9-1,0-.4-1-.4-1.2-.1v.4l.4,.2c-.1,.1-.3,.3-.4,.4-.3,.1-.4,.4-.3,.7,0,.1,.4,.3,.6,.2,.4,0,.4,.1,.4,.4v1.2c0,.4,0,.2-.1,.3h-.4s-.1-.2-.2-.4c0,0-.1,0-.2,.1,0,0,0,.3,.1,.3,.5,0,.6,.4,.7,.7,.4,.5,.5,.5,1,0,.4-.4,.8-1,1.2-1.4h.2c.4,0,.9-.1,1.3-.1h1.3c-.1-.8,0-.9,.7-.9h1.2v-.4c0-.1-.1-.3-.2-.4,.1,0,.4-.1,.5-.1,.5,0,1,.1,1.5,.1s.6,0,.9-.1h0c0,.2-.1,.3-.3,.4s-.5,.3-.9,.5l-.4-.2h-.4c0,.1,0,.4,.1,.4,.4,.2,.6,.4,.2,.8-.3,.3,.1,.4,.4,.5-.1,0-.2,.2-.4,.2h-.4c-.1,0-.4,.1-.4,.2s0,.3,.2,.4c.6,.5,1.8,.5,2.5,0,.1,0,.5-.1,.5-.1,.1,.3,.5,.5,.3,.9-.4,.7-.2,1.2,.4,1.6,.5,.3,1,.6,1.4,.9h.4c0-.1,0-.3-.1-.4-.2-.3-.4-.6-.7-1v-.2c0-.3,.1-.6,.3-.9,.4,0,.8,.2,.9,.7,0,.2,.1,.4,.3,.6s.6,.3,.7,0c.1-.4,.9-.7,.6-1.2,0,0,0-.2,.1-.3,.3-.2,.3-.4,0-.7-.2-.2-.5-.5,0-.8v-.3c-.2-.1-.5-.4-.7-.4-.1,0-.4,.2-.5,.4v.8c0,.2,.3,.4,.4,.5-.6,.4-1,.4-1.5-.1,0,0,0-.1,.1-.2,.4-.4,.4-.6,0-.9,0,0-.2-.3-.1-.4,0-.1,.1-.3,.3-.4l.4,.2s0,.1,.1,.2c.4-.2,.7-.4,1-.7h0c-1-.3-1.4-.9-1.5-1.8,0,.1,.2,.2,.3,.4,0,0,0,.3,.2,.4,.5,.4,.8,.4,1-.3,0-.2,0-.5,.1-.7,.6,.3,.7,1.3,0,1.9,1,.3,.7,1.2,1,1.8,.1,.2,.1,.6,.1,.9s.2,.6,0,.9v.4c.4,.6,.7,1.2,.5,2h0c.4,1,.3,1.8,.5,2.6,.1,.5,.2,.7,.8,.7h5.3c.4,0,.8,0,1.3,.1-.1-.2-.1-.4-.3-.6-.7-.9-1.5-1.8-2.1-2.7-.4-.5-.7-1-1.2-1.4,.5-.4,.4-.8,.1-1.2-.4-.5-.7-1-1-1.5v-.4c.1,0,.3-.1,.4,0,.4,.1,.6,0,.7-.3,0-.1,.3-.1,.5-.2,0,.1,.1,.3,.1,.4,0,.67,.3,1.07,.9,1.2,.4,.1,1,.4,1.4,.5,.3,0,.4,.3,.4,.6-.1,.9,.1,1.8,.4,2.6,0,0,.3,.1,.4,.1,.3,0,.5-.1,.8-.1s.4,.1,.2,.4c-.4,.7-.7,1.3-1,2.1v.4c.1,.3,.4,.5,.4,.8,.3,.9,1.2,1.3,2.1,1,.1,0,.2-.4,.2-.5s0-.2-.1-.4c.8,0,.8-.6,.7-1.1v-2c0-.1,0-.4-.2-.5,0,0-.3-.1-.4-.1s-.2,.2-.2,.4v1.8c0,.4-.1,.9-.1,1.2h-1s-.1,0-.1-.1v-.2h.4c.2,0,.4,0,.4-.4v-2.6c0-.7-.2-1.2-.4-1.9,0-.2-.2-.4-.4-.7,.3-.3,.2-.7,.2-1.1v-2.5c0-.4-.2-1-.7-1.2-.4-.2-1.1-.1-1.4,.2,0,0-.1,.1-.1,.2,.1,.7,0,1.4,0,2.1,0,.1,.1,.2,.2,.4v.4c-.1,.4,0,.5,.4,.4h.3c-.2,.4-.7,.4-1,.4s-.4-.3-.4-.4c0-1-.4-1.9,.1-2.8,0-.1,0-.4-.1-.4-.2-.2-.1-.4,0-.7h2.5c0-.1,0-.4-.1-.4-.4-.4-.8-.7-1.2-1-.3-.2-.4,0-.6,.2-.1,.2-.3,.5-.4,.7h-.1c-.1-.2-.3-.5-.4-.7,0,0,.1-.2,.2-.4,0-.1,.2-.2,.3-.4-.1,0-.3-.1-.4-.2-.2,0-.4-.1-.6-.2,0-.1,.2-.4,.3-.5,0-.2,.2-.4,.3-.6v-1c0-.4,0-.8,.4-1.2,.2-.2,.2-.7,.2-1,0-.7,0-1.2,.4-1.8h1c.4,0,.7,.3,.7,.7v2.5c.5,.6,.4,1.3,.4,2s.1,.6,.3,.8c.2,.3,.3,.6,.1,.9-.7,1.5-.5,3.1-.5,4.8v1.8c0,.4,.1,.7,.4,.9,.9,.6,1.8,1.2,2.6,1.8,.33,.27,.4,.6,.2,1v.2c0,1,.1,2.1,.2,3.1,0,.5,0,1,.1,1.5v.7h.1c0-.1,.2-.3,.2-.4,0-.4,.2-.7,.7-.7v35.2c-1.1,0-2.2,.1-3.3,0-1.4,0-2.7,.4-4,.4s-3,.2-4.5,.4h-23.4c-.5,0-1.1,0-1.5-.1-.7-.2-1.3-.2-2-.2h-1.6c-.7,0-1.3-.1-2-.2h-2.4c-1.6,0-3.3,.3-4.9,.4h-.4c-.7-.1-1.5-.3-2.2-.4h-1.8c-1,0-1.9-.1-2.9-.1-1.8,0-3.6,.1-5.3,.1s-1.5-.1-2.2-.1h-6.1c-.8,0-1.5-.1-2.3-.2h-3.9c-1.4-.1-2.7-.1-4.1-.2-1.9,0-3.7-.1-5.6-.2-.4,0-.9-.1-1.3-.2h-.4c-.8,0-1.6,.3-2.4,.1-1-.2-2.1-.1-3.1-.2h-1.5c-1.1,0-2.1-.1-3.2-.1h-3.8c-.2,0-.5-.1-.7,0-1.1,.3-2.1,0-3.2,.1-.5,0-1,0-1.4-.3h-.4c-.9,0-1.8,0-2.7,.1-1.1,.1-2.1-.2-3.2,0-1,.2-2.1,0-3.1,0h-.3c-.1,0-.3,.2-.4,.3,.1,0,.2,.3,.4,.3,1,0,2.1,.1,3.1,.2,1.9,0,3.7,.1,5.6,.2,1.6,0,3.2,.1,4.8,.1s3.1,.1,4.8,.1,2.4,.1,3.6,.1,3.1,.1,4.5,.1h2.9c1.2,0,2.3,.1,3.4,.1s2.6,.1,4,.1h7.1c1.8,0,3.7,.1,5.5,.1h7.3c.4,0,.8,.1,1.2,.2,.5,0,1,.1,1.5,.2h4.3c1.1,0,2.2,.2,3.3,.3h1.2c.4,0,.8,0,.9-.4,0-.4,.3-.5,.7-.5h5.3c.1,0,.4,.1,.4,.3s.2,.4,.4,.3c.1,0,.2,0,.4,.1,.3,0,.7,.2,1,.2h18.5c1,0,1.8,.4,2.8,0h0c1.4,.3,2.7,.2,4.1,0,.6,0,1.1,0,1.7,.1h.7c1,0,2.1-.1,3.1,0,.9,0,1.8,.1,2.6,.2h.8c.4,0,.9,.1,1.2,.1,1.5,0,3,.1,4.5,.2v1.7l.4,.4,1.2-.1Zm-15.7-30.3c-.3,.2-.5,.4-.7,.6v.6c0,.4,.5,.7,.8,.4,.5-.5,1-.4,1.5,0,.4,.2,.7,0,.7-.4v-7.5c0-.6,.1-.7,.7-.7h2.6c.6,0,.8,.1,.8,.8v7.6c.1,.3,.6,.4,1,.3,.3,0,.3-.4,.3-.6v-8.6c0-.7-.1-.9-1-.9h-5.7c-.7,0-1.4,0-2.1,.2-2.3,.4-4.7,1-7,1.5l-5.5,1.1c-1.3,.2-2.6,.5-4,.7-1.2,.2-2.6,.5-3.8,.7s-2.3,.4-3.4,.7c-.7,.1-1.2,1-1.2,1.5s0,.4,.4,.4,.4,.1,.4,.5v5.5c0,.4,.2,.7,.6,.8,.4,0,.7-.3,.7-.8v-6.2c0-.4,.1-.6,.5-.7,.6,0,1.2-.2,1.8-.3,.4,0,.5,.1,.5,.4s-.1,.7,0,1.1c.2,1,0,1.9,0,2.9v2.3c0,.2,.1,.4,.3,.5s.4,0,.5,0c.1-.1,.1-.4,.1-.6v-6.4c0-.3,0-.4,.4-.5,.7-.1,1.4-.3,2.1-.4,.4,0,.5,0,.5,.5v6.2c0,.7,.1,.9,.9,.7,.9,0,1.8-.2,2.6-.4,.9,0,1.7-.2,2.6-.3h.9c.7,0,.8,0,.8-.7v-6.9c0-.4,.1-.7,.6-.7,.7-.1,1.5-.3,2.2-.4,.7-.1,.7,0,.7,.6v7c0,.3,0,.5,.4,.5s.7-.3,.7-.7v-7c0-.4,0-.7,.4-.7,1-.2,1.8-.4,2.8-.5,.4,0,.5,.1,.5,.4v2.9c0,.7,0,1.4,.1,2.1,0,.4,.1,.7,.5,1h0c0,.1,.1,0,.1,0l.4-.1Zm-39.8-7.4s-.2,0-.3-.2c-.3-.4-.1-1.4,.2-1.5,.2,0,.5-.2,.7-.4v2.1q0,.7-.6,.8h-.4c-.4,0-.7,.3-.6,.8v1.5c0,.4-.1,.7,.2,1.1s.7,.2,1.1,0c0,0,.3,.1,.3,.2,0,.7,.1,1.3,0,2,0,.5,.2,.9,.7,.7,.1,0,.4-.1,.5-.1h.4c0,.1-.1,.1-.1,.2,0,.2-.2,.4-.2,.7s.2,.2,.4,.2c.3,0,.3-.3,.4-.5,0,0,.2-.1,.3-.3,0,.1,.3,.2,.3,.4v.7c0,.3-.1,.4-.4,.2-.1,0-.4-.2-.5-.1-.4,.1-.7,0-1-.2-.3-.1-.5,0-.5,.4s0,.7,.6,1c-.1,0-.2,.2-.3,.2h-.7s-.2,.1-.3,.2c0,0,.2,.1,.3,.1h1.6c.4-.1,.9-.4,1.4-.7v1.4c0,.8,0,1.5,.1,2.3,0,.3-.6,.9-.9,.9s-.5,.1-.8,.1h-.2c-.3-.1-.6-.8-.5-1.1,0,0,.1-.1,.3-.2,.3-.1,.7-.3,.9-.5,.4-.4,.6-.8,.9-1.2,.1-.1,.1-.3,0-.4-.5-.3-1.8,0-2.1,.4-.2,.2-.4,.4-.8,.4-.7,0-.9,.2-.9,1v2.1c0,.4,.2,.5,.6,.5h.7c.4,0,1,.5,1,.7-.6,0-1.1-.1-1.7,0-.2,0-.5,.3-.5,.4v2.9c0,.1,.3,.4,.4,.4,.4-.1,1,.2,1.2-.4,.1-.4,.1-.8,0-1.2-.1-1.2,.1-1.5,1.2-1.8,.1,0,.2-.1,.4-.3-.8-.1-1-.4-.8-1,.4,.2,.9,.2,1.2-.3h.6s.1,.3,.1,.4v1.4c0,.3,.2,.5,.1,.9v.8c0,.5,.2,.7,.8,.4-.1-.1-.3-.2-.5-.4h.3c.6,0,.7-.2,.5-.7v-.4c0-.3,0-.4-.3-.4h-.3c0-.6,0-1.1-.1-1.6,.1,0,.2,.2,.2,.4,.1,.5,.4,.7,1,.4-.7-.8-.3-1.4,.6-2-.2-.1-.4-.2-.6-.4,.6-.4,.4-.8,.4-1.2s0-1,.1-1.4v-.6c0-.3-.2-.5,0-.7s.5,0,.7,0c.4,.1,.7,.3,1.2,.2,.4,0,.7,0,1.1,.1,.3,.1,.5,0,.5-.3,0-.4,0-.9-.1-1.3,0-.2,.1-.5,0-.7-.2-.2-.4,0-.7,.1h-.4c-.3-.3-.4-.2-.7,.1,0,0,0,.1-.1,.3-.1-.4-.2-.7-.4-1-.4-.4-.7,0-1,.4v-1c.1-.1,.5,0,.8,0,.9,.1,1.8,.4,2.6,.5h.9v-.2c-.3-.1-.6-.3-1-.4-1-.2-2.1-.4-3.1-.7-.1,0-.4-.3-.4-.5v-8.6c0-.4-.2-.7-.7-.8-.3,0-.7-.1-1-.3-.7-.2-.8-.1-.8,.6h0c0,.3-.1,.4-.2,.6h-.3v-.8h-.4c-.1,.1-.3,.4-.4,.5-.2,0-.6-.3-.7-.2-.6,.4-1.2,.4-1.9,.7-.2,0-.4,.4-.4,.6v2.7c0,.9,.2,.4,.4,.6,.3,.1,.5,0,.7-.4v-.4l-.3,.1Zm1-18.2c-.1,.7-.4,1.1-1,1.3-.4,0-.7,.2-1,.4-.1,0-.3,.3-.4,.4v1.9c0,.7,.2,.6,.7,.4,.4-.1,.7-.3,1-.4h.4v.4c0,.1-.2,.2-.4,.2-.3,.1-.7,.1-1,.4-.1,0-.3,.3-.4,.4v1.8c0,.3,.1,.4,.4,.4s.6-.1,.8-.3h.6c.1,.1,.4,.2,.5,.1,.5-.1,1.1-.3,1.6-.4h1c2.3,.9,4.7,1.8,7,2.6,.2,0,.4,0,.7,.1h0c-.2-.3-.5-.4-.7-.5-1.3-.6-2.6-1-3.9-1.7-.5-.3-.7-.6-.8-1.2,0-.5-.4-1,0-1.5,0,0,0-.3-.1-.4v-.3c.4-.3,.4-.7,.4-1.1,0-.5,.1-1,0-1.5,0-.2-.4-.4-.5-.7,0-.1,0-.4-.1-.6h.5c1,.4,2,.9,2.9,1.3,1.2,.5,2.3,1,3.5,1.6,.2,.1,.5,.4,.5,.7,0,1.2,.1,2.5,0,3.7,0,.9-.1,1.7,0,2.5,0,.4,.1,.6,.5,.5,.4,0,.2-.4,.2-.6v-1.1c0-.3,0-.5,.2-.7v.5h.1v-.5c-.1-.5-.3-1-.4-1.5,0-.3-.2-.7,.1-.9,.4-.2,.2-.4,0-.7,0,0-.2-.3-.2-.4v-.9h0c.1-.3,.4-.4,.4-.5s-.2-.3-.4-.4-.4-.2-.6-.3c-.6-.4-1.2-.7-1.8-1.1h-.1c-.5-.1-1-.3-1.5-.5-.6-.3-1.2-.7-1.8-.9-.4-.1-.7-.4-1-.4h-.1c-.1,0-.4-.2-.5-.3s-.3-.1-.4-.2c-.1,0-.3-.1-.5-.2-.5-.2-1-.5-1.5-.7-.2-.1-.4-.2-.7-.2h-.6c-.3-.1-.6,0-.7,.2s-.4,.3-.7,.3-.4,0-.6,.2c-.1,.2-.4,.3-.6,.3s-.5,0-.7,.3c-.1,.2-.3,.3-.6,.2-.1,0-.4,0-.7,.1-.2,0-.4,.2-.6,.2-.3,0-.4,0-.7,.4,0,.1-.4,.2-.5,.2-.3,0-.4,0-.7,.2,0,.1-.3,.2-.4,.2-.6,0-1,.7-1.6,.5h0c-.1,.5-.5,.3-.9,.4-.3,0-.5,.3-.8,.4-.5,.2-1.1,.4-1.6,.6l-.1,.1c-.1,0-.2,0-.4,.1-.5,.2-1.1,.4-1.5,.6-.4,.3-1,.2-1.4,.7h-.6c-.4,.2-.8,.5-1.2,.6-.7,.1-1.2,.4-1.8,.8h-.2c-.4,0-.6,.2-.6,.5s.2,.4,.4,.7c-.4,.8-.5,1.7-.3,2.4,0,.9,.1,1.5,.2,2.1,0,.5,.2,1-.1,1.5v.4c.4,0,.7,0,1.1-.1v-4c0-.9,0-1.8-.1-2.7,5.6-2.1,11.1-4.5,16.8-6.6l.2-.2,.4,.4Zm-30.5,31.1c-.1-.1-.1-.2-.2-.3-.3-.6-.4-.6-1-.4-.4,0-.8,.1-1.2,.2-.6,0-1.1,.4-1.1,.8v1c0,.4,.3,.5,.6,.5,1.4-.2,2.7-.4,4.1-.7,2.1-.4,4.2-.7,6.4-1.1h.6c-.1,.2-.2,.4-.3,.4-.1,.1-.1,.3,0,.5,.5,.4,.4,.8-.2,1.1-.3,0-.4,.2-.4,.6v1.7c0,.3,0,.4,.4,.5,.5,0,.6,.2,.6,.7h-.1c-.7-.1-.8,0-.8,.7v2.1c.4,.1,.7,.3,1.1,.4,0,0,.2-.3,.4-.5h0c.5,.4,.7,1,.2,1.5-.1-.2-.2-.4-.4-.7-.1,.2-.1,.4-.2,.5,0,.3-.2,.4-.6,.3-.4,0-.7-.1-1.1,0-1.6,0-3.2,.2-4.8,.4-1.5,0-2.9,.2-4.4,.3-.8,0-1,.1-.9,1,0,.4,.1,.5,.6,.4h1c.5,0,1,.1,1.5-.1h1.7c.7,0,1.5,.1,2.2-.1h.3c.7,0,1.4,0,2.1-.1,.7,0,1.5-.1,2.2,0,.5,0,1,.1,1.5,.1s.7-.1,.6-.7v-.5c.3-.4,.2-.8,0-1.2-.2-.2-.4-.5,0-.7,0,0,.1-.1,.1-.2v-1.1c0-.7,.2-1.5,0-2.1v-.7c-.4-.5-.1-1.1-.2-1.6-.1-1.8,0-3.5-.1-5.3v-2.1c0-1.9-.1-3.9-.1-5.8v-.5c0-.3-.3-.4-.5-.3-.7,.3-1.5,.6-2.1,.9,0,0-.2,.2-.2,.4v2.1q0,.7,.7,.7c.3,0,.4,0,.4,.4v3.4c0,1.1-.1,.6-.5,.7-1.2,.2-2.3,.5-3.6,.7-1.5,.3-3.1,.7-4.7,1-.7,.1-1.5,.3-2.3,.4-.1,0-.2,.2-.3,.3,.1,0,.3,.2,.4,.2,.4,0,.8,0,1.2-.1,1.6-.3,3.2-.7,4.8-1,1.5-.3,2.9-.6,4.4-.9,.3,0,.5,0,.5,.3h-.1c-.5-.1-1,0-1.3,.4h-.4c-.3-.1-.5-.1-.7,0-.1,0-.4,.1-.6,.1-.4,0-.6,.1-.7,.5,0,.2-.1,.4-.3,.7h0v-.3c0-.5-.4-.7-1.1-.4-.5,.2-1.1,.2-1.7,.3-.4,0-.7,.1-.7,.5,0,.1,0,.3-.2,.6v-.5l-.5-.3Zm34.1-17.6c.9,0,1.1-.3,.9-.9,0,0-.1-.1-.1-.2v-.6c.1-.1,.4-.2,.6-.1,.4,0,.7,.2,1.2,.4,1.8,.6,3.5,1.2,5.3,1.7,.4,.1,1,.1,1.4,.1s.3-.3,.3-.4-.1-.4-.3-.4c-.7-.3-1.5-.5-2.1-.8-.6-.2-1.1-.5-1.7-.7-.3-.1-.6-.1-.9-.2-.4-.1-.9-.4-1.4-.6-1.1-.4-2.3-.7-3.3-1.2-.7-.4-1.4-.3-2.1,0-2.9,.9-5.6,1.8-8.5,2.7-2.1,.7-4.1,1.4-6.2,2-1,.2-1.8,.5-2.8,.8-.6,.2-1.2,.6-1.7,.9-.3,.1-.4,.7-.1,1,.3,.4,.5,.1,.7,0,.7-.5,1.6-.4,2.4-.8,.7-.3,1.5-.3,2.2-.5,.4,0,.7-.4,1.1-.5,1-.4,2.1-.4,3.1-.8,1.1-.4,2.3-.7,3.4-1,1.6-.5,3.2-1,4.8-1.5,.4-.1,.6,0,.7,.3v.6c0,.1-.2,.2-.3,.4,0,.1-.1,.4,0,.5s.4,.2,.6,.1c.4,0,.9-.3,1.4-.4h.4c.4,.1,1,.4,1.2,.4h0l-.2-.3Zm-22.1,29.3c-.2,0-.3-.1-.4-.2h-1.8c-1,0-2.1,.1-3.1,.1h-1.5c-.5,0-1,.1-1.5,.1h-2.2c-1.5,0-3.1,.1-4.7,.2-.5,0-.7-.1-.7-.7v-3.2c0-.7,.1-1.5,.1-2.2v-1.9c0-.7-.2-1.5-.2-2.2v-4.9c0-.2,0-.4,.1-.7,0-.3,.1-.6,.1-.9,0-.9,0-1.7-.2-2.6,0-.3-.1-.7-.4-.8-.5-.3-1.2,.2-1.2,.9v18.8c0,.4-.4,.8,.2,1.2-.4,.1-.5,.4-.5,.8v1.8c0,.47,.23,.67,.7,.6,.1,0,.3,0,.4,.1v.3c-.1,.3-.2,.7-.7,.5-.1,0-.4,0-.5,.2v.4h.6c.4,0,.7-.1,1,.2l.4,.1s.1-.3,.1-.4v-.8c-.2-1,.2-2.1-.2-3.1,0,0,.1-.3,.3-.3h1c.4,0,.5,.1,.4,.5v3.4c0,.4,.1,.5,.5,.6,.3,0,.5-.1,.4-.4,0-1,0-2.1-.2-3.1,0-.4-.1-.7,.3-1-.4-.1-.7-.3-1.1-.4,.3,0,.5-.1,.7-.2,1.2-.1,2.5,0,3.7-.4h2.1c.4,0,1,.3,1.4,0,.7-.3,1.2-.1,1.8-.1h3.7c.3,0,.7,.1,1-.3v-.2l.1,.2Zm-11.9-34h0c.4,0,.8,0,1.2-.3,1-.4,1.8-.8,2.8-1.2,1.3-.6,2.6-1.1,4-1.7s1-1.5,.7-2.1c0,0-.1-.1-.2-.2-.4-.1-.4-.4-.2-.7,0,0,.1,0,.2-.1,0-.2,0-.4,.1-.6h-.7c-1.7,.8-3.4,1.6-5.1,2.4-1.5,.7-3.1,1.4-4.5,2.1-1,.4-2,1-2.9,1.4-.2,.1-.6,.3-.4,.6,.1,.4,.4,0,.7,0,.4-.1,.7-.2,1,.2-.4,.4-.8,.6-1.2,.7-.1,0-.4,0-.5,.2-.2,.2-.1,1.2,.1,1.4,.3,.3,.7,.1,1,0,1.1-.5,2.2-1,3.2-1.4,.2,0,.4-.3,.7-.4-.1-.1-.4-.3-.4-.4-.1-.2,0-.5,.2-.4,.4,.1,.7,0,1-.3,.1-.1,.4,0,.5-.1,.3-.5,.7-.6,1.2-.7h.4c0,.1,0,.4-.2,.4-.4,.2-1,.4-1.4,.6s-.9,.4-1.2,.8h0l-.1-.2Zm7.3,2.2h0c-.1,.1-.4,.3-.4,.4-.2,.1-.5,.4-.5,.5v1.7c0,.3,.2,.4,.4,.4,.7-.1,1.2-.3,1.9-.5,.3,0,.7-.1,1-.2,.6,0,.7-.3,.6-.9v-5.9c0-.3,0-.7-.4-.7-.4-.1-1,0-1.2,.2-.1,.1-.4,.4-.6,.4-1.9,.9-3.8,1.7-5.7,2.5-2.3,1-4.8,2-7.1,3-.5,.2-.7,.5-.7,1v4.8c0,.3,.1,.5,.5,.4,.4,0,.4-.3,.4-.6v-4.5c0-.4,.1-.6,.5-.8,2-.8,3.9-1.6,5.9-2.4,1.7-.7,3.3-1.4,5-2.1h.4c0,.1,0,.4-.1,.4-.1,.1-.4,.2-.5,.3-.4,.1-.6,.4-.6,.8v1.1c0,.6,.1,.7,.7,.5h.4v.2h.1Zm-15,33.7c-.1,0-.3-.1-.4-.1s-.2-.2-.4-.2c-.3,0-.6,0-.9,.2v.4c0,.4,.4,.4,.7,.4h1c.3,0,.4,0,.4-.4v-.4c.2-.4,.4-.8,.2-1.2,0-.4-.2-.7-.2-1.2v-17.1c0-.4-.2-.6-.6-.4-.7,.1-.7,.3-.7,1v1.9h-.1c-.1-.2-.3-.5-.5-.7-.1-.1-.4-.3-.7-.3s-.7,.1-1,.3c-.2,0-.4,.3-.6,.5h0c1-.4,1.5,0,2,.7h0c.4,.1,.4,.6,.6,1v.7c0,.3,.1,.6-.3,.6s-.2,.1-.2,.3c0,0,0,.2,.1,.3q.6,.4,.2,1c-.1,.3-.2,.5,0,.7s.2,.4,0,.6c-.3,.2-.3,.4,0,.7,.3,.1,.3,.4,.3,.7v5.4c0,.4,0,.6-.5,.7-.4,0-.7,.1-1.1,.3-.4-.4-.9-.1-1.4,0-.4,.1-.2,.7-.3,1h0c0,.6,.1,.9,.5,1s.6,0,.8-.2c.3-.2,.6-.4,1,0,.3,.2,.5,.2,.7,0,0,0,.1,0,.2-.1,.3,.5,.1,.8-.4,.8h-.5c-.1,0-.4,0-.5,.1v.2c.1,0,.4,.1,.5,.1h1.4c.5,0,.6,0,.5,.7h.2Zm67.7-14c-.2-.2-.4-.4-.5-.5,0,0,0-.1-.1-.2-.1,0-.3-.3-.4-.3-.7,0-1.5,0-2.3,.2-1.1,.1-2.2,.4-3.3,.5-.8,0-1.7,0-2.5,.3-1.2,.2-2.4,.3-3.7,.4-.4,0-.9,0-1.3,.1s-.6,.4-.3,.8c.4,.6,.6,.6,1.1,.1h.2v.6s-.3,.1-.5,0c-.4,0-.7,0-1,.3-.2-.1-.4-.4-.6-.5v-.6c0-.3-.3-.4-.6-.4s-.8,.4-.8,.7v1.5c0,.3,.1,.4,.5,.4,.4-.1,.8-.3,1.2-.4,.5,0,1-.2,1.5-.2h1.9c.6,0,1.2-.3,1.8-.3s1.5-.2,2.1-.7c.3-.2,.7-.4,1-.6,.4-.4,1-.4,1.5-.6,.7-.1,1.4-.3,2.1-.3s.4,0,.7-.1c.3-.2,.4,0,.6,.1,.1,.2,.4,.4,.7,.4,.4,.1,.8,.1,1.2,.2,.4,0,.7,.2,1.1,.3s.6-.1,.7-.5c.1-.3,0-.4-.3-.6-.2-.1-.4-.4-.6-.5,0,0-.1,0-.2-.1-.1-.1-.3-.2-.4-.4,0,0-.1-.1-.2-.1s-.2,0-.2,.2v.3c.3,.3,.2,.4,0,.5h-.1Zm-27.3-38.3h-.3c-.8,.4-1.7,.7-2.5,1.1-.3,.1-.5,.3-.8,.4-1.1,.5-2.1,1-3.2,1.5-.2,0-.4,.4-.6,.4-.7,.3-1.5,.5-2.3,.8-3.2,1.4-6.4,2.9-9.7,4.3-.4,.1-.7,.4-1,.7v.4h.4c.2,0,.4-.3,.6-.4,1-.4,2-.7,3-1.2,1-.4,1.9-.9,2.9-1.2,1.2-.4,2.3-1.2,3.7-1.6,1-.3,2-.9,2.9-1.3,.5-.2,1-.6,1.5-.8,.9-.4,1.7-.8,2.6-1.2,.7-.3,1.5-.6,2.3-.9,.3,0,.7-.1,.9,0,1.5,.7,2.9,1.4,4.3,2.1,1.3,.7,2.6,1.4,3.9,2.1,.7,.4,1.4,.7,2.1,1h.4c0-.1,0-.4-.1-.5-.2-.2-.4-.3-.7-.4-1.4-.7-2.8-1.5-4.2-2.2-2-1-3.9-2.1-5.9-3.1-.1,0-.3,0-.4-.1h.1l.1,.1Zm-3.7,33.8c-.4,0-.8,0-1.1,.1-.5,.1-.9,0-1.3-.1h-1.3c-.4,0-.2,.2-.2,.3,0,.4-.1,.7-.2,1.1,0,.1-.1,.2-.2,.3,0,0-.3-.1-.3-.2,0-.3,0-.6-.1-.9,0-.4-.2-.5-.6-.4-.3,.1-.6,.2-.9,.3h-.5c-.6,.4-1.2,.1-1.8,.2-.5,0-.7,.1-.7,.7v.7c0,.1-.1,.2-.2,.4,0,0-.2-.2-.2-.3-.1-.4-1-1.1-1.2-1h-1c-.3,0-.7,.1-.6,.6h-.3c-.4-.5-1-.1-1.4,0-.7,.1-.4,.8-.4,1.2s0,.7,.4,.7h.7c.7-.1,1.4-.3,2.1-.4,1-.1,1.9-.2,2.9-.4,.5,0,1-.2,1.5-.2,1.2-.1,2.3-.7,3.6-.7h.1c1-.1,1.9-.3,2.9-.5,.4,0,1-.2,1.4-.4,.1,0,.2-.3,.2-.4v-.9c0-.3-.2-.7-.5-.8-.4,0-.4,.3-.5,.5v.2h-.1l-.2,.3Zm22.7-15.5c.3-.4,.6-.7,1-1,.5-.4,1.2-.7,1.9-.4,.6,.2,.8,.7,.9,1.3,0,.1,.1,.3,.2,.4,.3,.3,.2,.7,.1,1-.1,.4-.4,.7-.5,1v.3c0,.3,.1,.5,.2,.8v1c0,.2,.3,.4,.4,.5,.1,0,.4-.2,.5-.4,0-.3,.1-.6,.1-1v-3.4c0-.7,.2-1.3,.6-1.9,.6-.8,1.8-1.5,2.8-.7,.2,.1,.4,.3,.7,0,.2-.2,.6-.4,.4-.8-.2-.4-.4-1.1-.8-1.3s-.8-.4-1.2-.6h-.2c-.1,0-.3-.1-.4-.2-.4-.2-.7-.5-1-.7-.6-.3-.9-.2-1.3,.3-.2,.2-.4,.4-.7,.2s-.6,0-.8,.2c-.4,.6-1,1.2-1.4,1.8-.5,.6-1,1.2-1.6,1.8-.5,.6-.6,1.3,0,1.9h0l.1-.1Zm15.2,19c.4,.3,1.2,.2,1.5-.1s.7-.5,1.2-.7c.3-.1,.5,.1,.5,.4s0,.7-.4,.6-.5,.1-.7,.4c0,.1-.1,.2-.2,.4s-.1,.3-.2,.6h1.8c1,0,1.9-.1,2.9-.1h1c.7,0,1.4,.1,2.1,.1s.6-.1,.6-.6v-2.1c0-.1-.2-.3-.4-.4h-5.6c-.7,0-1.4,.2-2.1,.1-.4,0-.6,0-.7,.4-.1,.3-.4,.4-.5,0-.1-.3-.4-.3-.7-.2-.4,0-.7,.1-1.1,.2-.4,0-1,0-1.4,.2-.2,.1-.6,.1-.9,.1-.4,0-.7-.1-.9,.2h-1.5c-.1,0-.4,.3-.3,.4,0,.1,.2,.4,.4,.4h1.3c0,.5,.5,.4,.8,.5,.6,.1,.5,.1,.7-.4,0,0,.1-.1,.3-.2,0,0,.1,.2,.1,.3-.1,.4,.1,.5,.3,.5s.4-.1,.5-.3c.1,0,.2-.3,.4-.3,.47,0,.8-.2,1-.6,0-.1,.2-.2,.3-.3h0c0,.2-.1,.4-.1,.4h0v.1Zm-54.3-8.8h.1c0,.2-.2,.5-.1,.7,0,.2,.3,.4,.5,.6-.5,.1-.6,.4-.4,.8s0,.6-.2,.9c-.4,.4-.3,.6,.2,.7h.3c.1,0,.3,0,.3,.1v.4c0,.1-.2,.1-.4,.2-.3,.1-.4,.4-.2,.7,0,.2,.1,.4,.2,.7,0,.3,.2,.7,.4,1.1,0,.2-.3,.6-.4,1,0,.4,.1,.9,0,1.4,0,.2,.1,.5,0,.8v.7c-.4,.7-.3,1,.4,1.1-.4,.5,0,.7,.4,1.1-.2,0-.4,0-.5,.1-.2,0-.5,0-.5,.1v.6c.1,.4,.4,.7,.5,1-.1,0-.2,.1-.4,.2,.1,.2,.3,.4,.3,.5v1c-.5,.3-.4,.6,.1,1,.3,.2,.5,.5,.8,.8-.6,.2-.8,.5-.6,1v.3c-.1,.4,0,.6,.4,.8,.2,.1,.4,0,.4-.2v-1.6c0-.3,0-.5,.1-.7s.3-.5,.3-.8v-2.7c0-.3,.1-.7,0-1-.2-.8-.3-1.5-.3-2.3s-.1-2-.1-2.9v-7.4c0-.8-.1-1.7-.1-2.5s0-.6-.4-.6-.4,.2-.6,.5c0,.1-.1,.2-.2,.4-.1,.1-.4,.3-.4,.4s.2,.4,.3,.5v.3l-.2,.2Zm49.3,13.3c.2,.1,.4,.2,.6,.3,.4,.2,.5,1,0,1.2-.2,.1-.4,.2-.7,.3h-.3v-.4c0-.1,.2-.3,.4-.5-.3,0-.4-.2-.7-.2-.9,0-1.4-.8-1-1.6,.1-.4,0-.7-.2-.8-1.2-.7-2.5-1.1-4-1-1,.1-1.8,.4-2.6,1-.3,.2-.6,.4-1,.6-.7,.3-.8,.7-.4,1.3,0,0,0,.1,.1,.2,.3,.4,.4,.4,.9,.1,.5-.4,1-.7,1.5-1,2-.9,4-.2,5.3,1.2,.8,.9,1.2,2,1.6,3.1,0,.1,.1,.4,.3,.4,.4,0,.9,.1,1.3,0s.4-.7,.3-1.1c0-.4-.1-.8-.1-1.2v-1.8c0-.3-.2-.7-.5-.8-.4-.1-.8,0-1,.5h0l.2,.2Zm8.1-.1v1.1c0,.9,0,1.7,.1,2.6,0,.3,0,.7,.2,.9,.2,.4,.2,.7,0,1.2-.1,.3-.2,.7-.3,1v3.4c0,.2,0,.5,.1,.6,.4,.1,.8,.1,1.2,.2h0c.1-.3,.4-.4,.5-.7,0,0,.2-.2,.1-.3,0,0-.2-.2-.3-.2h-1.2c.3-.4,.4-.7,.6-1,0-.2,.2-.5,.1-.6-.3-.4,0-.8,0-1.2v-7s.1-.2,.3-.2c.4,0,1,0,1.4-.1,.4,0,.6-.4,.6-.8s-.1-.4-.3-.5c-.3-.2-.5,0-.7,.2-.4,.3-.7,.4-1.1,.7v-.6c0-.3,0-.4-.3-.4-.4,0-.9,0-1.1,.5,0,.1-.3,.4-.4,.3-.2,0-.4-.2-.6-.4-.1-.2-.2-.4-.4-.3-.1,0-.3,.3-.4,.5v.4h-.1c0-.1,0-.3-.1-.4,0-.1-.2-.3-.4-.4-.1,.1-.3,.3-.4,.4v.9h.7c.1,0,.4-.1,.4,0,.4,.1,.7,.1,1,0h.7c-.1,.2-.2,.4-.4,.6h0c-.2,0-.4-.2-.7-.3v5.2s.1,.2,.3,.3c0-.1,.1-.3,.1-.4v-.7c0-.3,.2-.6,.1-.7-.4-.5-.3-1,.1-1.3h0c-.1-.2-.3-.4-.4-.6v-.9s.2-.2,.6-.5h.1l.3-.5ZM45.74,21.5c.2-.4,0-.8-.1-1.2,0,0-.3-.1-.4-.1-.6,.2-1.1,.6-1.2,1.2-.1,.4-.3,.4-.5,.1-.2-.2-.5-.3-.7,0-.4,.3-.7,.7-1,1-.1,.2-.2,.2-.5,.1-.2,0-.5-.1-.7,0-.9,.4-1,1.3-1.1,2.1-.1,.7-.3,1.3-1.1,1.6-.4,.1-.7,.3-1,.5-.1,.1-.4,.3-.4,.5-.1,1-.8,1.9-.5,3,.1,.5,.2,.6,.7,.4,.6-.3,1.1-.6,1.7-.8,.6-.3,1-.7,.9-1.3v-3.2c-.1-.8,0-1.4,.6-1.9,.1-.1,.4-.1,.7,0,0,0,.1,.4,0,.6,0,.3-.3,.6-.4,1-.2,.7,0,1,.7,1.1l.2,.2c-.1,0-.3,0-.4,.1-.4,.4-.4,.6,0,1,.1,0,.1,.3,.3,.4v.2h.1v-.7c.1-.7,.1-1.5-.4-2.1-.2-.3-.2-.6,0-.9,.1-.1,.2-.4,.3-.7,0-.5,.1-1.1,.6-1.5,.3-.3,.7-.3,.9,0,0,.1,.1,.3,.2,.4,0,0,.1,.1,.3,.2,0,0,.1-.2,.2-.3v-.7c0-.5,.4-.8,.7-1s.7,0,.9,.3h.3l.1,.4Zm20.9,42.4c-.1-.2-.2-.3-.3-.4,0-.4-.3-.4-.7-.4h-.5c-.9,0-1.8,0-2.6,.1-.6,0-1.2-.1-1.6,.1-.5,.4-1,0-1.5,.1-1,0-1.9,.1-2.9,.1s-.9,.1-1,.9c0,.4,.3,.7,.7,.7h1.9c1.5-.1,2.9-.2,4.5-.4h2.7c.4,0,1-.1,1.4-.1,.7,0,1.3-.4,2-.2h.2c.4-.2,.7-.4,1.1-.7,.1,0,.2-.1,.3-.2,0-.1,.1-.3,.1-.4s-.3-.2-.4-.2c-.8,0-1.5,0-2.3,.2-.4,0-1.2,0-1.2,.9h0l.1-.1ZM31.14,33.3h0c.1-.2,.2-.3,.4-.4,.5-.6,1.1-1.1,1.6-1.7,.1-.1,.3-.4,.2-.6,0-.1-.4-.2-.6-.3-.3,0-.7,0-1-.2-.5-.4-1.1-.4-1.7-.6h-.5v.5c0,.2,.2,.7,.1,.9-.3,1,0,1.9-.1,2.8,0,.4,.4,.7,.7,.5,.9-.4,1.8-.7,2.6-1.1,.4-.1,.7-.2,.9,.2,0,.1,.4,.2,.6,.2s.3-.2,.3-.4v-1.4c0-.4,0-.5,.2-.6,.4-.2,.5-.6,.5-1v-.8c0-.1-.1-.3-.3-.4-.1,.1-.2,.3-.4,.4-.1,.3-.2,.7-.4,1-.8,.7-1.6,1.5-2.4,2.2-.2,.2-.4,.4-.7,.6h0v.2Zm55.3,35.9h0c-.1,0-.4,0-.4-.1,0-.7-.2-1.4,.2-2,.1-.1,.1-.4,.2-.7v-6.1c0-.8,.1-1,1-1s.6,0,.6-.3-.3-.6-.5-.7c-.4-.1-.8,0-1.2-.1-.1,0-.4,0-.4,.1-.1,.5-.5,.7-.9,.9-.2,.1-.3,.4,0,.4s.4,.3,.4,.6v6.9c0,.2-.1,.5,0,.7,0,.7-.1,1.2-.9,1.5,0,0-.1,.4-.1,.5s.3,.1,.4,.2c.1,0,.4,0,.5,.2,.3,.1,.4,0,.7,0,.1-.1,.4-.2,.5-.2h.7c.5,0,1,0,1.5,.1,.7,.1,1.5,.1,2.2-.1,.4-.1,.8-.2,1.2,0h.4c0-.1,0-.4-.1-.4h-.4c-.4,0-.9,0-1.2-.3-.4-.4-.9-.4-1.4-.3h-1.2c-.2,0-.4,.1-.7,.1h-1.1v.1ZM45.44,24.8l.1,.1c-.1,.1-.4,.3-.4,.4-.1,.2-.2,.4-.2,.7s.2,.3,.3,.2c.5,0,1.1,0,1.5-.2,.6-.1,1.1-.4,1.6-.7,.7-.4,.9-.4,.7-1.2v-.3c0-.6,.1-1.1,.1-1.7s-.2-.8-.7-.8-.7,.1-1,.2c-.5,.2-1,.5-1.5,.6-.2,0-.4,0-.7,.2-.5,.3-.8,.7-.7,1.3v.4c-.1,.7,0,.7,.6,.7h.2l.1,.1Zm72.5,43.4c0-.3,.1-.6,.1-.9,.1-1-.2-2,0-3v-8.1l-.3-.3c-.4,.2-.7-.1-1.1-.2-.2,0-.6,0-.8,.1s-.3,.5-.4,.7c.2,.1,.5,.2,.7,.4h.4s.2,.2,.2,.4v7.9c0,.2,0,.4,.1,.6,0,.4,.2,.7,.3,1.2,0,.4,.2,.8,.7,1h0l.1,.2ZM73.64,19.9c0,.4,.1,.6,.5,.8,2,1,3.9,1.9,5.9,2.8,1.6,.7,3.2,1.5,4.8,2.2,.3,.1,.6,.1,.7-.1,.1-.4,0-.6-.4-.7-.1,0-.3-.1-.4-.2-.8-.5-1.6-1.1-2.4-1.5-1.3-.7-2.8-1.2-4.1-2-1.1-.7-2.3-1.2-3.5-1.8-.6-.3-1,0-.9,.6h0l-.2-.1Zm19.2,14.5h-.3c-.7,.1-.8,.1-.9-.6,0-.3-.1-.4-.4-.4s-.4,.2-.4,.5v.5c0,.5-.3,.5-.7,.3s-.9-.4-1.3-.7c-.6-.2-1.3,.1-1.4,.6v3.9c0,.1,.1,.3,.2,.3s.3,0,.4-.1c.1-.2,.2-.4,.2-.7,0-.4,.2-.5,.5-.6,.1,0,.3-.1,.3-.3,.1-.7,.6-1.2,1.2-1.8,.2-.1,.4-.1,.5,0,.3,.4,.7,.9,1.3,.7h.1c.4,.2,.7,0,.7-.3,.1-.6,.2-1.2,0-1.8v.5Zm-.2,24.4h.1c0-.4,0-.6-.1-.8h-.4v.7h0c-.7,.2-.7,.1-.6-.5,0-.3-.2-.6-.6-.5-.4,0-1,.3-1.5,.4-.1,0-.4-.4-.7,0-.1,.1-.1,.4-.1,.5,0,.4,0,.5,.4,.5h.8c.7,0,.8,0,.8,.7v2.5c0,.5,.4,1,.9,1s.6-.3,.7-.7c0-.5,.2-1,.4-1.4,.2-.5,.4-1,.7-1.4,.1-.4,.1-.6-.3-.7-.1,0-.3-.1-.5-.1h0v-.2Zm-63.5-.6h0v-.5c0-.3-.1-.5-.4-.5s-.3,.3-.3,.5v5.9c0,.4-.2,.7,0,1.2,0,0-.2,.4-.3,.4-.7,0-1.5,0-2.1,.1-.3,0-.6,.1-.6,.6s.2,1.1,.6,1.2h.2c.8-.3,1.5,0,2.3,0,.4,0,.5,0,.5-.4v-7c0-1.1,.2-.9,.4-1.3h0l-.3-.2ZM97.04,23h0v-1c0-.4-.1-.7-.5-.9-.4-.2-.8-.4-1.2-.7-.3-.2-.6-.4-.9,0-.3,.2-.4,.6-.2,1,0,.2,.3,.5,.3,.7-.1,.7,0,1.4,.4,2,.1,.2,.2,.5,.4,.7,.3,.2,.6,.4,1,.5s.6,0,.7-.4c0-.6,0-1.2,.1-1.8h0l-.1-.1Zm16,22h0v1.2c0,.4,.1,.5,.5,.5h1.5c.6,0,.8-.2,.8-.8v-2.2c0-.4-.2-.6-.6-.6h-1.8c-.3,0-.4,.1-.4,.4v1.3h0v.2Zm-18-29.8v.3c.1,.4,0,.8-.3,1.2,0,.1-.1,.4-.1,.6,.1,.7,0,.9-.7,1-.1,0-.4,0-.5,.1h0c.1,.1,.2,.1,.4,.1,.6-.1,.8,0,.9,.6,0,.2,.2,.4,.4,.5,.4,.3,.8,.5,1.2,.8,.2,.1,.4,.1,.7,0,.4-.4,.4-1.1,0-1.5,0,0-.2-.3-.1-.4,.3-.4,.2-.7,.2-1.1,0-.6,0-1-.6-1.2-.4-.3-.8-.6-1.2-1h-.3ZM58.44,50.1h0c-.9,.1-1.8,.3-2.6,.5,0,0-.1,.1-.1,.3,.1,0,.3,.2,.4,.2,1.2-.2,2.4-.4,3.6-.7,.7-.1,1.3-.4,2-.4,2.1-.4,4.1-.7,6.2-1.1,1-.1,1.9-.4,2.9-.6,.1,0,.3-.3,.4-.4-.2,0-.4-.2-.6-.2-.7,0-1.2,.3-1.9,.4-1.2,.2-2.4,.5-3.7,.7-1.6,.3-3.2,.7-4.8,1-.6,.1-1.1,.2-1.7,.4h0l-.1-.1Zm-33.3,8.9h0v-.6c0-.1-.2-.4-.3-.4s-.3,.1-.4,.3v4.7c.1,.3,0,.6,0,.9,0,.2-.1,.5,0,.8,0,.4,0,.5-.5,.6h-1.5c-.2,0-.6,.3-.6,.5,0,.4,0,1,.1,1,.5,.1,1.1,.2,1.7,.2s.6-.1,.9,0c0,0,.3,0,.3-.1s.1-.3,.1-.4v-6.4c.1-.4,.2-.8,.4-1.2h0l-.2,.1Zm87.9-10.1v1.1c0,.5,.1,.7,.7,.7h1.1c.7,0,.8-.1,.8-.8v-2.3c0-.4-.2-.4-.5-.4h-1.5c-.4,0-.6,.2-.6,.6v1.1h0Zm-.9-9.3v-1.5h-1.2c-.4,0-.1,.4-.1,.7v.5c-.1,.1-.4,.4-.5,.3-.1,0-.4-.4-.4-.6q0-.7-.7-.6c-.1,0-.3,0-.4,.1-.7,.1-.7,.2-.5,.9,0,.3-.2,.9-.4,.8-.4,0-.5-.3-.6-.7h0c0-.4-.2-.6-.6-.5-.3,0-.5,0-.8,.1-.1,0-.4,.3-.4,.4,0,.4,.2,.7,.4,1.1h.8c.4-.1,1-.3,1.4-.4,.4,0,.9,0,1.3-.1,.7-.1,1.4-.2,2.1-.4,.4,0,.7-.1,1-.1h-.4Zm7.1,2.7c-.2,.4-.4,.6-.4,.9v2.2c0,.4,0,1,.2,1.2q.2,.4,0,.7c-.1,.2,0,.7,.2,.9,.3,.1,.6,0,.7-.2,0-.1,.2-.4,.2-.5v-1.8c-.1-.7-.1-1.5,.2-2.1-.2,0-.4-.2-.5-.3,.1-.1,.3-.2,.5-.4,0,0,.2-.1,.3-.2,.3-.2,.2-.4,0-.7-.4-.3-.7-.5-1.2-.7-.2-.1-.4-.2-.7,0-.2,.3,0,.6,.1,.8s.2,.1,.2,.1h0l.2,.1Zm-68.3,26.5c.4-.1,.6-.4,.4-.8v-.4c0-.1,0-.3-.1-.4-.1,0-.4,.1-.4,.2,0,.6-.4,.6-.8,.7-.2,0-.4,0-.4-.3,0-.4-.2-.4-.5-.4h-1.8c-.5,0-1,0-1.6,.1,.4,.3,.9,.6,.7,1-.1,.5,.2,1.1,0,1.6v1.8c0,.5,0,.7,.6,.8s.5-.3,.5-.6v-2.9c0-.4,0-.7-.2-1-.1-.4,0-.7,.4-.7h1.2c.6,0,.6,.9,1.2,.9,0,0,.1,.2,.2,.3,.1,.5,.7,.7,1.1,.4,0-.1-.1-.2-.3-.4h0l-.2,.1Zm51.6-31.7h0c0-.1,.1-.3,.3-.2,.6,0,.7-.2,.7-.7s.1-.4,.3-.6c.5-.4,.7-1.2,.3-1.8-.2,.1-.5,.4-.7,.4-.4,0-.5,.1-.6,.4,0,.1-.2,.3-.4,.3-.4,0-.5,.2-.5,.6v2.2c0,.4,.2,.5,.6,.4h.4c.4,.1,.9,0,1.2-.1,0,0,.1-.3,.1-.4s-.2-.2-.3-.2h-.6c-.3,0-.6-.1-.9-.1h0l.1-.2Zm-9.7,1.4v-1.2c0-.3-.1-.5-.4-.5s-1.2,.4-1.2,.7c-.1,.4-.2,.8,.2,1.2,0,0,.1,.4,0,.5-.1,.5-.4,1-.9,1.1-.1,0-.2,.4-.3,.5,.1,0,.4,.2,.5,.2,.5,0,1-.2,1.5-.4s.7-.4,.7-1v-1.2h0l-.1,.1Zm-24.3,2.5v-1.3c0-.5-.1-.7-.7-.6-.3,0-.6,.1-.8,.3,0,0-.2,.2-.2,.3v3.1c0,.1,.3,.4,.4,.4,.4,0,.8-.1,1.1-.4,.1,0,.2-.3,.2-.5v-1.3h0Zm44.3-1.4h3.7c.2,0,.4-.1,.3-.4v-.9c0-.3,0-.4-.3-.4h-3.3c-.2,0-.3,.1-.3,.4v1.2h0l-.1,.1Zm-64.6,2.5c-.4,0-.8,.1-1.1,.2-1.2,.4-2.3,.7-3.4,1-1.8,.5-3.4,1.1-5.2,1.6-.2,0-.4,.3-.7,.4h0c.1,.1,.2,.1,.4,.1,1.2-.3,2.6-.6,3.8-1,1.8-.5,3.5-1,5.2-1.5,.4-.1,.7-.4,1-.7v-.2h0v.1Zm52.9-18.1c-.2-.2-.4-.4-.5-.5s-.4-.2-.6-.3c-.7-.4-1.3-.8-1.9-1.2-.4-.2-.6-.1-.6,.1v2.3c0,.1,.1,.3,.2,.3,.4,0,.8,0,1.2-.1,.1,0,.2-.1,.4-.1,.6-.1,1.1-.3,1.8-.5h0Zm-32.4,35.9v-1.2c0-.4-.1-.5-.5-.5s-.5,0-.8,.1c-.3,0-.4,.3-.4,.6v2.1c0,.9,.3,.9,1,.8h.3c.4,0,.4-.2,.4-.5v-1.2h0v-.2Zm19.3-30.4v.1s-.2,.2-.4,.3c-.1,.1-.4,.2-.4,.4-.2,.3-.3,.7,0,.9,.1,.1,.5,0,.7,0h.5c.4,.1,.7,.4,1,.4,.4,.1,.6,0,.6-.4v-1c0-.4-.1-.7-.5-.8s-.8-.4-1.2-.6-.8,0-1,.5h.6l.1,.2Zm-22.6,12.6h0v-.9c0-.2,0-.4-.1-.6,0-.3-.2-.6-.7-.6s-1,.3-1,.7v2.3c0,.3,.2,.4,.5,.4,1.1,0,1.2-.1,1.2-1.2h0v-.1h.1Zm.3,18.6h0c0-.5,0-1-.1-1.5,0-.3,0-.7-.4-.7-.7,0-1.1,0-1.1,.7v2.4c0,.1,.1,.4,.2,.4h1.2c.1,0,.2-.4,.2-.7v-.5h0v-.1Zm21.5-35.4c.4,0,.7,.1,1,0,1.2-.4,2.3-.7,3.5-1.1,.4-.1,.6-.4,.6-.7s-.1-.4-.4-.4c-.4,0-.8,.1-1.2,.3-.6,.2-1.2,.4-1.8,.7s-1.2,.5-1.5,1.2h-.2Zm-18.6,30.4h0v-.8c0-.1-.1-.4-.3-.4-.4-.2-1.3,.3-1.3,.8v1.8c0,.6,0,.7,.7,.7h.6c.5,0,.5-.4,.5-.7s0-.7-.1-1.2l-.1-.2Zm18.6-28.3c.7-.1,1.4-.2,2.1-.4,.8-.2,1.6-.4,2.4-.7,.3,0,.5-.2,.7-.4,0,0,.1-.4,0-.4,0,0-.3-.1-.4-.1h-.3c-.4,0-.7,0-.9,.2-.1,.2-.4,.4-.7,.2-.2,0-.5,0-.7,.2-.1,.2-.4,.3-.7,.2s-.5,0-.7,.3c-.1,.2-.4,.4-.6,.4-.4,0-.5,.2-.4,.7h0l.2-.2Zm-20.9,.5v1c0,.3,.2,.4,.5,.4,.4,0,.7-.2,1-.4,.1,0,.3-.3,.3-.4v-1.8c0-.5-.4-.7-.8-.5-1.2,.5-1,.4-1,1.5v.3h0v-.1Zm-3.3,32.7v-.9c0-1-.2-.8-1-.8s-.7,.2-.6,.7v1.7c0,.67,.33,1,1,1,.4,0,.5-.2,.5-.6v-1.1h.1Zm-.3-18v-1.1c0-.3,0-.6-.5-.6s-1,.2-1,.5c0,.7-.1,1.5-.1,2.2s.2,.5,.4,.5c.4,0,.9,.4,1.2-.1v-1.4h0Zm2.3-13.9v-.3c0-1.2-.3-1.2-1.2-.8-.2,0-.4,.4-.4,.5v1.8c0,.6,.1,.7,.7,.5,1.3-.5,1.2-.3,1.2-1.5h0v-.1l-.3-.1Zm.5,27.6v-.9c0-.3,0-.6-.4-.7-.5,0-1.1,.1-1.1,.6v2.2c0,.4,.2,.4,.5,.4s.4,0,.6-.1c.4,0,.6-.3,.5-.7v-.9h0l-.1,.1Zm2.1,15.8h-.1c-.2,.1-.4,.1-.7,.1-.4,0-.5,.2-.4,.7,0,.4,.3,.2,.5,.2h.7c.4,0,.7-.3,.5-.6-.3-.5,.1-1,0-1.5v-1.4s-.1-.2-.2-.2c-.3,0-.6-.1-.8-.1s-.3,.2-.4,.3c.1,0,.2,.2,.4,.3,.2,0,.5,.1,.9,.2-.2,.1-.4,.3-.6,.3-.8,0-.9,0-.9,1s.1,.4,.4,.4,.5,.1,.8,.2h0l-.1,.1Zm-4.6-15.4v-1c0-.2-.1-.4-.4-.5-.6-.2-1.2,.1-1.2,.8v1.8c0,.4,0,.7,.5,.7,.7,0,1-.2,1-.7v-1h0l.1-.1Zm5.5-11.8v-.5c0-1.2-.2-1.2-1.2-.8-.3,0-.4,.3-.4,.6v1.5c0,.4,.1,.7,.5,.7h.5c.4,0,.6-.1,.5-.5v-1h.1Zm-8.3,15.9v-1c0-.4-.1-.6-.5-.6-.6,0-.9,.1-.9,.6v2.3c0,.1,.1,.4,.3,.4,.5,.2,1.2-.1,1.2-.8v-.9h-.1Zm-2-17.2h0v.5c0,.3,0,.7,.2,.9,.4,.2,.6-.2,.8-.4s.6-.5,.6-.8c0-.5,0-1-.1-1.6,0-.3-.2-.6-.6-.5-.4,0-.7,.1-.8,.6,0,.4,0,1-.1,1.4h0v-.1Zm4.1-13.9v-.8c0-.1,0-.4-.2-.4-.4-.3-1.5,.3-1.5,.7v1.8c0,.3,.2,.4,.5,.4,1-.2,1.2-.4,1.2-1.5s0,0,0-.1v-.1Zm-4.6,31.3v-1c0-.4-.1-.6-.6-.6-.7,0-.9,.1-.9,.6v2.2c0,.1,.1,.4,.2,.4,.5,.3,1.2-.1,1.2-.7v-1h0l.1,.1Zm33.8-30.2h0v1.2c0,.3,0,.6,.4,.6s.6-.2,.5-.6c0-.4-.1-.8-.2-1.2,0-.2-.2-.5-.1-.6,.4-.4,.1-1,.2-1.4,0-.6,0-1.2,.1-1.7,0-.2,0-.5-.3-.6-.3,0-.5,0-.5,.4v.7c0,1.1,0,2.2-.1,3.2h0Zm-3.8-8.2c.9-.3,1.8-.6,2.6-1,.5-.2,1-.5,1.5-.8,.1,0,.1-.3,.2-.5-.1,0-.4-.1-.6-.1h-.3c-1.2,.5-2.4,1-3.6,1.5-.1,0-.2,.3-.4,.4,.1,0,.3,.2,.5,.4h0l.1,.1Zm-27.5,34.5v-.9c0-.4,0-.6-.4-.7-.4,0-1,.1-1,.5v2.2c0,.7,0,.2,.1,.2h1.1c.1,0,.2-.4,.2-.6v-.8h0v.1Zm56.2,12.8h.2c.3,0,.5-.1,.5-.4s-.3-.3-.5-.3h-4.9c-.2,0-.5,.1-.5,.3s0,.5,.1,.7h.4c.4,0,.7-.2,1-.1,.7,.1,1.2,0,1.8-.1h.4c.4,0,.9,.2,1.3,.3v-.3l.2-.1Zm-7.6-14.8c.4,0,.8-.3,.7-.7,0-.1-.1-.4-.2-.4-.7,0-1.5-.2-2.1,.6-.3,.4-.7,.4-1.2,.1h-1.3c-.3,0-.6,.2-.7,.4-.2,.2,0,.5,.3,.4,.7,0,1.3-.2,1.9-.1,.9,0,1.6-.6,2.5-.3h.1Zm-40.6-24.4v-.9c0-.3-.2-.4-.5-.4s-.6,.2-.9,.4c-.1,.1-.3,.4-.3,.7v1.5c0,.4,.1,.5,.5,.4,.9-.2,1.1-.4,1.1-1.4v-.3h.1Zm-24.2-5.3c0-.4,0-.8-.4-1,0,0-.1-.2-.2-.3-.1-.1-.3-.3-.4-.4-.1,.1-.4,.4-.4,.5,0,.4-.1,.8-.2,1.2,0,.4,.1,.6,.5,.4h.4c0,.1-.2,.2-.3,.4,0,0-.1,0-.1,.1,0,.2-.2,.5-.1,.8,0,.1,.4,.3,.6,.3s.5-.1,.6-.4c0-.5,.1-1,.2-1.6h-.2Zm15.5,5.5v-.7c0-.3,0-.7-.4-.7s-1,.3-1,.7v1.8c0,.6,.2,.4,.4,.4,.7,0,1.2-.4,1.2-1.2v-.3h-.2Zm-3.3,26.7v.9c0,.1,.1,.4,.3,.4h.8c.1,0,.4-.4,.4-.5v-2c0-.3-.2-.4-.5-.4-.7,0-1,.4-1,1v.6Zm7.3-25.4v.9c0,.1,.1,.4,.2,.4,.5,.2,1.4-.4,1.4-1v-1.5c0-.3-.1-.3-.4-.4-.7,0-1.2,.4-1.2,1.2v.4h0Zm-5,15.9v.6c0,.1,.1,.3,.2,.4,.2,.1,1,0,1-.4v-1.3s-.1,0-.2-.1c-.5,0-.4-.3-.2-.6,0-.1,.2-.2,.3-.4,.2-.2,.2-.5,0-.7h-.8c-.2,0-.3,.3-.3,.5v1.9h0v.1Zm-31.9-10.5v.1h.3c.4-.1,.8-.3,1.2-.5,.5-.2,1-.5,1.5-.7,.4-.1,.8-.4,1.2-.5,.9-.4,1.8-1,2.8-.8h.4c-.3-.7-.7-.8-1.4-.4-1.6,.7-3.2,1.5-4.8,2.3-.4,.2-.9,.5-1.3,.7h0l.1-.2Zm36.3,30.1c-.3,.1-.6,.3-.9,.4,.4,.1,.6,.3,.9,.4-.3,.2-.6,.4-.8,.6,.2,.1,.5,.3,.8,.5v.2c0,.1,.2,.2,.4,.4,0-.1,.3-.3,.3-.4,0-.7-.1-1.4-.3-2.1,.1-.3,.4-.4,.7-.2h.4c.3,0,.6,0,1-.1,.1,0,.3-.1,.4-.2-.1,0-.3-.3-.4-.3h-1.3c-.4,0-.9,.1-1.3,.1h-.5c.3,.2,.4,.4,.7,.7h-.1Zm35.6-33.2c0,.7,0,1,.5,.9,.3,0,.6,0,.8-.2,.3-.2,.4-.3,.8-.1,.3,0,.6,0,.6-.4v-.7c-.2,0-.5,0-.7,.1-.1,0-.3,.1-.4,0-.1,0-.4-.2-.2-.5v-.4h-.5c-.6,.2-.9,.7-.7,1.2h0l-.2,.1Zm-37.6-1.5v.8c0,.1,.2,.4,.4,.4,.4,.1,1-.3,1.1-.7v-1.8s-.2-.2-.4-.2c-.7,0-1,.4-1,1.1v.4h-.1Zm-16.4,34.8v-.1c-.1,0-.4,0-.5,.1-.1,.4-.2,1-.2,1.5s.1,.3,.3,.5c-.4,.4-.5,.8-.3,1.4,0,.2,0,.6,.1,.8v.2c0,.1-.1,.4,0,.4,.2,0,.4,.2,.6,.2s.3-.2,.3-.4v-3.2c0-.4-.4-.9,0-1.3h0l-.3-.1Zm58.9-3.3h-.2v3.3c0,.3,.1,.4,.5,.4h1.4c.3,0,.2-.2,.4-.4-.1,0-.2-.1-.4-.2s-.4-.1-.4-.2c0-.4-.3-.7-.6-1-.2-.2-.4-.6-.5-1v-1.2h0l-.2,.3ZM26.04,52.2c.4,0,.7,.1,.9,.3,.6,.4,1,1,1.1,1.7v.5c0,.2,0,.5-.1,.7h-.4c-.1,0-.2,0-.3,.1h0c.1,.1,.2,.1,.4,.1h.7c.2,0,.5-.2,.5-.4,0-.5,0-1-.1-1.5s-.4-.9-.5-1.4-.4-.8-.7-1.1h-.2c-.4,.2-.7,.5-1,.7h0l-.3,.3Zm16.2,15.6c-.5-.3-.7-.2-.8,.3-.2,.7,0,1.5,0,2.2v2.3s.3,.2,.4,.1c.1,0,.3-.2,.3-.4,0-1,0-2-.1-2.9,0-.6-.1-1.1,.2-1.6h0Zm76.5-14.7h0v.6c0,.2,.1,.4,.3,.6h.4v-.4c0-.3,0-.6,.1-.9,.1-.3,.2-.7,0-1-.4-.4-.4-.5-.1-1,.1-.2,0-.4,0-.6-.1,0-.4-.1-.4,0-.1,0-.3,.3-.3,.4v2.1h0v.2Zm-96.4-.1v.1h.4c.2,.1,.4,.4,.5,.5,0,.4,0,.7,.4,.8,0,0,0,.1,.1,.3,.1,.4,.4,.9,.2,1.4,0,0,.1,.2,.3,.4,.1,0,.2-.2,.4-.3v-.3c0-1.2-.4-2.2-1-3.2-.4-.5-.5-.6-1,0-.1,.1-.3,.2-.4,.3h.1Zm37.2-19.2v-.8c0-.1-.1-.4-.3-.4-.4-.1-1.1,.3-1.1,.7v1.5c0,.4,.2,.5,.5,.5,.5,0,.9-.4,.9-.9v-.6h0Zm-12.2,28v-.9c0-.4,0-.7-.5-.7s-.7,.2-.7,.7v1.7c0,.4,0,.7,.4,.7s.7-.2,.7-.7v-.8h.1Zm45,4.9v-1.4c0-.5-.1-.7-.5-.8-.4,0-1,.2-1,.7v1.5c0,.3,.4,.4,.5,.2,.2-.4,.5-.4,1-.1v-.1Zm-14.5-6.8h0v-.7c0-.3-.2-.5-.6-.5s-.7,.3-.7,.7v1.5c0,.3,.2,.7,.5,.7s.6-.1,.7-.5c0-.4,0-.7,.1-1.1h0v-.1Zm-53.2,10.5c-.2,.1-.4,.1-.4,.2-.4,0-.5,.3-.5,.7v.4c0,.1,.1,.4,.3,.4h.6c.1,0,0-.4,0-.6v-2.4c0-.6-.2-.7-.8-.7-.3,0-.4,0-.3,.4,0,.2,0,.5,.1,.7,0,.1,.1,.3,.3,.4,.1,.1,.4,.2,.6,.4h0l.1,.1Zm44.3-4.7h0c-.2-.1-.4-.2-.7-.2h-1.4c-1.3,0-2.6,.1-3.9,.2-.1,0-.3,.1-.4,.2v.2h1.5c.4,0,1,.1,1.2,0,.8-.4,1.6-.1,2.4-.2,.4,0,.8,0,1.1-.3h0l.2,.1ZM102.94,22v1c0,.1,.1,.4,.3,.4,.4,.1,1.1-.4,1-.9,0-.4,0-.7-.2-1.1,0-.2-.3-.5-.5-.7-.4-.2-.6,0-.6,.4v.9h0Zm3.2,34.9c-.1-.1-.3-.2-.4-.4-.3-.4-.6-.2-.8,0v.6c.1,.3,.4,.4,.7,.4s.8,0,1.2-.1c.1,0,.3-.2,.4-.4s.1-.3,.3-.4c.2-.2,.2-.4,0-.5-.6-.2-1.2,0-1.4,.8h0Zm-61.1,5v-1.1c0-.4-.2-.5-.6-.4-.3,0-.5,.3-.5,.7v1.9c0,.3,0,.5,.4,.5s.6-.2,.6-.6v-1h.1Zm12.5-18.2v-.8c0-.2-.2-.4-.4-.6-.1,.1-.3,.2-.4,.4v.2c0,.4-.1,.8-.1,1.2v1c0,.3,.1,.4,.4,.3,.4-.3,.8-.5,.7-1.1v-.7h0l-.2,.1Zm62.2-4.9c-.7,0-1,.4-.8,.9,.1,.6,1.5,1.2,2.1,1,.2,0,.3-.3,.1-.5-.2-.3-.4-.6-.7-.8s-.6-.4-.8-.6h.1ZM47.34,58.5h0v-1c0-.3-.2-.5-.5-.4-.3,0-.6,.1-.6,.6v1.7c0,.4,.2,.4,.5,.4,.4,0,.7-.2,.7-.7v-.7h0l-.1,.1Zm-1.8-24.1v.7c0,.1,.1,.3,.2,.4,.4,.1,1-.2,1-.6v-1.6c0-.1-.3-.3-.4-.3-.4,0-.7,.4-.7,.7v.7h-.1Zm-13.7,36.5c.4,0,.9,0,1.3,.1,.3,0,.5-.1,.7-.4,0-.3,0-.5-.3-.6,0,0-.1-.1-.2-.2-.2-.4-1.2-.4-1.5-.1,0,.1-.1,.3-.1,.4,0,.3,.1,.6,.1,.9h0v-.1Zm30-4.8c-.6-.4-4.7-.1-5.1,.2,.1,.4,.5,.4,.8,.3,.6-.2,1.2,.3,1.8-.2h0c.4,.4,.8,.1,1.2,.1s.8-.3,1.3-.4h0Zm-19.7-4v.9c0,.3,0,.6,.4,.6s.6-.1,.6-.6v-1.9c0-.3-.1-.5-.5-.5s-.5,.2-.5,.5v1h0Zm21.1,10.1s.2-.1,.3-.3c.3-.7-.2-1.5-1-1.4-.1,0-.3,.2-.4,.4,.1,.1,.3,.2,.4,.3h.4c-.3,.3-.6,.4-.9,.5h0c.3,.2,.6,.4,1,.5-.2,0-.4,0-.4,.1-.2,0-.7,0-.7,.3s.4,.3,.6,.4h.7v-.8h0Zm-18.8-37v-.7c0-.3,0-.7-.5-.6-.4,0-.6,.2-.7,.6v1.2c0,.4,.3,.7,.8,.5s.4-.7,.4-1.1h0v.1Zm.6,24.1v-1.4c0-.3,0-.6-.4-.5-.2,0-.5,.3-.6,.5,0,.5,0,1.1-.1,1.7,0,.4,.2,.5,.5,.5,.4,0,.7-.2,.6-.7h0v-.1Zm63.4,8.3h-.9c-.3,0-.4,.3-.3,.5,.4,.4,1.2,.4,1.7,.1,.1,0,.4-.1,.5,0,.4,.3,.7,.1,1.1,0,.2,0,.4-.3,.3-.5,0-.1-.3-.2-.4-.2-.7,0-1.3,.1-2.1,.2h0l.1-.1Zm-9.5-48.2c.9-.4,1-1.1,.4-1.8-.1,.6-.8,1-.5,1.8h0v2.1s0,.2,.1,.2,.3,.2,.4,.1c0,0,.2-.2,.2-.3-.1-.7,.1-1.6-.7-2.1h.1Zm-52.2,17.5v-.7c0-.4-.2-.6-.6-.4-.2,0-.5,.4-.6,.5v1.4c0,.4,.1,.6,.5,.5,.4,0,.7-.2,.7-.7v-.7h0v.1Zm53.2,5.1c.6-.1,1.1-.1,1.5-.4,.1,0,.1-.6,.1-1v-.2c0-.1-.2-.3-.3-.3-.4,0-.8,.1-1.2,.3,0,0-.1,.2-.1,.3v1.2h0v.1Zm-60.6,14.8v.2c.5,0,1-.2,1.5-.3,1.8-.2,3.5-.5,5.2-.7,.4,0,.7-.2,1.1-.3v-.2c-2.6,.1-5.2,.9-7.8,1.2h0v.1Zm64.9-16.5c0-.1,.1-.7-.4-.7s-.8,0-1.1,.3c-.1,0-.1,.5-.1,.7v.7h.8c.7-.2,.9-.2,.8-1h0Zm3.6,9c0,.3-.1,.5-.2,.8v.4c.1,.4,.5,.3,.8,.2,.3,0,.8,0,.9-.4v-1.2c0-.1-.1-.3-.2-.4-.1,0-.4,.1-.4,.2-.1,.4-.4,.7-.9,.4h0ZM30.54,68.3h-.5v.9c0,.9-.1,1.8-.2,2.6,0,.1,0,.3,.1,.4,0,0,.2-.1,.3-.2,.5-.8,.2-1.6,.2-2.4s0-.8-.1-1.4h.2v.1Zm-2,.2c-.4,.1-.6,.3-.8,0,0-.1-.3-.1-.4-.2v.5c.2,.2,.2,.5,.1,.8v.6c0,.1,.1,.3,.2,.3,.3,0,.6,.1,1,.3,0-.7-.1-1.4-.3-2.2h.1l.1-.1Zm45.5,4.2v-.2h-.7c-.8,0-1.1-.2-1-.8-.3-.1-.5-.4-.4-.7,0,0,0-.3-.1-.3h-.4v1.3s.4,.1,.6,.2v.9h.9c.4,0,.7-.1,1.2-.1h-.1v-.3Zm-32-13.7v.7c0,.3,0,.5,.4,.5s.5-.1,.5-.5v-1.6c0-.3-.1-.5-.5-.5s-.5,.1-.5,.5v.9h.1Zm-1.1,3.4v-1c0-.3,0-.5-.4-.5s-.5,.1-.5,.5v1.5c0,.2,0,.4,.1,.6,0,.1,.3,.3,.4,.2,.1,0,.3-.2,.3-.4v-1h0l.1,.1Zm24.5-17.2v-.5c0-.3-.2-.5-.5-.4-.7,0-1,.4-.9,1.1,0,.4,.6,.9,1,.9s.4-.5,.4-.9h0v-.2Zm-24.5,14h0v-.7c0-.4,0-.7-.4-.6-.4,0-.6,.2-.5,.7v1.5c0,.3,.1,.5,.4,.5s.5-.1,.5-.5v-.8h0v-.1Zm12.9,10.8h0c.1,.1,.3,.1,.4,.1h.4s.1,.3,.1,.4v1.2c0,.2,0,.4-.2,.4,0,0-.2,.1-.4,.2,.5,.4,.8,.4,.9-.2,0-.9,.1-1.8,.1-2.8s-.1-.3-.3-.4h-.3c0,.6-.4,.7-.9,.8h0v.2l.2,.1Zm45.2-28.8h.1c-.1-.1-.3-.4-.4-.4-.4,0-.7,.1-1.1,.4-.1,0,0,.4,0,.7,0,.7,.2,.8,.9,.7h.4c.3,0,.5-.2,.3-.6,0-.1,0-.3-.1-.4h0l-.1-.4Zm5.2-7.9v-.7c-.4-.4-.2-.9,0-1.4v-.7c0-.1-.2-.3-.4-.3-.3,0-.5,.3-.3,.6,.2,.4,0,.6-.2,.8,0,0-.2,.2-.2,.3,0,.3-.2,.7,0,.9,.3,.1,.7,.3,1,.4h0l.1,.1Zm5,11.5v-.3c0-.3,.1-.8-.3-.8s-.4,.4-.5,.8c-.1,.4-.1,.9-.6,1.2,0,0-.2,.3-.1,.4s.3,.2,.4,.2c.3,0,.6-.1,.8-.3,.1-.1,.3-.4,.4-.6v-.5h0l-.1-.1Zm-64.8-7v-.5c0-.3,0-.6-.4-.6s-.6,.3-.6,.4v1.5q0,.5,.4,.4c.4,0,.5-.2,.5-.5v-.7h.1Zm-4.3,13v1c0,.3,0,.5,.4,.5s.4-.2,.4-.5v-1.9c0-.2-.2-.4-.4-.5-.1,.1-.4,.3-.4,.5v.9Zm1.3-14.8h0v.5c0,.5,.3,.7,.7,.4,.1-.1,.3-.4,.4-.6v-1c0-.3,0-.7-.4-.7s-.7,.3-.7,.7v.5h0v.2Zm8.3,4.6c-.3,0-.6,.1-.4,.4s0,.5,0,.7v.7h.9c.3,0,.6-.1,.5-.5,0-.4-.5-1.3-.7-1.3h-.3Zm60.1-7.2c-.2-.4-.4-1-.7-1.4-.1-.2-.6,0-.7,.1,0,.5-.4,.7-.8,1,0,0,0,.1-.1,.3,.1,0,.2,.1,.4,0,.5-.1,1-.1,1.4,.1,.3,.1,.5,0,.5-.2h0v.1ZM9.14,69.3c.2,0,.4,.2,.7,.2s.3,0,.4-.2c0,0,0-.3-.1-.4-.3-.2-.6-.4-1-.3-.5,.1-1,.3-1.5,.4-.1,0-.4,.2-.4,.4v.7c0,.1,.3,.2,.4,.3v-.4c0-.2-.1-.3,0-.4,0-.2,.1-.4,.3-.6h.4c.3,.4,.6,.4,.9,0h.1l-.2,.3Zm16.7,2.6h-.1c0,.1,.2,.2,.3,.4,0,0,.3-.2,.3-.3v-3.2c0-.3,0-.4-.3-.4s-.4,.2-.4,.5v3.1h0l.2-.1Zm71-29.4c-.1-.4-.1-.8-.3-1.1,0-.1-.3-.3-.4-.3-.2,0-.4,0-.7,.1-.1,0-.4,.2-.3,.4,0,.4,0,.7,.1,1h.2c.4,0,.9-.1,1.2-.2h0l.2,.1Zm-55.9,5.7c0-.6,0-1-.2-1.5,0-.1-.2-.4-.3-.3-.1,0-.3,.1-.4,.3v1.9c0,.1,.1,.3,.3,.4,.1,0,.4,0,.4-.1,.1-.2,.1-.5,.2-.7h0Zm-.5-11.4v-.6c0-.3,0-.5-.4-.6-.4,0-.5,.2-.6,.5v1.2c0,.4,0,.5,.4,.6,.4,0,.7-.2,.7-.5v-.6h-.1Zm-1.3,14.4v-.9c0-.3,0-.6-.4-.6s-.4,.2-.4,.5v1.8c0,.3,0,.5,.4,.4,.1,0,.4-.3,.4-.4v-1h0v.2Zm55.3-8.8c0-.2-.1-.6-.3-.6-.3,0-.7,0-1,.1-.1,0-.1,.4-.2,.6v.5s0,.3,.1,.3c.6,.2,1.4-.3,1.4-1v.1Zm-55.3,5.7v-.9c0-.1-.1-.3-.3-.4,0,0-.3,0-.4,.2-.1,.2-.2,.5-.2,.8v1c0,.3,0,.5,.4,.5s.5-.2,.5-.5v-.7Zm61.8-20.2c-.4-.1-.7-.1-.9-.5,0,0-.1-.2-.2-.3-.1,0-.3,.1-.4,.3,0,0,0,.3,.1,.3,.3,.2,.6,.5,1,.7s.8,0,.9-.5c0-.1,.1-.3,.1-.5v-.4c-.1,0-.4-.1-.5-.1-.5,.1-.5,.5-.2,1h.1Zm-6.1,7.6v-.4c0-.2-.2-.4-.3-.5-.1,.1-.3,.3-.4,.4-.1,.2-.3,.4-.4,.7s-.1,.5,0,.8c0,0,.4,.1,.6,.1,.7,0,.7-.2,.7-1.2h-.1l-.1,.1Zm-55.3,3.8h0v.5c0,.3,0,.6,.4,.6s.5-.2,.5-.5v-1.2c0-.1-.1-.4-.3-.4s-.4,0-.5,.1c-.1,.3-.2,.6-.3,1h0l.2-.1Zm50.6,4.6c-.1-.4-.2-.7-.3-1,0-.3-.1-.4-.4-.4s-.7,.1-.9,.4c-.1,.4,0,.8,0,1.2,.6-.1,1-.2,1.5-.4h0l.1,.2Zm16.5,25.5c0,.4,.3,.4,.6,.4h2.2c.2,0,.4,0,.4-.3s-.1-.4-.4-.4h-1.6c-.4,0-.7,0-1.2,.1h0v.2Zm-20.3-24.9c.4,.2,.9,0,1.3-.1,.4-.1,0-.5,0-.7,0-.4,0-.6-.5-.6s-.8,.2-.9,.7v.8h0l.1-.1Zm4.9-.8c.6,0,1-.2,1-.5,0-.7-.1-1-.4-1-.6,0-1,.3-1,.7,0,.8,0,.9,.5,.9l-.1-.1Zm-44.2,1.7h0v-.7c0-.2-.3-.4-.4-.4s-.4,.2-.5,.4c0,.3,0,.6-.1,.9,0,.4,.4,.8,.8,.7,.4,0,.2-.4,.3-.7v-.3h0l-.1,.1Zm40.7-11.4h0c.6,0,1.2,0,1.8,.2h.4c0-.1-.1-.4-.3-.4-.4-.2-1-.4-1.5-.5-.3-.1-.6,0-.8,.2,0,.1-.2,.3-.1,.4l.4,.2h.1v-.1Zm-49,5.9v-.7c0-.1-.1-.3-.2-.4h-.4c-.1,.1-.2,.4-.3,.6v1c0,.3,0,.5,.4,.4,.2,0,.4-.2,.5-.4v-.7h0v.2Zm3-1.2v.6c0,.1,.1,.4,.3,.4s.4,0,.5-.4v-1.3c0-.4,0-.5-.4-.5s-.5,.2-.5,.5v.7h.1Zm-3.9-1.3v.5c0,.2,0,.5,.3,.5s.5-.2,.6-.4v-1.3c0-.4-.3-.4-.4-.4-.3,0-.4,.2-.4,.5v.7h0l-.1-.1Zm38.7,18.4v.9c0,.4,.1,.6,.5,.6s.5-.1,.5-.5v-.7c-.1-1-.2-1-1-.4h0v.1Zm-17.9,16c.3,.1,.5,.1,.5-.1v-1.5c0-.5-.1-.2-.3-.4-.1,.1-.2,.2-.3,.4,0,.1,0,.3-.1,.5-.1-.1-.2-.1-.3-.2,0,0-.1-.1-.2-.2-.13,.47,0,.77,.4,.9,.2,0,.4,.1,.5,.3,0,0-.1,.3-.2,.4h0v-.1Zm-1.5-40.2v-.8c0-.1-.1-.3-.3-.4-.1,.1-.3,.2-.4,.4v.3c0,.5,0,1,.1,1.5,0,.1,.2,.2,.3,.4,.1-.1,.3-.2,.3-.4v-.9h0v-.1Zm-12.4,14s0-.2-.1-.4c-.1-.3-.6-.4-.7,0-.1,.3-.2,.7-.3,1,0,.3,.1,.5,.5,.4,.3,0,.7-.6,.6-1h0Zm65.4-11.5c-.3,0-.6,0-.8,.1-.2,0-.4,.2-.3,.5,0,.4,.5,.7,1,.4h.2c.2,0,.4,0,.4-.4s-.2-.7-.5-.7h0v.1Zm5,24.5c0-.4-.3-.5-.9-.5s-.6,0-.7,.4c0,.3,.7,1,1,1s.6-.4,.6-.8h0v-.1Zm-40.5,7.2v.2c.1-.1,.4-.3,.4-.4,0-.3-.2-.4-.4-.3-.5,0-1,.2-1.5,0-.1,0-.4,0-.6,.1v.3c.4,0,.7,.2,1,.2s.7,0,1-.1h.1ZM11.94,56.3c-.3,.1-.6,.1-.7,.3-.2,.2-.4,.3-.8,.3s-.4,.1-.5,.3v.7c.2-.1,.4-.3,.5-.4s.4-.1,.5-.1c.7,0,.9-.3,.9-1.1h.1Zm38.3,14.5c-.3-.1-.4-.2-.6-.3-.4-.1-.6,0-.6,.4v.5c0,.4,.1,.6,.6,.4,.4,0,.7,0,1.1-.1h.4v-.2h-.4c-.4,0-.9-.1-1.2-.2h0c.2-.2,.4-.3,.9-.4h-.1l-.1-.1Zm45.8-35.6h0v-.5c0-.1-.2-.3-.4-.4-.1,.1-.4,.2-.4,.4v1.1c0,.1,.2,.3,.3,.4,.1-.1,.4-.3,.4-.4v-.5l.1-.1ZM22.24,71.9c.6-.3,.6-2.3,0-2.7-.3,.3-.4,2.3,0,2.7Zm81.2-22.5s-.2-.3-.4-.4c-.4-.1-.7,.4-.7,.8,0,.3,.1,.5,.2,.8,0,0,.1,.1,.3,.2,0,0,.2,0,.2-.1,0-.4,.1-.7,.3-1.2h0l.1-.1Zm-3.1-33h.1c0-.2-.1-.5-.4-.7-.2-.1-.5-.4-.7-.3-.1,0-.3,.4-.4,.7v.9c0,.1,.1,.4,.2,.5h.1c0-.1,0-.4-.1-.5-.1-.2,0-.4,.1-.6,.4-.3,.7,0,1,0h.1Zm-10.8,57.2c.1,.1,.2,.4,.3,.4,.2,0,.6-.1,.7-.3,.2-.3,.2-.7,.6-1v-.4h-.3c-.4,.4-.8,.9-1.2,1.4h0l-.1-.1Zm15.3-8.3h0v-.5c0-.2-.2-.4-.4-.5-.2,0-.5,.4-.4,.7,0,.4,.2,.7,.4,1l.1,.2s.2,0,.2-.1c0-.2,.1-.5,.1-.7h0v-.1Zm14-16c0,.3-.1,.7,.4,.7,.2,0,.4-.1,.6-.2,.4-.2,.4-1,.1-1h-.9c-.1,0-.1,.4-.1,.4h0l-.1,.1Zm-82.7-2.8c.6,0,1-.4,.9-.7s-.5-.7-.7-.7c-.4,0-.3,.7-.4,1,0,0,.2,.3,.2,.4h0Zm45.9,1.2c.4,0,.6-.1,.7-.4,0-.4-.5-.8-.8-.8s-.4,.3-.4,.6c0,.4,.2,.7,.6,.7h0l-.1-.1Zm-53.9,23.5c-.5,0-.7,.2-.7,.7s.2,.4,.4,.5c.4,0,.9-.4,.9-.8s-.3-.4-.6-.4h0Zm64-2.5h0v-1.5c-.4,.2-.9,.4-1.2,.7v.4s.2,.2,.3,.1c.4-.2,.7-.1,.9,.4h0v-.1Zm-40.8,1.4s-.1-.1-.3-.1h-.6c-.3,0-.6-.1-.9-.2-.1,0-.3,0-.4-.1,0,.1-.1,.2-.1,.4s.1,.3,.2,.3c.3,0,.7,0,.8,.4h.2c.3-.1,.5-.2,.7-.4l.1-.1h.1l.2-.2Zm56-35.1v.4c.1,.4,.4,.8,.6,1.2,0,0,.3,.2,.3,.1,.1-.1,.3-.4,.4-.6,0-.2,0-.4-.2-.6-.3-.2-.7-.4-1-.6h0l-.1,.1Zm-5.9,.6c-.4-.3-2,0-2.3,.4,.4,.4,2,0,2.3-.4Zm-47.3,5.1h-.1c-.1,.1-.3,.3-.3,.4,0,.3,0,.6,.1,.8,0,0,.4,.2,.5,.1,.1,0,.4-.3,.4-.4,0-.4-.3-.7-.5-1h0l-.1,.1Zm-.8,24.3c-.3-.2-.5-.5-.7-.5-.4,0-.7,.3-1,.4v.2c.4,.1,.7,.3,1,.4,.1,0,.3-.3,.5-.5h.2Zm57.9,5.7c-.4,0-.7,.2-.7,.6s.5,.5,.9,.5,.4-.3,.4-.6-.2-.5-.6-.5h0Zm-32.1-9.5c.5-.3,.6-.6,.4-1-.1-.2-.1-.4,0-.5,0,0,.1-.3,.1-.4s-.2-.1-.4-.1-.2,.1-.3,.3v1.3q0,.4,.1,.5h0l.1-.1Zm-8.4,4.2c-.3,0-.6,0-.7,.2s-.1,.4-.2,.7h.9c.3,0,.5,0,.5-.4s-.3-.3-.4-.4h0l-.1-.1Zm-2.7,3.2q0-.7-.6-.8h-.8v.4h.9c0,.1-.1,.3-.1,.4v.4h.4s.1-.3,.1-.4h.1Zm-17.2-30.1c-.2,0-.5,.1-.8,.2,0,0-.2,.2-.2,.3s.2,.2,.3,.2h1.2s.3-.1,.3-.2,0-.2-.2-.3-.4,0-.6-.1h0v-.1Zm3.3,27.8v.2c.1,0,.4,.3,.6,.3,.4,0,1,0,1.2-.6-.7-.2-1.2-.1-1.8,0h0v.1Zm62.9,4.8s0,.3,.2,.3h.5c.1,0,.3-.1,.4-.2,0,0,.1-.1,.2-.3,0,0,0-.2-.1-.2h-.7c-.3,0-.4,.1-.5,.6h0v-.2Zm-96-.1c0-.4,0-1-.1-1.5,0,0-.1,0-.1,.1,0,.53-.27,.87-.8,1-.1,0-.3,.3-.4,.4h.6c.3,0,.6,0,1-.1l-.2,.1Zm41.2-26.1c-.2,0-.4,.1-.4,.5s.4,.6,.7,.6,.4-.2,.4-.5-.2-.6-.6-.6h-.1Zm33.7,26h0c.2,.1,.4,.1,.6,.2h.7c.6,0,1.1,0,1.7-.1h.2c-1.1,0-2.1-.3-3.2,0h0v-.1ZM31.04,41.4h0v-.6s-.1-.2-.2-.3c0,0-.2,.1-.2,.3v1.1c0,.4,.2,.2,.3,.4,0-.1,.2-.2,.3-.4v-.5h-.2Zm25.8-5.7c.1-.1,.2-.1,.2-.1v-1.8s-.1-.1-.3-.2c0,0-.1,.1-.1,.3v2h0l.2-.2Zm-4.2,23.5c-.1,.1-.4,.4-.5,.5,.2,.1,.4,.4,.7,.5,.3,0,.4,0,.4-.4,0-.3,0-.6-.5-.7l-.1,.1Zm51,12.2h.4c.1,0,.3-.2,.4-.4-.1,0-.3-.2-.4-.3h-.7c-.1,0-.2,.1-.4,.2,0,.1,.1,.3,.3,.3,.1,0,.4,0,.4,.1h0v.1Zm-90-4.1h.4c.1-.1,.3-.4,.4-.5-.2,0-.4-.3-.5-.2-.3,0-.5,.3-.7,.4,0,0,0,.3,.1,.4h.4l-.1-.1Zm90.8,2v.3c.2,0,.4,.1,.7,.2h1.2v-.3c-.1,0-.3-.1-.4-.2h-1.5Zm-29.6-1.7h0c-.1-.1-.3,0-.4,0v.3c.1,0,.3,.1,.4,.1,.4,0,.7,0,1-.1,.1,0,.2-.1,.3-.2,0,0-.2-.2-.3-.2h-1.1l.1,.1Zm37.3,5.2h.3c.1,0,.2-.3,.4-.4-.1,0-.3-.2-.4-.2h-.5c-.1,0-.2,.2-.4,.3,.1,0,.2,.2,.4,.3h.2Zm-7.7-3.4h-1.2c-.3,0-.3,.2-.3,.3s.2,.4,.3,.4c.4,0,.9-.1,1.2-.6h0v-.1Zm-15.4-20.7c-.2-.2-.4-.4-.6-.4-.3,0-.4,.3-.4,.5s.2,.4,.4,.7c.1-.2,.4-.4,.6-.7v-.1Zm12.7-1.9c.2,.3,.4,.4,.6,.7,.1-.1,.4-.3,.4-.5s0-.7-.4-.7-.3,.3-.6,.5Zm-45.2,0c0,.1,.1,.3,.2,.4,.1-.1,.3-.2,.4-.4,0,0,.1-.1,.1-.3v-.5c-.2,0-.4,0-.6,.2,0,0,0,.3-.1,.4h0v.2ZM2.64,58.2c.5,0,.9-.3,.9-.6s-.3-.4-.3-.3c-.3,.1-.5,.4-.7,.6,0,0,.1,.2,.2,.3h-.1Zm100.2,14.9c.1,0,.3-.2,.4-.4-.1-.1-.3-.4-.4-.4-.3,0-.5,.2-.8,.3,0,0,0,.2,.1,.3,.1,0,.3,0,.5,.1h0l.2,.1ZM41.74,16.3c-.6,.1-.9,.5-.7,.9,0,0,0,.2,.2,.3h.3c.2-.3,.4-.7,.3-1.1h0l-.1-.1Zm25.6,36.6c-.7-.2-1.4,0-2,.3,.7,.1,1.3,.1,2-.3Zm-37.9-9.4c.3-.6,.2-1,.1-1.5,0,0-.1-.1-.2-.1,0,0-.2,0-.2,.1,0,.4-.1,1,.2,1.5h.1Zm23.8,7.9c-.1,0-.3-.1-.4-.1s-.2,0-.3,.1-.3,.3-.4,.4-.1,.1-.2,.3c.1,0,.3,.3,.4,.3,.3-.2,.6-.5,1.1-1h-.2Zm-2.6,21.1c-.1,0-.2-.1-.4-.2h-.8c-.2,0-.2,.1-.3,.1,0,0,.1,.2,.2,.3,.2,0,.5,.1,.8,.2,.3,0,.4,0,.5-.4h0Zm28.6-15.4c.1-.1,.4-.4,.4-.5s0-.4-.1-.5c-.1-.2-.4,0-.4,.1-.2,.3-.2,.6,.1,1h0v-.1Zm-3.7,7.4c0-.4-.1-.6-.2-.9h-.3c-.3,.4-.2,.7,0,1,0,0,.2,.1,.3,0,0,0,.1-.1,.1-.2h0l.1,.1Zm-71.5,3.8h-.3c0,.4,0,.8-.1,1.2,0,0,.1,.2,.2,.2s.2-.1,.2-.2v-1.2h0Zm17-7.9c.4-.4,.4-1.2,0-1.5-.3,.3-.3,1,0,1.5Zm4.2,7.4v-.3c-.7,0-1.4,.1-2.1,.2v.3c.7,0,1.4-.1,2.1-.2Zm-.5-33.4c.4-.3,.4-.9,0-1.2-.4,.3-.5,.9,0,1.2Zm48,34.3c.4,.4,1,.5,1.2,0-.4-.4-.8-.4-1.2,0Zm20.2,4.7c.5,.4,1.2,.4,1.5,0-.5-.3-1-.1-1.5,0Zm0-42.8s.2,.2,.3,.2c.2-.1,.4-.4,.5-.6-.1,0-.2-.2-.4-.2-.3,0-.4,.1-.4,.6h0ZM31.94,71.2c-.2,.4-.4,.7,0,1h.7c-.2-.4-.4-.7-.7-1Zm42.4-9.4c-.2,.2-.5,.4-.4,.4,0,.2,.2,.4,.4,.5,.1-.1,.4-.2,.4-.4s-.1-.3-.3-.6l-.1,.1Zm-57.4-6.6c-.2,.3-.4,.4-.4,.7,0,0,.3,.3,.4,.3s.3-.2,.4-.4c0-.1-.1-.3-.3-.5h0l-.1-.1Zm68.9,16.4c.2-.2,.4-.3,.4-.4,0-.3-.2-.4-.4-.4s-.3,.2-.4,.4c.1,.1,.2,.2,.4,.4Zm.1-26.9v-.2c-.1-.2-.3-.5-.4-.7-.4,.3-.4,.7-.1,.9h.5Zm-54.9,10.5h.2c.1-.1,.3-.3,.3-.4s-.2-.3-.3-.4c-.1,.1-.4,.3-.4,.4,0,0,.1,.3,.2,.4Zm-5.1-22.4c-.5,.2-.4,.6-.4,.9s.1,.2,.2,.3c0,0,.3-.2,.3-.3v-.9h-.1Zm93.7,27.4c-.2-.2-.4-.4-.5-.6,0,.1-.3,.3-.3,.4s.2,.3,.4,.4c0,0,.2-.1,.4-.4h0v.2Zm-63.7-5.5c.5,.2,1.2,.1,1.5-.3-.6,0-1-.1-1.5,.3Zm-21.3-19.7h0c.2,.1,.5,.1,.7,0,.2,0,.3-.4,0-.6-.2-.3-.4,0-.4,0-.1,.1-.2,.3-.4,.4h0l.1,.2Zm39.1,35.6c-.2,0-.4-.2-.7-.3-.1,0-.3,0-.4,.1h0c.3,.2,.7,.4,1,.4,0,0,0-.1,.1-.3h0v.1Zm-2.7-7.2c-.4,.1-.7,.6-.5,.8,0,.1,.4,.2,.5,.1,.4-.3,0-.6,0-.9h0Zm3.4,8.3c-.4-.4-1.5-.4-1.8,0h.3c.4-.1,.6,0,.9,.1h.6v-.1Zm15-31.8c-.3,.2-.6,.4-.4,.8h.4c.3-.2,.3-.5,0-.8Zm-7,29.7c-.2-.1-.4-.2-.5-.3-.2,0-.4,0-.4,.3s.1,.3,.3,.4c.1-.1,.4-.3,.6-.5h0v.1Zm-29.8-2.4c-.1,.3-.4,.4-.4,.6s.2,.2,.4,.4c.1-.1,.3-.3,.4-.4,0,0-.1-.2-.4-.4h0v-.2Zm-22.1-12.2c-.3-.2-.4-.4-.6-.4s-.3,.2-.3,.3,.1,.4,.3,.4,.3-.1,.6-.3Zm29-.8c-.7-.2-1-.1-1.3,.3,.4,0,.9,.1,1.3-.3Zm-46.2,3.8l.4,.4c.1-.1,.3-.3,.4-.4,0,0-.2-.2-.3-.2s-.3,.1-.6,.3h0l.1-.1Zm74.1-17.1c-.4-.1-.9-.1-1,0,0,0,0,.2,.1,.3,.2,.1,.6,0,.8-.4h0l.1,.1Zm-35.6,8.8c-.1,.1-.3,.3-.4,.4,.1,.1,.3,.3,.4,.4,0,0,.2-.2,.4-.3-.1-.1-.2-.3-.4-.4v-.1Zm28.8,15.7h-.4c-.1,0-.2,.1-.3,.3,.1,0,.2,.1,.4,.2h.2c.1,0,.2-.1,.4-.2-.1,0-.3-.1-.3-.2h0v-.1Zm-74.9,2.8h0c-.1-.2-.3-.4-.4-.4s-.3,.2-.4,.3c.1,0,.2,.3,.4,.3s.3-.1,.4-.2h0Zm17.8-29.1c.6,0,.8-.2,1.2-.6-.4,0-.9,0-1.2,.6Zm87.2,26.3c.3-.4,.2-.7-.1-1-.4,.4-.3,.7,.1,1Zm-5.2-28.8h0c-.1-.2-.3-.4-.4-.4s-.3,.1-.4,.3c.1,.1,.3,.3,.4,.4,0,0,.2-.1,.4-.1h0v-.2ZM42.44,14.6h.1c0-.1,.3-.3,.2-.4-.1-.2-.3-.4-.4-.7h-.1c0,.3,.1,.6,.2,.9h0v.2Zm50.8,33.1l-.1-.1c-.1-.2-.2-.5-.4-.7h-.2s-.1,.1,0,.2c0,.2,.1,.4,.2,.7,0,0,.1,.1,.2,.1h.4l-.1-.2ZM5.94,71c.1-.2,.3-.4,.4-.5-.1,0-.3-.3-.4-.3s-.3,.3-.4,.4l.3,.3h0l.1,.1Zm107,.1c-.3-.1-.4-.3-.6-.4,0,0-.3,.2-.2,.3,0,.1,.2,.4,.4,.4,0,0,.2-.1,.4-.4v.1Zm-80,1h0c.1,.2,.3,.4,.4,.4h.4v-.2s-.2-.1-.4-.2h-.4Zm39.8-2.4v-.2h-1.1s-.1,.1-.1,.2c0,0,0,.1,.1,.1,.4,0,.7,0,1.1-.1Zm19.3,1.4c-.2-.4-.5-.4-.8-.3,0,0-.1,.1-.1,.2,0,0,0,.1,.1,.1h.8ZM52.74,32.4c-.1-.1-.3-.4-.4-.4s-.3,.2-.3,.3,.1,.3,.3,.4c.1,0,.2-.2,.4-.4v.1ZM11.54,68.7c-.2,.2-.4,.3-.4,.4,0,0,.2,.3,.3,.3s.3-.2,.4-.4c0,0-.1-.1-.3-.4v.1Zm19.5-11.9h.1c0-.1,.2-.3,.2-.4s-.1-.2-.3-.4c-.1,.1-.3,.2-.3,.4s.1,.3,.2,.4h.1Zm21.4-15.8c.1-.2,.3-.4,.4-.6,0,0-.1-.2-.2-.3-.1,.1-.3,.3-.4,.4,0,0,.1,.2,.2,.4v.1Zm41.4,30.9c-.4-.4-.7-.4-1,0,.4,.2,.7,.3,1,0Zm24.3-2.2c.1-.2,.3-.4,.3-.4,0-.1-.2-.3-.4-.4,0,0-.2,.1-.3,.2,.1,.1,.2,.3,.4,.5h0v.1Zm-8.1-34.2c-.1,.2-.2,.4-.2,.5s.1,.2,.3,.3c.1-.1,.3-.2,.4-.4,0,0-.1-.2-.4-.4h-.1Zm-57.5-1.8c-.1,.2-.3,.4-.3,.4,0,.1,.1,.3,.3,.4,0-.1,.3-.2,.3-.4s-.1-.2-.3-.4Zm25.9,31.7v.3l.7,.2v-.4h-.6l-.1-.1ZM20.54,42.4c-.2-.1-.4-.4-.4-.4-.1,0-.3,.2-.3,.4,0,0,.1,.3,.2,.2,.1,0,.3-.1,.5-.3h0v.1Zm64.1,3c.4-.1,.5-.4,.4-.7,0,0-.3,0-.4-.1v.8Zm-32.3,.5c-.3-.1-.5-.3-.7-.4,0,.1-.1,.3,0,.4,.1,.3,.4,.3,.8,0h-.1Zm-29.2-2.1c-.1,.3-.2,.5-.2,.7s.1,.2,.2,.4c0-.1,.2-.2,.2-.4s-.1-.4-.2-.7Zm28.6,11.7c0,.2-.1,.6,.3,.6s.3-.1,.3-.2c0-.4-.2-.4-.6-.4h0Zm13.1,20.5s-.1,0-.2,.1c-.1,0-.2,.2-.4,.3,.1,0,.3,.3,.4,.3s.3-.1,.4-.2c0-.1,0-.3-.1-.4h0l-.1-.1Zm-11.9-14.8c-.2-.2-.4-.4-.7-.2,0,0-.1,.2-.1,.3,.2,.2,.5,.2,.8,0h0v-.1Zm19.3,7.7c-.3-.4-.5-.4-.7-.1v.4c.2,0,.4-.1,.7-.2h0v-.1ZM49.54,26.3s0,.1,.1,.2c0,.1,.2,.2,.3,.4,0,0,.3-.2,.3-.3s-.1-.3-.3-.4c0,0-.3,0-.4,.1h0Zm7.6,41.2v-.2h-1.2v.2h1.2Zm-4.6-19.5c-.1,.1-.4,.3-.3,.4,0,.1,.2,.3,.4,.3,0,0,.3-.1,.2-.2,0-.1-.1-.2-.3-.4h0v-.1Zm53.9-11.7c-.1,.2-.2,.4-.2,.4,0,0,.2,.2,.3,.2s.3-.1,.3-.3-.1-.2-.4-.4h0v.1Zm11,35.9c.1,.3,.4,.3,.7,.1v-.3c-.2-.1-.5-.1-.7,.1v.1ZM53.34,47c-.2-.1-.4-.2-.4-.2-.1,0-.2,.1-.3,.2l.2,.3c.1,0,.3-.1,.5-.3Zm21.4,19.6h-.7v.3h.7v-.3Zm26.7,5.1c.4,.4,.6,.4,.8,0h-.8Zm-7.7-44.8c-.2-.1-.4-.3-.4-.2-.1,0-.2,.2-.3,.3,0,0,.2,.2,.3,.2s.2-.1,.5-.3h-.1ZM41.54,15.5c.1,.1,.2,.3,.4,.4l.2-.2c0-.1-.1-.3-.3-.4,0,0-.1,.1-.2,.3h0l-.1-.1Zm61.5,41.6c-.3,0-.5-.1-.7-.2v.2c.2,0,.4,0,.7,.1h.1c0-.07,0-.1,0-.1h-.1Zm-51.3-13.9c-.1,.1-.3,.3-.3,.4s.1,.3,.2,.3,.2-.1,.4-.3c0,0-.1-.2-.3-.4h0Zm-24.8-10.6h-.3v.7h.3v-.6h0v-.1Zm-3.8,24.2c0-.2,.2-.3,.2-.4s-.1-.1-.2-.2c0,0-.2,.2-.3,.4,0,0,.1,.1,.3,.3v-.1Zm49.6,9.9v.3h.7v-.3h-.7Zm-20.4-30.7c0,.2-.2,.3-.2,.4s.1,.2,.1,.3c0,0,.2-.2,.2-.3s0-.2-.2-.4h.1ZM9.84,70.5c-.1-.1-.3-.2-.4-.3,0,0-.1,.1-.2,.2,.1,0,.2,.2,.4,.3,0,0,.1,0,.2-.2h0Zm106.1-2.9v.3c.1,0,.4,.1,.5,.1v-.4h-.5Zm-98,1.9s0-.1-.1-.2c-.1,0-.3,.1-.4,.3,0,0,0,.1,.1,.2,.1,0,.3-.2,.4-.3Zm55-1.9v.2c.2,0,.4-.1,.6-.2v-.2c-.2,0-.4,.1-.6,.2Zm-20.9,3.2h-.9c.3,.3,.5,.2,.9,0ZM109.14,31.1h-.1c.1,.2,.2,.4,.4,.7,.2-.4,0-.7-.2-.7h-.1ZM2.94,72c-.1-.1-.3-.2-.4-.2s-.2,.1-.2,.3,.1,.2,.2,.2,.1-.1,.3-.3h.1Zm24.6-4.4h0c.2,.4,.4,.3,.7,0h-.7Zm47.6-35.6c-.1-.1-.3-.2-.3-.2,0,0-.2,.1-.2,.3,0,0,.1,.2,.2,.2s.2-.1,.4-.2h0l-.1-.1Zm25.9,38.9c.4,.3,.6,.3,.7,0h-.7ZM30.34,53.6h-.2c0,.1,.1,.4,.1,.5h.2c0-.1,0-.4-.1-.5Z"/>
      <path class="cls-1" d="M63.54,4.8c.4,0,.4,.2,.4,.5v4c0,.1,.1,.4,.2,.5,0-.1,.2-.3,.2-.4v-3.4c0-.4-.2-.8,0-1.2,0-.1,.3-.1,.4-.2v4.2c0,.1,.2,.2,.3,.3,0-.1,.2-.2,.2-.4v-3.9c0-.3,.2-.6,.4-1,.1,0,.2,.1,.2,.1,0,.4,.4,.8,0,1.3v.3c.3,.7,.4,1.4,.1,2.1-.1,.3,0,.7,.1,1,0,.1,.3,.2,.4,.3,0-.1,.3-.4,.3-.5V3.9s.2,0,.3,.1c.1,.2,.3,.4,.6,.4s.2,.1,.4,.2c0,0,.2,.2,.3,.2,.5,0,.6,.3,.7,.6h0c0,.7-.1,1.4,.4,1.9h-.1c-.1,0-.4,0-.5,.1,0,.1,.1,.4,.3,.5,.2,.2,.4,.5,.7,.7h.6c.4-.1,.4-.4,.1-.7,0,0-.2-.2-.4-.3,.1-.2,.3-.4,.5-.5,0,0,.4-.1,.4,0,1.1,.7,2.1,1.4,3.1,2.1h.6c.7-.3,1.2-.7,1.8-1,.4-.1,.6-.4,.7-.8s.3-.4,.7-.1c.7,.5,1.3,.9,2,1.4,0,0,.2,0,.2,.1s0,.2,.1,.3h-.3c-.4-.2-.9-.5-1.3-.8-.1-.1-.4-.4-.6,0,0,.2-.1,.6,0,.7,.4,.3,.8,.5,1.2,.8,.5,.4,1,.1,1.4,0,.3-.1,.7-.3,1-.4,.6-.3,1,0,1.4,.3,.1,.1,0,.4,.1,.6-.1,0-.3,0-.4-.1-.1,0-.3-.1-.4-.1s-.1,.2-.1,.3c0,.4,0,.7,.4,1,.2,0,.4,.3,.7,.4,.2,.1,.3,.4,0,.6-.1,0-.4,.1-.5,0-.4-.2-.7-.2-1,0-.2,.1-.5,.2-.8,.3-.3,.1-.5,.2-.4,.7v1.3c.7-.3,1.2-.7,1.2-1.5,0-.1,.1-.3,.3-.4,0,.1,.2,.3,.2,.5v3.7c0,.5,.1,.7,.7,.7s.2,.1,.3,.3c-1.6-.3-2.7-1.5-4.1-2.4,.7-.1,.7-.6,.7-1.1v-1c-1.2,.1-2-.5-2.9-1-.7-.4-1.5-.7-2.2-1.1s-1.2-.8-1.9-1.2c0,0-.2-.1-.3-.2-1-.7-1.8-.8-2.9-.2s-2.2,1.2-3.1,2.1c0,0-.1,.1-.2,.2-.7,.4-1.4,.8-2.1,1.2-.6,.4-1.2,.4-1.9,.4h-.7v-.3c.3-.6,.5-1.2,.9-1.8,.4-.7,.5-1.3,.5-2.1v-3.7c0-.3,0-.5,.1-.8h0l.3-.2Zm3.7,5.2c-.2-.1-.4-.4-.6-.4s-.5,0-.8,.1c-.4,.1-.7,.3-1,.4-.4,.2-1,.5-1.4,.7,0,0-.1,.2-.2,.4,0,.3-.1,.6-.1,.9v.4c.1,0,.4,.1,.5,0,.4-.1,.7-.4,1-.6,.6-.3,1.2-.7,1.8-1,.5-.2,.5-.8,.8-1.2h0v.3Zm14.8,.5s0-.2-.2-.3h-.4c-.2,.3-.5,.7-.7,1-.1,.3,0,.4,.3,.4,.5,0,1-.5,1-1.2h0v.1Zm-1.9,.8s0-.2-.1-.3c-.4-.3-.9-.6-1.3-.8h-.3c0,.1,0,.3,.1,.4,.4,.3,.9,.5,1.4,.7h.2s0-.1,.1-.2h-.1v.2Zm.9,3.9s.1,.1,.3,.3c.2-.3,.4-.5,.6-.8,0,0-.1-.1-.2-.2-.3,0-.6,.3-.7,.7h0Zm-4-5.4c.2-.2,.4-.4,.5-.6-.1,0-.3-.3-.4-.2-.2,0-.4,.3-.5,.4,0,0,.1,.2,.3,.4h.1Zm-8.6-4.4h-.2v.8s.1,.2,.2,.2h.2v-1h-.2Zm-.9-.5h-.2v.7s0,.1,.1,.1c0,0,.2-.1,.2-.2v-.7h0l-.1,.1Zm9.6,5.5c-.1,.2-.4,.4-.3,.4,0,0,.2,.3,.3,.3s.3-.1,.3-.3-.1-.2-.3-.4Z"/>
      <path class="cls-1" d="M69.14,4.6c-.4-.2-.7-.4-1.1-.7-.4-.3-.9-.6-1.3-.8-.2,0-.5-.1-.7,0-.8,.4-1.5,1-2.3,1.5h-.6c-.2-.2,0-.4,.1-.5,.7-.4,1.5-.9,2.2-1.4,.1,0,.3,0,.4-.2,.4-.4,.7-.2,1,0,.8,.5,1.7,1,2.5,1.5,.1,0,.2,.3,.2,.4s-.1,.1-.3,.3h0l-.1-.1Z"/>
      <path class="cls-1" d="M120.54,16.2c-.1-.2-.2-.3-.2-.4-.1-.6-.5-.7-1-.4-.1,.1-.3,.5-.6,.2-.2-.3-.4-.7-.5-1,0,0,.1-.1,.3-.1,.4,0,.5-.1,.6-.5,0-.4,.3-.5,.7-.4h.6c.1,0,.4,0,.4,.1,.1,.6,.7,1.2,0,1.8-.1,.1-.2,.4-.4,.8h0l.1-.1Z"/>
      <path class="cls-1" d="M69.14,2.4c-.2,0-.4,0-.6-.2-.4-.3-1-.6-1.3-1-.7-.6-1.4-.3-2.1,0-.6,.3-1.1,.7-1.7,1h-.4c0-.1,0-.4,.2-.4,.4-.3,.9-.5,1.3-.8,.4-.3,.9-.7,1.4-1h.5c.9,.5,1.7,1.1,2.5,1.7,.1,0,.2,.2,.3,.4v.1h0l-.1,.2Z"/>
      <path class="cls-1" d="M26.44,42.3c.1,.3,.3,.5,.2,.7s-.4,.4-.6,.4-.4,.1-.7,.1-.3-.1-.4-.2c0-.1,.1-.4,.3-.4s.4-.1,.6-.2h0c-.1-.1-.3,0-.4,0s-.4-.1-.5-.3c0,0,0-.3,.2-.4,.4-.1,.7-.3,1.1-.4h.4v.4c0,.1,0,.2-.1,.3h-.1Z"/>
      <path class="cls-1" d="M33.54,23.9c-.5-.1-1-.7-1-1.2,0-.4,.7-.7,1.2-.6,.6,.1,1.2,.4,1.8,.5,.1,0,.2,.2,.3,.3v.1c-.3,0-.7-.1-1-.3-.3,0-.7-.2-1-.2s-.5,.2-.4,.7c0,.1,0,.3,.1,.5h0v.2Z"/>
      <path class="cls-1" d="M24.84,46.3c0-.1-.3-.3-.3-.4,0-.3,0-.5,.1-.8h.9c.1,0,.2-.3,.3-.4-.1,0-.2,0-.4-.1-.1,0-.4,0-.5-.1h0c.1-.1,.2-.3,.4-.3,.3,0,.6,0,.8-.3h.3v.3c-.2,.3-.3,.5,0,.8,0,0,0,.3-.2,.3-.4,.1-.7,.2-1.1,.4-.1,0-.2,.2-.2,.4v.4h-.1v-.2Z"/>
      <path class="cls-1" d="M106.34,29.8h-.1c0-.4-.23-.63-.7-.7-.2,0-.4-.2-.5-.4v-.3c.3-.2,.7-.4,1-.6h.4s.1,.3,0,.4c0,.4-.3,.7,0,1.1,0,0,0,.3-.1,.4h0v.1Z"/>
      <path class="cls-1" d="M98.04,9.4c0-.7,.2-1.2,.3-1.7,.4,.1,.7,.2,.9,.3-.2,.4-.4,.7-.6,1-.1,.1-.4,.3-.6,.4h0Z"/>
      <path class="cls-1" d="M105.24,26.2v-1h.3c.1,.2,.3,.4,.4,.5s.1,.2,.3,.3c-.1,0-.3,.3-.4,.3h-.7l.1-.1Z"/>
      <path class="cls-1" d="M54.34,20.4c0,.3-.1,.7-.1,1v.7c0,.3-.1,.4-.5,.6,.3-.8,.5-1.5,.7-2.3h-.1Z"/>
      <path class="cls-1" d="M106.94,25c-.1,0-.4-.1-.5-.2,.1-.1,.2-.2,.4-.4,0,.1,.2,.3,.3,.4l-.1,.1-.1,.1Z"/>
      <path class="cls-1" d="M112.64,28.4c-.1,0-.3-.1-.6-.2,.2-.1,.4-.2,.5-.3,0,.1,.1,.3,.2,.4h-.1v.1Z"/>
      <path class="cls-1" d="M120.04,27.4c-.2,.1-.4,.3-.5,.4,0,0-.1,0-.2-.1,.1-.1,.2-.3,.4-.4,0,0,.1,0,.3,.1h0Z"/>
      <path class="cls-1" d="M104.44,25.1c-.2,0-.5,0-.4-.6,.2,.2,.4,.3,.5,.4l-.1,.1h0v.1Z"/>
      <path class="cls-1" d="M99.84,47.7v2.1c0,.4-.2,.7-.6,.7-1.2,.1-2.6,.3-3.8,.5-.4,0-.6-.2-.6-.5v-4.2c0-.4,.3-.6,.6-.6,1.2-.2,2.4-.4,3.6-.7,.6,0,.7,0,.7,.7v2.1h0l.1-.1Z"/>
      <path class="cls-1" d="M111.04,48.1c-.5,0-.7,0-.7-.4,0,0,0-.2,.2-.2,0,0,.2,0,.2,.1s.1,.3,.2,.5h.1Z"/>
      <path class="cls-1" d="M71.44,43.9c0,.6,0,1.1-.1,1.7,0,.2-.2,.3-.4,.2-.3-.1-.4-.5-.4-.9v-.7c0-.3,.4-1,.7-1,.2,0,.4,.3,.5,.5h-.1l-.2,.2Z"/>
      <path class="cls-1" d="M74.04,42.4v3.1c0,.1-.1,.3-.2,.4h-.3v-.4c0-.1,0-.3,.2-.4,.1-.3,.1-.5,0-.8,0-.4,.1-.9-.2-1.3,0,0,.2-.4,.4-.7h.1v.1Z"/>
      <path class="cls-1" d="M74.04,41.9c-.1-.7-.9-1.4-.1-2.3,.3,.8,0,1.6,.1,2.3Z"/>
      <path class="cls-1" d="M74.04,48.7c-.4-.1-.7-.8-.5-1h.2s.2,0,.2,.1v.8h0l.1,.1Z"/>
      <path class="cls-1" d="M72.54,28.7c0-.4,0-.6,.4-.7,.6-.1,.6-.3,.5-.9v-.8q0-.3,.1-.4c.1,.1,.4,.2,.4,.4v1.2s0,.2-.1,.3c-.4,.3-.7,.6-1.2,1h0l-.1-.1Z"/>
      <path class="cls-1" d="M72.74,23.5c.2-.2,.4-.4,.7-.6h.4c0,.1-.1,.3-.2,.4-.3,.1-.6,.2-.8,.3v-.1h-.1Z"/>
      <path class="cls-1" d="M74.04,28.7c-.1,.1-.3,.2-.4,.3,0,0-.1-.1-.2-.1,.1,0,.2-.2,.4-.3,0,0,.1,0,.3,.2h0l-.1-.1Z"/>
      <path class="cls-1" d="M50.24,58c0,.4-.4,.3-.7,.4,0-.1-.2-.2-.2-.4,0-.3,0-.5,.4-.5s.5,0,.5,.4v.1Z"/>
      <path class="cls-1" d="M49.84,61c-.1-.2-.4-.4-.6-.7,.6,0,.7,0,.6,.7Z"/>
      <path class="cls-1" d="M74.04,34.3c-.1,.1-.2,.3-.3,.4-.1-.1-.2-.2-.4-.4,0,0,.2-.2,.3-.3l.4,.2h0v.1Z"/>
      <path class="cls-1" d="M48.04,27c.1,0,.4,0,.5-.1h.4c0,.1,0,.3-.2,.4-.4,.2-1,.4-1.4,.7-.6,.2-1.1,.5-1.7,.7h-.5c.1-.1,.2-.4,.4-.4,.4-.2,.9-.5,1.4-.4,0,0,.2-.2,.3-.3,.2-.2,.5-.4,.7-.7v.1h.1Z"/>
      <path class="cls-1" d="M38.64,31.7c.3-.2,.7-.4,1-.7,.6-.4,1.2-.7,1.8-1h.4v.4c-.4,.2-.9,.4-1.4,.6-.4,0-.7,.1-.9,.4s-.5,.3-.7,.4v-.1h-.2Z"/>
      <path class="cls-1" d="M46.14,30.1c-.1,0-.2,.2-.4,.3-.2,.1-.4,.2-.7,.3h-.4c0-.1,0-.4,.1-.4,.4-.4,.9-.2,1.3-.2h0c0,.1,0,0,0,0h.1Z"/>
      <path class="cls-1" d="M48.04,28.9c0,.4-.7,.9-1.5,1,.5-.4,.8-1,1.5-1Z"/>
      <path class="cls-1" d="M43.84,29c.1,0,.2,.1,.4,.2-.2,.1-.4,.3-.7,.4,0,0-.2-.1-.1-.2,0-.3,0-.5,.5-.5h0l-.1,.1Z"/>
      <path class="cls-1" d="M50.04,31.1c0-.2,0-.5,.2-.7,0,0,.2,0,.4-.1v1.1c0,.1,0,.4-.1,.5h-.3c0-.1-.1-.3-.1-.4v-.3h0l-.1-.1Z"/>
      <path class="cls-1" d="M49.94,35c0-.1,.1-.3,.3-.4h.2v.5c0,.3,0,.6,.1,.8v.3s-.3,0-.3-.1c-.1-.4-.2-.7-.4-1.1h.1Z"/>
      <path class="cls-1" d="M98.44,30.4c0,.4-.3,1-.7,1.4-.2,.2-.4,.4-.2,.8v.4s-.2,0-.3,.1c0,0-.1-.2-.1-.3,.3-.4,0-.6-.4-.8-.5-.3-.7-1-.6-1.6,.3-.9,.7-1.3,1.4-1.2,.6,0,1,.5,1,1.2h-.1Z"/>
      <path class="cls-1" d="M111.84,52.8h.4c.3,.5,.7,.4,1.1,.1h.4s.2,.3,.1,.4c0,0-.2,.1-.4,.2h-.6c-.3,0-.5,.1-.7-.3,0-.2-.4-.3-.6-.4h0c0-.1,.1-.1,.1-.1l.2,.1Z"/>
      <path class="cls-1" d="M114.84,53.7c.8-.3,1.5-.5,2.5-.2-.1,0-.2,0-.3,.1-.4,.1-1,0-1.4,.4-.2,.1-.5,0-.7-.3h-.1Z"/>
      <path class="cls-1" d="M103.64,60.7c.1,.2,.2,.4,.4,.7-.4-.1-.7-.2-.6-.6,0-.7,.2-.9,.7-.9s.3,.1,.4,.2c0,0-.1,.2-.3,.3s-.3,.1-.5,.2h0l-.1,.1Z"/>
      <path class="cls-1" d="M91.14,60.9c.1,0,.3-.1,.4-.1s.2,.1,.3,.3c0,0-.1,.3-.2,.3s-.2-.1-.4-.2c0,0,0-.1-.1-.2h0v-.1Z"/>
      <path class="cls-1" d="M67.34,70.7c.2,.1,.3,.3,.5,.4-.3,0-.4,.1-.6,.1,0,0-.1,0-.1-.1s.1-.3,.3-.5h0l-.1,.1Z"/>
    </g>
  </g>
</svg>