<?xml version="1.0" encoding="UTF-8"?>
<svg id="Layer_2" data-name="Layer 2" xmlns="http://www.w3.org/2000/svg" viewBox="0 0 306.28 41.8">
  <defs>
    <style>
      .cls-1 {
        fill: #1e3231;
      }
    </style>
  </defs>
  <g id="Layer_1-2" data-name="Layer 1">
    <g>
      <g>
        <path class="cls-1" d="M22.8,41.2c0-.1,0-.2,.2-.2h.7v-5.9h-2v1c0,.1,0,.2-.2,.2h-.1c-.1,0-.2,0-.2-.2v-1.3c0-.1,0-.2,.2-.2h5.5c.1,0,.2,0,.2,.2v1.3c0,.1,0,.2-.2,.2h-.1c-.1,0-.2,0-.2-.2v-1h-2v5.9h.7c.1,0,.2,0,.2,.2h0c0,.3,0,.4-.2,.4h-2.1c-.1,0-.2,0-.2-.2h0c0-.1-.1-.1-.1-.1l-.1-.1Z"/>
        <path class="cls-1" d="M28,41.2c0-.1,0-.2,.2-.2h.7v-5.9h-.7c-.1,0-.2,0-.2-.2h0c0-.3,0-.4,.2-.4h2.1c.1,0,.2,0,.2,.2h0c0,.3,0,.4-.2,.4h-.7v2.6h4.1v-2.6h-.7c-.1,0-.2,0-.2-.2h0c0-.3,0-.4,.2-.4h2.1c.1,0,.2,0,.2,.2h0c0,.3,0,.4-.2,.4h-.7v5.9h.7c.1,0,.2,0,.2,.2h0c0,.3,0,.4-.2,.4h-2.1c-.1,0-.2,0-.2-.2h0c0-.3,0-.4,.2-.4h.7v-2.7h-4.1v2.7h.7c.1,0,.2,0,.2,.2h0c0,.3,0,.4-.2,.4h-2.1c-.1,0-.2,0-.2-.2h0v-.2Z"/>
        <path class="cls-1" d="M36.4,41.2c0-.1,0-.2,.2-.2h.7v-5.9h-.7c-.1,0-.2,0-.2-.2h0c0-.3,0-.4,.2-.4h4.5c.1,0,.2,0,.2,.2v1c0,.1,0,.2-.2,.2h-.1c-.1,0-.2,0-.2-.2v-.7h-2.8v2.6h2.5c.1,0,.2,0,.2,.2h0c0,.3,0,.4-.2,.4h-2.5v2.7h2.9v-.7c0-.1,0-.2,.2-.2h.1c.1,0,.2,0,.2,.2v1.1c0,.1,0,.2-.2,.2h-4.8c-.1,0-.2,0-.2-.2h0v-.2l.2,.1Z"/>
        <path class="cls-1" d="M45.1,41.2c0-.1,0-.2,.2-.2h.7v-5.9h-.7c-.1,0-.2,0-.2-.2h0c0-.3,0-.4,.2-.4h4.5c.1,0,.2,0,.2,.2v1c0,.1,0,.2-.2,.2h-.1c-.1,0-.2,0-.2-.2v-.7h-2.8v2.6h2.5c.1,0,.2,0,.2,.2h0c0,.3,0,.4-.2,.4h-2.5v2.7h2.9v-.7c0-.1,0-.2,.2-.2h.1c.1,0,.2,0,.2,.2v1.1c0,.1,0,.2-.2,.2h-4.8c-.1,0-.2,0-.2-.2h0v-.2l.2,.1Z"/>
        <path class="cls-1" d="M51.6,35.1h-.5c-.1,0-.2,0-.2-.2h0c0-.3,0-.4,.2-.4h1.8c.1,0,.2,0,.2,.2h0c0,.3,0,.4-.2,.4h-.6l1.8,5.3v.4h.1s0-.2,.1-.4l1.8-5.3h-.6c-.1,0-.2,0-.2-.2h0c0-.3,0-.4,.2-.4h1.8c.1,0,.2,0,.2,.2h0c0,.3,0,.4-.2,.4h-.5l-2.3,6.4c0,.1-.1,.2-.3,.2h-.4c-.1,0-.2,0-.3-.2l-2.3-6.4h.4Z"/>
        <path class="cls-1" d="M58.2,38c0-2.1,1.6-3.7,3.7-3.7s3.7,1.6,3.7,3.7-1.6,3.7-3.7,3.7-3.7-1.6-3.7-3.7Zm6.5,0c0-1.7-1.3-3-2.9-3s-2.9,1.3-2.9,3,1.3,3.1,2.9,3.1,2.9-1.3,2.9-3.1Z"/>
        <path class="cls-1" d="M66.4,41.2c0-.1,0-.2,.2-.2h.7v-5.9h-.7c-.1,0-.2,0-.2-.2h0c0-.3,0-.4,.2-.4h2.1c.1,0,.2,0,.2,.2h0c0,.3,0,.4-.2,.4h-.7v5.9h2.9v-1c0-.1,0-.2,.2-.2h.1c.1,0,.2,0,.2,.2v1.3c0,.1,0,.2-.2,.2h-4.7c-.1,0-.2,0-.2-.2h0v-.1h.1Z"/>
        <path class="cls-1" d="M72.9,35.1h-.7c-.1,0-.2,0-.2-.2h0c0-.3,0-.4,.2-.4h2.1c.1,0,.2,0,.2,.2h0c0,.3,0,.4-.2,.4h-.7v3.9c0,.5,0,1,.3,1.3,.4,.5,1,.8,1.7,.8s1.4-.3,1.7-.8c.2-.4,.3-.8,.3-1.3v-3.9h-.7c-.1,0-.2,0-.2-.2h0c0-.3,0-.4,.2-.4h2.1c.1,0,.2,0,.2,.2h0c0,.3,0,.4-.2,.4h-.7v3.9c0,.7-.1,1.2-.4,1.7-.4,.7-1.3,1.1-2.3,1.1s-1.8-.4-2.3-1.1c-.3-.4-.4-1-.4-1.7v-3.9h0Z"/>
        <path class="cls-1" d="M81.6,41.2c0-.1,0-.2,.2-.2h.7v-5.9h-2v1c0,.1,0,.2-.2,.2h-.1c-.1,0-.2,0-.2-.2v-1.3c0-.1,0-.2,.2-.2h5.5c.1,0,.2,0,.2,.2v1.3c0,.1,0,.2-.2,.2h-.1c-.1,0-.2,0-.2-.2v-1h-2v5.9h.7c.1,0,.2,0,.2,.2h0c0,.3,0,.4-.2,.4h-2.1c-.1,0-.2,0-.2-.2h0c0-.1-.1-.1-.1-.1l-.1-.1Z"/>
        <path class="cls-1" d="M86.7,41.2c0-.1,0-.2,.2-.2h.7v-5.9h-.7c-.1,0-.2,0-.2-.2h0c0-.3,0-.4,.2-.4h2.1c.1,0,.2,0,.2,.2h0c0,.3,0,.4-.2,.4h-.7v5.9h.7c.1,0,.2,0,.2,.2h0c0,.3,0,.4-.2,.4h-2.1c-.1,0-.2,0-.2-.2h0v-.2Z"/>
        <path class="cls-1" d="M90.2,38c0-2.1,1.6-3.7,3.7-3.7s3.7,1.6,3.7,3.7-1.6,3.7-3.7,3.7-3.7-1.6-3.7-3.7Zm6.6,0c0-1.7-1.3-3-2.9-3s-2.9,1.3-2.9,3,1.3,3.1,2.9,3.1,2.9-1.3,2.9-3.1Z"/>
        <path class="cls-1" d="M98.4,41.2c0-.1,0-.2,.2-.2h.7v-5.9h-.7c-.1,0-.2,0-.2-.2h0c0-.3,0-.4,.2-.4h1.2c.1,0,.2,0,.3,.1l3.9,5.5c0,.1,.2,.4,.2,.4h0v-5.5h-.7c-.1,0-.2,0-.2-.2h0c0-.3,0-.4,.2-.4h2.1c.1,0,.2,0,.2,.2h0c0,.3,0,.4-.2,.4h-.7v6.3c0,.1,0,.2-.2,.2h-.3c-.1,0-.2,0-.3-.1l-3.9-5.5c0-.1-.2-.4-.2-.4h0v5.5h.7c.1,0,.2,0,.2,.2h0c0,.3,0,.4-.2,.4h-2.1c-.1,0-.2,0-.2-.2h0v-.2Z"/>
        <path class="cls-1" d="M109.4,38c0-2.1,1.6-3.7,3.7-3.7s3.7,1.6,3.7,3.7-1.6,3.7-3.7,3.7-3.7-1.6-3.7-3.7Zm6.5,0c0-1.7-1.3-3-2.9-3s-2.9,1.3-2.9,3,1.3,3.1,2.9,3.1,2.9-1.3,2.9-3.1Z"/>
        <path class="cls-1" d="M117.6,41.2c0-.1,0-.2,.2-.2h.7v-5.9h-.7c-.1,0-.2,0-.2-.2h0c0-.3,0-.4,.2-.4h4.3c.1,0,.2,0,.2,.2v1c0,.1,0,.2-.2,.2h-.1c-.1,0-.2,0-.2-.2v-.7h-2.5v2.7h2.3c.1,0,.2,0,.2,.2h0c0,.3,0,.4-.2,.4h-2.3v2.6h.7c.1,0,.2,0,.2,.2h0c0,.3,0,.4-.2,.4h-2.2c-.1,0-.2,0-.2-.2h0v-.1Z"/>
        <path class="cls-1" d="M124.8,41.2c0-.1,0-.2,.2-.2h.5l2.3-6.4c0-.1,.1-.1,.3-.1h.4c.1,0,.2,0,.3,.1l2.3,6.4h.5c.1,0,.2,0,.2,.2h0c0,.3,0,.4-.2,.4h-1.8c-.1,0-.2,0-.2-.2h0c0-.3,0-.4,.2-.4h.6l-.7-1.8h-2.8l-.7,1.8h.6c.1,0,.2,0,.2,.2h0c0,.3,0,.4-.2,.4h-1.8c-.1,0-.2,0-.2-.2h0v-.2Zm4.7-2.6l-1-2.9v-.4h0v.4l-1.1,2.9h2.1Z"/>
        <path class="cls-1" d="M134.6,41.2c0-.1,0-.2,.2-.2h.7v-5.9h-.7c-.1,0-.2,0-.2-.2h0c0-.3,0-.4,.2-.4h1.2c.1,0,.2,0,.3,.1l3.9,5.5c0,.1,.2,.4,.2,.4h0v-5.5h-.7c-.1,0-.2,0-.2-.2h0c0-.3,0-.4,.2-.4h2.1c.1,0,.2,0,.2,.2h0c0,.3,0,.4-.2,.4h-.7v6.3c0,.1,0,.2-.2,.2h-.3c-.1,0-.2,0-.3-.1l-3.9-5.5c0-.1-.2-.4-.2-.4h0v5.5h.7c.1,0,.2,0,.2,.2h0c0,.3,0,.4-.2,.4h-2.1c-.1,0-.2,0-.2-.2h0v-.2Z"/>
        <path class="cls-1" d="M142.5,41.2c0-.1,0-.2,.2-.2h.5l2.3-6.4c0-.1,.1-.1,.3-.1h.4c.1,0,.2,0,.3,.1l2.3,6.4h.5c.1,0,.2,0,.2,.2h0c0,.3,0,.4-.2,.4h-1.8c-.1,0-.2,0-.2-.2h0c0-.3,0-.4,.2-.4h.6l-.7-1.8h-2.8l-.7,1.8h.6c.1,0,.2,0,.2,.2h0c0,.3,0,.4-.2,.4h-1.8c-.1,0-.2,0-.2-.2h0v-.2Zm4.7-2.6l-1-2.9v-.4h0v.4l-1.1,2.9h2.1Z"/>
        <path class="cls-1" d="M150.9,41.2c0-.1,0-.2,.2-.2h.7v-5.9h-2v1c0,.1,0,.2-.2,.2h-.1c-.1,0-.2,0-.2-.2v-1.3c0-.1,0-.2,.2-.2h5.5c.1,0,.2,0,.2,.2v1.3c0,.1,0,.2-.2,.2h-.1c-.1,0-.2,0-.2-.2v-1h-2v5.9h.7c.1,0,.2,0,.2,.2h0c0,.3,0,.4-.2,.4h-2.1c-.1,0-.2,0-.2-.2h0c0-.1-.1-.1-.1-.1l-.1-.1Z"/>
        <path class="cls-1" d="M156.7,35.1h-.7c-.1,0-.2,0-.2-.2h0c0-.3,0-.4,.2-.4h2.1c.1,0,.2,0,.2,.2h0c0,.3,0,.4-.2,.4h-.7v3.9c0,.5,0,1,.3,1.3,.4,.5,1,.8,1.7,.8s1.4-.3,1.7-.8c.2-.4,.3-.8,.3-1.3v-3.9h-.7c-.1,0-.2,0-.2-.2h0c0-.3,0-.4,.2-.4h2.1c.1,0,.2,0,.2,.2h0c0,.3,0,.4-.2,.4h-.7v3.9c0,.7-.1,1.2-.4,1.7-.4,.7-1.3,1.1-2.3,1.1s-1.8-.4-2.3-1.1c-.3-.4-.4-1-.4-1.7v-3.9h0Z"/>
        <path class="cls-1" d="M164,41.2c0-.1,0-.2,.2-.2h.7v-5.9h-.7c-.1,0-.2,0-.2-.2h0c0-.3,0-.4,.2-.4h2.9c1.3,0,2.3,.4,2.3,2s-.6,1.8-1.6,2.1h0s.1,.1,.2,.3l1.2,2.1c.1,.2,.2,.2,.5,.2s.2,0,.2,.2h0c0,.3,0,.4-.2,.4h-.1c-.6,0-.7,0-1-.5l-1.2-2.1c-.2-.4-.4-.4-.8-.4h-1v2.4h.7c.1,0,.2,0,.2,.2h0c0,.3,0,.4-.2,.4h-2.1c-.1,0-.2,0-.2-.2h0v-.4Zm3.4-3.3c.9,0,1.5-.6,1.5-1.5s-.8-1.4-1.8-1.4h-1.4v2.9h1.7Z"/>
        <path class="cls-1" d="M170.5,41.2c0-.1,0-.2,.2-.2h.5l2.3-6.4c0-.1,.1-.1,.3-.1h.4c.1,0,.2,0,.3,.1l2.3,6.4h.5c.1,0,.2,0,.2,.2h0c0,.3,0,.4-.2,.4h-1.8c-.1,0-.2,0-.2-.2h0c0-.3,0-.4,.2-.4h.6l-.7-1.8h-2.8l-.7,1.8h.6c.1,0,.2,0,.2,.2h0c0,.3,0,.4-.2,.4h-1.8c-.1,0-.2,0-.2-.2h0v-.2Zm4.7-2.6l-1.1-2.9v-.4h0v.4l-1.1,2.9h2.2Z"/>
        <path class="cls-1" d="M178.2,41.2c0-.1,0-.2,.2-.2h.7v-5.9h-.7c-.1,0-.2,0-.2-.2h0c0-.3,0-.4,.2-.4h2.1c.1,0,.2,0,.2,.2h0c0,.3,0,.4-.2,.4h-.7v5.9h2.9v-1c0-.1,0-.2,.2-.2h.1c.1,0,.2,0,.2,.2v1.3c0,.1,0,.2-.2,.2h-4.7c-.1,0-.2,0-.2-.2h0v-.1h.1Z"/>
        <path class="cls-1" d="M186.4,41.2c0-.1,0-.2,.2-.2h.7v-5.9h-.7c-.1,0-.2,0-.2-.2h0c0-.3,0-.4,.2-.4h2.1c.1,0,.2,0,.2,.2h0c0,.3,0,.4-.2,.4h-.7v2.6h4.1v-2.6h-.7c-.1,0-.2,0-.2-.2h0c0-.3,0-.4,.2-.4h2.1c.1,0,.2,0,.2,.2h0c0,.3,0,.4-.2,.4h-.7v5.9h.7c.1,0,.2,0,.2,.2h0c0,.3,0,.4-.2,.4h-2.1c-.1,0-.2,0-.2-.2h0c0-.3,0-.4,.2-.4h.7v-2.7h-4.1v2.7h.7c.1,0,.2,0,.2,.2h0c0,.3,0,.4-.2,.4h-2.1c-.1,0-.2,0-.2-.2h0v-.2Z"/>
        <path class="cls-1" d="M194.8,41.2c0-.1,0-.2,.2-.2h.7v-5.9h-.7c-.1,0-.2,0-.2-.2h0c0-.3,0-.4,.2-.4h2.1c.1,0,.2,0,.2,.2h0c0,.3,0,.4-.2,.4h-.7v5.9h.7c.1,0,.2,0,.2,.2h0c0,.3,0,.4-.2,.4h-2.1c-.1,0-.2,0-.2-.2h0v-.2Z"/>
        <path class="cls-1" d="M198.5,39.8c0-.1,0-.2,.2-.2h.2c.1,0,.2,0,.2,.2v.3c0,.6,.7,1,1.5,1s1.6-.4,1.6-1.3-.9-1.2-1.8-1.6c-1-.4-1.9-.7-1.9-2s1-1.8,2.2-1.8,2.1,.4,2.1,1.1v.5c0,.1,0,.2-.2,.2h-.2c-.1,0-.2,0-.2-.2v-.3c0-.4-.7-.7-1.4-.7s-1.5,.4-1.5,1.2,.7,1.1,1.6,1.5c1,.4,2.1,.8,2.1,2.1s-1,2-2.3,2-2.3-.4-2.3-1.5v-.4h0l.1-.1Z"/>
        <path class="cls-1" d="M205.6,41.2c0-.1,0-.2,.2-.2h.7v-5.9h-2v1c0,.1,0,.2-.2,.2h-.1c-.1,0-.2,0-.2-.2v-1.3c0-.1,0-.2,.2-.2h5.5c.1,0,.2,0,.2,.2v1.3c0,.1,0,.2-.2,.2h-.1c-.1,0-.2,0-.2-.2v-1h-2v5.9h.7c.1,0,.2,0,.2,.2h0c0,.3,0,.4-.2,.4h-2.1c-.1,0-.2,0-.2-.2h0c0-.1-.1-.1-.1-.1l-.1-.1Z"/>
        <path class="cls-1" d="M210.6,38c0-2.1,1.6-3.7,3.7-3.7s3.7,1.6,3.7,3.7-1.6,3.7-3.7,3.7-3.7-1.6-3.7-3.7h0Zm6.5,0c0-1.7-1.3-3-2.9-3s-2.9,1.3-2.9,3,1.3,3.1,2.9,3.1,2.9-1.3,2.9-3.1Z"/>
        <path class="cls-1" d="M218.8,41.2c0-.1,0-.2,.2-.2h.7v-5.9h-.7c-.1,0-.2,0-.2-.2h0c0-.3,0-.4,.2-.4h2.9c1.3,0,2.3,.4,2.3,2s-.6,1.8-1.6,2.1h0s.1,.1,.2,.3l1.2,2.1c.1,.2,.2,.2,.5,.2s.2,0,.2,.2h0c0,.3,0,.4-.2,.4h-.1c-.6,0-.7,0-1-.5l-1.2-2.1c-.2-.4-.4-.4-.8-.4h-1v2.4h.7c.1,0,.2,0,.2,.2h0c0,.3,0,.4-.2,.4h-2.1c-.1,0-.2,0-.2-.2h0v-.4Zm3.3-3.3c.9,0,1.5-.6,1.5-1.5s-.8-1.4-1.8-1.4h-1.4v2.9h1.7Z"/>
        <path class="cls-1" d="M227,41.2c0-.1,0-.2,.2-.2h.7v-2.5l-2.1-3.5h-.4c-.1,0-.2,0-.2-.2h0c0-.3,0-.4,.2-.4h1.8c.1,0,.2,0,.2,.2h0c0,.3,0,.4-.2,.4h-.6l1.5,2.6c0,.1,.1,.2,.1,.3h0s0-.1,.1-.3l1.5-2.6h-.6c-.1,0-.2,0-.2-.2h0c0-.3,0-.4,.2-.4h1.8c.1,0,.2,0,.2,.2h0c0,.3,0,.4-.2,.4h-.4l-2.1,3.5v2.5h.7c.1,0,.2,0,.2,.2h0c0,.3,0,.4-.2,.4h-2.1c-.1,0-.2,0-.2-.2h0v-.1l.1-.1Z"/>
        <path class="cls-1" d="M234.1,41.2c0-.1,0-.2,.2-.2h.7l.4-5.9h-.7c-.1,0-.2,0-.2-.2h0c0-.3,0-.4,.2-.4h1.3c.1,0,.2,0,.3,.1l2,4.5c0,.2,.1,.4,.1,.4h0s0-.1,.1-.4l2-4.5c0-.1,.1-.1,.3-.1h1.2c.1,0,.2,0,.2,.2h0c0,.3,0,.4-.2,.4h-.7l.4,5.9h.7c.1,0,.2,0,.2,.2h0c0,.3,0,.4-.2,.4h-2.1c-.1,0-.2,0-.2-.2h0c0-.3,0-.4,.2-.4h.7l-.4-4.9v-.5h0s0,.3-.1,.5l-1.8,4c0,.1-.1,.1-.3,.1h-.3c-.1,0-.2,0-.3-.1l-1.8-4c0-.1-.1-.4-.1-.5h0v.5l-.4,4.9h.7c.1,0,.2,0,.2,.2h0c0,.3,0,.4-.2,.4h-2.1c-.1,0-.2,0-.2-.2h0v-.1l.2-.1Z"/>
        <path class="cls-1" d="M244.5,35.1h-.7c-.1,0-.2,0-.2-.2h0c0-.3,0-.4,.2-.4h2.1c.1,0,.2,0,.2,.2h0c0,.3,0,.4-.2,.4h-.7v3.9c0,.5,0,1,.3,1.3,.4,.5,1,.8,1.7,.8s1.4-.3,1.7-.8c.2-.4,.3-.8,.3-1.3v-3.9h-.7c-.1,0-.2,0-.2-.2h0c0-.3,0-.4,.2-.4h2.1c.1,0,.2,0,.2,.2h0c0,.3,0,.4-.2,.4h-.7v3.9c0,.7-.1,1.2-.4,1.7-.4,.7-1.3,1.1-2.3,1.1s-1.8-.4-2.3-1.1c-.3-.4-.4-1-.4-1.7v-3.9h0Z"/>
        <path class="cls-1" d="M251.8,39.8c0-.1,0-.2,.2-.2h.2c.1,0,.2,0,.2,.2v.3c0,.6,.7,1,1.5,1s1.6-.4,1.6-1.3-.9-1.2-1.8-1.6c-1-.4-1.9-.7-1.9-2s1-1.8,2.2-1.8,2.1,.4,2.1,1.1v.5c0,.1,0,.2-.2,.2h-.2c-.1,0-.2,0-.2-.2v-.3c0-.4-.7-.7-1.4-.7s-1.5,.4-1.5,1.2,.7,1.1,1.6,1.5c1,.4,2.1,.8,2.1,2.1s-1,2-2.3,2-2.3-.4-2.3-1.5v-.4h0l.1-.1Z"/>
        <path class="cls-1" d="M257.5,41.2c0-.1,0-.2,.2-.2h.7v-5.9h-.7c-.1,0-.2,0-.2-.2h0c0-.3,0-.4,.2-.4h4.5c.1,0,.2,0,.2,.2v1c0,.1,0,.2-.2,.2h-.1c-.1,0-.2,0-.2-.2v-.7h-2.8v2.6h2.5c.1,0,.2,0,.2,.2h0c0,.3,0,.4-.2,.4h-2.5v2.7h2.9v-.7c0-.1,0-.2,.2-.2h.1c.1,0,.2,0,.2,.2v1.1c0,.1,0,.2-.2,.2h-4.8c-.1,0-.2,0-.2-.2h0v-.2l.2,.1Z"/>
        <path class="cls-1" d="M264.4,35.1h-.7c-.1,0-.2,0-.2-.2h0c0-.3,0-.4,.2-.4h2.1c.1,0,.2,0,.2,.2h0c0,.3,0,.4-.2,.4h-.7v3.9c0,.5,0,1,.3,1.3,.4,.5,1,.8,1.7,.8s1.4-.3,1.7-.8c.2-.4,.3-.8,.3-1.3v-3.9h-.7c-.1,0-.2,0-.2-.2h0c0-.3,0-.4,.2-.4h2.1c.1,0,.2,0,.2,.2h0c0,.3,0,.4-.2,.4h-.7v3.9c0,.7-.1,1.2-.4,1.7-.4,.7-1.3,1.1-2.3,1.1s-1.8-.4-2.3-1.1c-.3-.4-.4-1-.4-1.7v-3.9h0Z"/>
        <path class="cls-1" d="M271.5,41.2c0-.1,0-.2,.2-.2h.7l.4-5.9h-.7c-.1,0-.2,0-.2-.2h0c0-.3,0-.4,.2-.4h1.3c.1,0,.2,0,.3,.1l2,4.5c0,.2,.1,.4,.1,.4h0s0-.1,.1-.4l2-4.5c0-.1,.1-.1,.3-.1h1.2c.1,0,.2,0,.2,.2h0c0,.3,0,.4-.2,.4h-.7l.4,5.9h.7c.1,0,.2,0,.2,.2h0c0,.3,0,.4-.2,.4h-2.1c-.1,0-.2,0-.2-.2h0c0-.3,0-.4,.2-.4h.7l-.4-4.9v-.5h0s0,.3-.1,.5l-1.8,4c0,.1-.1,.1-.3,.1h-.3c-.1,0-.2,0-.3-.1l-1.8-4c0-.1-.1-.4-.1-.5h0v.5l-.4,4.9h.7c.1,0,.2,0,.2,.2h0c0,.3,0,.4-.2,.4h-2.1c-.1,0-.2,0-.2-.2h0v-.1l.2-.1Z"/>
      </g>
      <g>
        <path class="cls-1" d="M16.9,2.2c2.9,0,5.6,0,7.5,.5,.7,.1,.7,.2,.8,.9,.1,2.5,.2,4.2,.2,6.7s-.1,.4-1,.4-.9,0-1-.4c-.7-2.1-1.5-3.4-2.9-4.9-1.2-1.2-2.5-1.8-4.7-1.8-3.4,0-6.3,2.3-6.3,7.8s1.9,11.5,4.3,13.9c.7,.7,1.6,1.1,2.2,1.1,1.4,0,1.7-.4,1.7-1.2v-7.7q0-.4-.4-.5l-1.5-.2c-.2,0-.3-.1-.3-.7s0-.7,.3-.7c.8,0,3.5,.2,6.4,.2s5.6-.2,6.4-.2,.3,0,.3,.7,0,.7-.3,.7l-1.5,.2c-.4,0-.4,.1-.4,.5v7h1c.3,0,.4,0,.4,.7s0,.6-.3,.7c-3.5,1.3-7.8,2.1-13.2,2.1C6.3,28,0,23.2,0,15.3S8.1,2.3,16.9,2.3h0v-.1Z"/>
        <path class="cls-1" d="M47.4,13.2c0,3.3-1.9,4.9-3.5,4.9s-1.2-.2-1.9-.7c-.8-.6-1.5-.9-2-.9s-.4,0-.4,0v8.9q0,.4,.4,.4l2.2,.2c.2,0,.3,.1,.3,.7s0,.7-.3,.7c-.8,0-3-.2-6.6-.2s-4.8,.2-5.6,.2-.3,0-.3-.7,0-.7,.3-.7l1.2-.2q.4,0,.4-.4v-9.1c0-.27-.13-.4-.4-.4l-1.2-.2c-.2,0-.3,0-.3-.7s0-.6,.3-.7c2.9-1.1,5.5-2.8,8.3-4.8h.3c.2,0,.9,.3,.9,.5,0,.6-.1,3.4-.1,5.6,1-3.4,2.9-5.9,5.1-5.9s3,1.5,3,3.4h0l-.1,.1Z"/>
        <path class="cls-1" d="M59,9.7c6,0,10.1,3.4,10.1,8.9s-4.5,9.2-10.8,9.2-10.1-3.4-10.1-8.9,4.5-9.2,10.8-9.2Zm.2,16.4c.4,.4,.7,.5,1.1,.5,.7,0,1.2-.4,1.2-2.3,0-3.6-2.1-11.4-3.6-12.8-.4-.4-.7-.5-1.1-.5-.7,0-1.2,.4-1.2,2.3,0,3.6,2.1,11.4,3.6,12.8Z"/>
        <path class="cls-1" d="M93.6,25.4c0,.6,0,.7-.3,.7-2.1,.4-4.8,1.1-7.4,1.8-.3,0-1.1-.1-1.2-.5-.3-1.1-.7-2.8-.7-3.7-.9,2.1-3.1,4.2-6.2,4.2s-5.9-2.3-5.9-6V12.2q0-.4-.4-.5l-1.2-.3c-.2,0-.3-.1-.3-.7s0-.8,.3-.8c3,0,9-.1,9.3-.1s.5,.3,.5,.5c0,.6-.3,2.6-.3,6.8v1.8c0,3.2,.7,4.3,3.1,4.3s.6,0,.7,0V12.3q0-.4-.4-.5l-1.2-.3c-.2,0-.3-.1-.3-.7s0-.8,.3-.8c3,0,9-.1,9.2-.1s.5,.3,.5,.5c0,.6-.3,2.6-.3,6.8v6.8q0,.4,.4,.5l1.2,.3c.2,0,.3,.1,.3,.7h0l.3-.1Z"/>
        <path class="cls-1" d="M118.1,26.9c0,.6,0,.7-.3,.7-.8,0-3-.2-5.6-.2s-4.5,.2-5.3,.2-.3,0-.3-.7,0-.7,.3-.7l1-.2c.4,0,.4-.1,.4-.5v-6.8c0-3.2-.7-4.3-3.1-4.3s-.6,0-.7,0v11c0,.27,.13,.43,.4,.5l1,.2c.2,0,.3,.1,.3,.7s0,.7-.3,.7c-.8,0-2.8-.2-5.3-.2s-4.8,.2-5.6,.2-.3,0-.3-.7,0-.7,.3-.7l1.2-.2c.4,0,.4-.1,.4-.5v-9.1c0-.27-.13-.4-.4-.4l-1.2-.2c-.2,0-.3,0-.3-.7s0-.6,.3-.7c2.9-1.1,5.5-2.8,8.3-4.8h.3c.2,0,.9,.3,.9,.5,0,.6-.1,1.7-.1,3.7,1-2.1,3.1-4,6.2-4s5.9,2.2,5.9,5.9v9.7q0,.4,.4,.5l1.2,.2c.2,0,.3,.1,.3,.7h-.1l-.2,.2Z"/>
        <path class="cls-1" d="M141.5,25.4c0,.6,0,.7-.3,.7-2.1,.4-4.8,1.1-7.4,1.8-.3,0-1.1-.1-1.2-.5-.3-1.1-.7-2.5-.7-3.4-1.2,2.6-3.1,3.9-5.6,3.9-3.6,0-7.2-3.5-7.2-9.3s3.7-8.9,9.4-8.9,2.1,0,3.1,.4V5q0-.4-.4-.5l-1.2-.3c-.2,0-.3-.1-.3-.7s0-.7,.3-.7c2.6-.5,6.1-1.2,8.5-1.9h.4c.2,0,.9,.3,.9,.5,0,.6-.3,2.9-.3,7.2v15.4q0,.4,.4,.5l1.2,.3c.2,0,.3,.1,.3,.7h0l.1-.1Zm-10.2-1.8c.1,0,.3,0,.4-.1v-4.1c0-3.1-1.4-6.8-2.5-7.9s-.7-.6-1.2-.6c-.7,0-1.2,.7-1.2,2,0,3.2,1.8,8.5,3.7,10.3,.4,.4,.6,.4,.8,.4h0Z"/>
        <path class="cls-1" d="M164.1,18.4c0,6-4.2,9.4-9.8,9.4s-5.6-.9-7.3-2.3c-1,.7-1.5,1.2-2.3,2-.1,.1-.2,.2-.4,.2-.4,0-1-.3-1-.4,0-.4,.4-1.8,.4-5.2V7.7c0-.27-.13-.4-.4-.4l-1.2-.2c-.2,0-.3,0-.3-.7s0-.6,.3-.7c2.9-1.1,5.9-2.9,8.6-4.8h.3c.2,0,.9,.3,.9,.5,0,.6-.3,2.9-.3,7.2v4.5c1.2-2.3,3.2-3.4,5.4-3.4,3.6,0,7.2,2.9,7.2,8.6h0l-.1,.1Zm-7.6,6.4c0-3-1.8-8.6-3.7-10.4-.4-.4-.6-.4-.8-.4s-.3,0-.4,.1v4.1c0,3.3,1.3,6.7,2.5,7.9,.4,.4,.7,.6,1.2,.6,.7,0,1.2-.7,1.2-1.9h0Z"/>
        <path class="cls-1" d="M183.1,13.2c0,3.3-1.9,4.9-3.5,4.9s-1.1-.2-1.9-.7c-.8-.6-1.5-.9-2-.9s-.4,0-.4,0v8.9q0,.4,.4,.4l2.2,.2c.2,0,.3,.1,.3,.7s0,.7-.3,.7c-.8,0-3-.2-6.6-.2s-4.8,.2-5.6,.2-.3,0-.3-.7,0-.7,.3-.7l1.2-.2q.4,0,.4-.4v-9.1c0-.27-.13-.4-.4-.4l-1.2-.2c-.2,0-.3,0-.3-.7s0-.6,.3-.7c2.9-1.1,5.5-2.8,8.3-4.8h.3c.2,0,.9,.3,.9,.5,0,.6-.1,3.4-.1,5.6,1-3.4,2.9-5.9,5.1-5.9s3,1.5,3,3.4h0l-.1,.1Z"/>
        <path class="cls-1" d="M191.7,16.8c.5,1.7,1.5,3.4,2.4,4.3,1.3,1.3,2.3,1.7,3.5,1.7s2.4-.6,3.4-1.4c.3-.3,1.2,.4,1,.7-1.4,3.5-5.3,5.9-9,5.9s-9.1-3.5-9.1-8.9,4.2-9.2,10.3-9.2,7.9,2.5,7.9,5.8,0,.7,0,.9-.1,.2-.4,.2c-2.7,.1-6.7,.2-9.9,0h-.1Zm3.2-4c0-1.3-.6-2-1.5-2s-2.1,1-2.1,3,0,1.5,.2,2.2h1.1c1.6-.3,2.3-1.5,2.3-3.2h0Z"/>
        <path class="cls-1" d="M213.4,23.5c-1.1,2.8-3.2,4.4-5.7,4.4s-4.5-2.1-4.5-4.8,.7-3.3,2.4-4.2c1.6-.9,4.2-1.6,7.5-2.3v-1.1c0-2.5-.7-4-2.1-4s-.5,0-.6,.6l-.2,1.7c-.4,2.5-1.8,3.7-3.7,3.7s-2.1-.7-2.1-1.9c0-2.2,4.2-5.6,9.5-5.6s6.9,1.8,6.9,5.2v6.4c0,2.8,.6,2.8,1.5,2.2h.2c.3,0,.8,.7,.8,1s-.1,.3-.4,.5h-.1c-2.1,2.2-3.5,3.1-5.2,3.1s-3.5-1.4-4.3-4.4h0l.1-.5Zm-.3-.5v-2.4c0-.7-.3-1.3-.7-1.7-.4-.4-1-.7-1.3-.7-.7,0-1,.4-1,1.5,0,1.9,1.3,3.6,2.4,3.6s.5-.1,.7-.2h0l-.1-.1Z"/>
        <path class="cls-1" d="M249.6,26.9c0,.6,0,.7-.3,.7-.8,0-3.6-.2-6.8-.2s-5.7,.2-6.4,.2-.3,0-.3-.7,0-.7,.3-.7h1.1c.4-.1,.3-.4,0-.7l-3.9-5.6v5.6q0,.4,.4,.5l1,.2c.2,0,.3,.1,.3,.7s0,.7-.3,.7c-.8,0-2.9-.2-5.3-.2s-4.8,.2-5.6,.2-.3,0-.3-.7,0-.7,.3-.7l1.2-.2c.4,0,.4-.1,.4-.5V7.8c0-.27-.13-.4-.4-.4l-1.2-.2c-.2,0-.3,0-.3-.7s0-.6,.3-.7c2.9-1.1,5.9-2.9,8.6-4.8h.3c.2,0,.9,.3,.9,.5,0,.6-.3,2.9-.3,7.2v9.8l2.6-2c4.8-3.7,4.8-4.1,4.2-4.3l-2.3-.7c-.2,0-.3-.1-.3-.7s0-.7,.3-.7c.8,0,3.6,.2,5.4,.2s4.5-.2,5.3-.2,.3,0,.3,.7,0,.7-.3,.7l-2.7,.8c-.7,.2-1.6,.6-6.2,4.1h0l7.9,9.2c.3,.4,.4,.4,.8,.5l1.1,.2c.2,0,.3,.1,.3,.7h0l-.1-.1Z"/>
        <path class="cls-1" d="M250.1,26.9c0-.6,0-.7,.3-.7l1.2-.2c.4,0,.4-.1,.4-.5v-9.1c0-.27-.13-.4-.4-.4l-1.2-.2c-.2,0-.3,0-.3-.7s0-.6,.3-.7c2.9-1.1,5.9-2.9,8.6-4.8h.3c.2,0,.9,.3,.9,.5,0,.6-.3,2.9-.3,7.2v8.2q0,.4,.4,.5l1.2,.2c.2,0,.3,.1,.3,.7s0,.7-.3,.7c-.8,0-3-.2-5.6-.2s-4.8,.2-5.6,.2-.3,0-.3-.7h.1Zm2.4-22.9c0-2.3,1.7-4,4-4s4,1.7,4,4-1.7,4-4,4-4-1.7-4-4Z"/>
        <path class="cls-1" d="M286.3,26.9c0,.6,0,.7-.3,.7-.8,0-3-.2-5.6-.2s-4.5,.2-5.3,.2-.3,0-.3-.7,0-.7,.3-.7l1-.2c.4,0,.4-.1,.4-.5v-6.8c0-3.2-.7-4.3-3.1-4.3s-.6,0-.7,0v11c0,.27,.13,.43,.4,.5l1,.2c.2,0,.3,.1,.3,.7s0,.7-.3,.7c-.8,0-2.8-.2-5.3-.2s-4.8,.2-5.6,.2-.3,0-.3-.7,0-.7,.3-.7l1.2-.2c.4,0,.4-.1,.4-.5v-9.1c0-.27-.13-.4-.4-.4l-1.2-.2c-.2,0-.3,0-.3-.7s0-.6,.3-.7c2.9-1.1,5.5-2.8,8.3-4.8h.3c.2,0,.9,.3,.9,.5,0,.6-.1,1.7-.1,3.7,1-2.1,3.1-4,6.2-4s5.9,2.2,5.9,5.9v9.7q0,.4,.4,.5l1.2,.2c.2,0,.3,.1,.3,.7h-.1l-.2,.2Z"/>
        <path class="cls-1" d="M306,28.6c0,3.3-3.7,6.7-11.6,6.7s-8.6-1.1-8.6-3.1,1.7-1.8,4-2.5c-1.9-.9-3.1-2.4-3.1-4.7s1.8-2.5,4.7-3.8c-2.1-1-4-2.7-4-5.3,0-3.7,3.7-6.1,8.9-6.1s2.6,.3,3.8,.8c2.3,0,4.5-.1,5.5-.1s.6,0,.6,.5c0,1.2,0,1.8-.6,1.8s-1.8,0-2.9-.2c.7,.9,1.2,2,1.2,3.3,0,3.7-3.7,6.2-8.9,6.2s-1.6,0-2.4-.4c-.7,.1-1,.6-1,1.1,0,.7,.7,1.1,3.1,1.1h3.1c5.1,0,8.1,1.8,8.1,4.8h0l.1-.1Zm-5.2,3.6c0-1-.8-1.7-5.3-1.7h-1.9c-.8,0-1.6,0-2.3-.2-.4,.3-.6,.7-.6,1.2,0,1.5,2.1,2.6,5.4,2.6s4.7-.9,4.7-1.8h0v-.1Zm-7.1-19.8c0,4,2.1,8.4,3.3,8.4s1-.2,1-1.5c0-4-2.2-8.4-3.3-8.4s-1,.2-1,1.5Z"/>
      </g>
      <path class="cls-1" d="M47.5,13c0,3.3-1.9,4.9-3.5,4.9s-1.2-.2-1.9-.7c-.8-.6-1.5-.9-2-.9s-.4,0-.4,0v8.9q0,.4,.4,.4l2.2,.2c.2,0,.3,.1,.3,.7s0,.7-.3,.7c-.8,0-3-.2-6.6-.2s-4.8,.2-5.6,.2-.3,0-.3-.7,0-.7,.3-.7l1.2-.2q.4,0,.4-.4v-9.1c0-.27-.13-.4-.4-.4l-1.2-.2c-.2,0-.3,0-.3-.7s0-.6,.3-.7c2.9-1.1,5.5-2.8,8.3-4.8h.3c.2,0,.9,.3,.9,.5,0,.6-.1,3.4-.1,5.6,1-3.4,2.9-5.9,5.1-5.9s3,1.5,3,3.4h0l-.1,.1Z"/>
      <path class="cls-1" d="M59.1,9.6c6,0,10.1,3.4,10.1,8.9s-4.5,9.2-10.8,9.2-10.1-3.4-10.1-8.9,4.5-9.2,10.8-9.2Zm.2,16.3c.4,.4,.7,.5,1.1,.5,.7,0,1.2-.4,1.2-2.3,0-3.6-2.1-11.4-3.6-12.8-.4-.4-.7-.5-1.1-.5-.7,0-1.2,.4-1.2,2.3,0,3.6,2.1,11.4,3.6,12.8h0Z"/>
    </g>
  </g>
</svg>